<svg width="24" height="24" viewBox="0 0 24 24" fill="none" xmlns="http://www.w3.org/2000/svg">
<path d="M3 1C3 0.447716 3.44772 0 4 0H14.5858C14.851 0 15.1054 0.105357 15.2929 0.292893L20.7071 5.70711C20.8946 5.89464 21 6.149 21 6.41421V23C21 23.5523 20.5523 24 20 24H4C3.44772 24 3 23.5523 3 23V1Z" fill="#EEEEEE"/>
<path d="M15 0L18 3L21 6H16C15.4477 6 15 5.55228 15 5V0Z" fill="#BDBDBD"/>
<path d="M6 9.42871H12" stroke="#616161" stroke-width="1.5" stroke-linejoin="round"/>
<path d="M6 18H12" stroke="#616161" stroke-width="1.5" stroke-linejoin="round"/>
<path d="M6 13.7139H14.5714" stroke="#616161" stroke-width="1.5" stroke-linejoin="round"/>
</svg>
