<svg width="24" height="24" viewBox="0 0 24 24" fill="none" xmlns="http://www.w3.org/2000/svg">
<g clip-path="url(#clip0_2285_27988)">
<ellipse cx="12.0003" cy="12" rx="5.14286" ry="12" fill="url(#paint0_linear_2285_27988)"/>
<ellipse cx="12.0003" cy="12" rx="5.14286" ry="12" fill="#6F4FF2"/>
<ellipse cx="11.9992" cy="11.9997" rx="5.14286" ry="12" transform="rotate(120 11.9992 11.9997)" fill="url(#paint1_linear_2285_27988)"/>
<ellipse cx="11.9992" cy="11.9997" rx="5.14286" ry="12" transform="rotate(120 11.9992 11.9997)" fill="#6F4FF2"/>
<ellipse cx="12.0006" cy="12.0003" rx="5.14286" ry="12" transform="rotate(-120 12.0006 12.0003)" fill="url(#paint2_linear_2285_27988)"/>
<ellipse cx="12.0006" cy="12.0003" rx="5.14286" ry="12" transform="rotate(-120 12.0006 12.0003)" fill="#6F4FF2"/>
<path fill-rule="evenodd" clip-rule="evenodd" d="M12.0003 17.1431C14.8406 17.1431 17.1431 14.8406 17.1431 12.0003C17.1431 9.15996 14.8406 6.85742 12.0003 6.85742C9.15996 6.85742 6.85742 9.15996 6.85742 12.0003C6.85742 14.8406 9.15996 17.1431 12.0003 17.1431ZM12.0003 15.4289C13.8938 15.4289 15.4289 13.8938 15.4289 12.0003C15.4289 10.1067 13.8938 8.57171 12.0003 8.57171C10.1067 8.57171 8.57171 10.1067 8.57171 12.0003C8.57171 13.8938 10.1067 15.4289 12.0003 15.4289Z" fill="#D6CBF6"/>
<path fill-rule="evenodd" clip-rule="evenodd" d="M12.0003 17.1431C14.8406 17.1431 17.1431 14.8406 17.1431 12.0003C17.1431 9.15996 14.8406 6.85742 12.0003 6.85742C9.15996 6.85742 6.85742 9.15996 6.85742 12.0003C6.85742 14.8406 9.15996 17.1431 12.0003 17.1431ZM12.0003 15.4289C13.8938 15.4289 15.4289 13.8938 15.4289 12.0003C15.4289 10.1067 13.8938 8.57171 12.0003 8.57171C10.1067 8.57171 8.57171 10.1067 8.57171 12.0003C8.57171 13.8938 10.1067 15.4289 12.0003 15.4289Z" fill="#D9CFFF"/>
</g>
<defs>
<linearGradient id="paint0_linear_2285_27988" x1="8.57171" y1="1.28571" x2="14.5717" y2="22.2857" gradientUnits="userSpaceOnUse">
<stop stop-color="#8C6AF5"/>
<stop offset="1" stop-color="#6C47DF"/>
</linearGradient>
<linearGradient id="paint1_linear_2285_27988" x1="8.57059" y1="1.28546" x2="14.5706" y2="22.2855" gradientUnits="userSpaceOnUse">
<stop stop-color="#8C6AF5"/>
<stop offset="1" stop-color="#6C47DF"/>
</linearGradient>
<linearGradient id="paint2_linear_2285_27988" x1="8.57199" y1="1.28597" x2="14.572" y2="22.286" gradientUnits="userSpaceOnUse">
<stop stop-color="#8C6AF5"/>
<stop offset="1" stop-color="#6C47DF"/>
</linearGradient>
<clipPath id="clip0_2285_27988">
<rect width="24" height="24" fill="white"/>
</clipPath>
</defs>
</svg>
