<svg width="76" height="64" viewBox="0 0 76 64" fill="none" xmlns="http://www.w3.org/2000/svg">
<path d="M36.8944 16.7762C30.6394 15.1328 23.8358 16.8214 18.3478 20.2488C11.412 24.5809 6.4546 31.4407 3.31067 39.0663C4.0022 40.3071 4.98612 41.3227 6.30923 41.9012C7.9814 42.6334 9.88355 42.5249 11.7068 42.4452C20.0679 42.0812 28.444 42.607 36.694 44.0138C42.3972 44.9868 48.0584 46.3828 53.8395 46.5981C55.3885 46.658 56.9398 46.6152 58.4831 46.47C57.6019 39.5946 55.0074 32.9362 50.9428 27.3239C47.4416 22.4782 42.669 18.2964 36.8944 16.7762Z" fill="white"/>
<path d="M73.7155 31.4026C72.5403 25.1435 67.9508 18.4736 64.2385 15.2294C62.021 13.291 59.3986 11.8801 56.7573 10.5777C54.0068 9.22019 51.1569 7.94813 48.1164 7.54549C45.7347 7.23159 43.3234 7.46334 40.9457 7.77888C26.1081 9.74691 2.93431 13.9418 2.01609 32.8266C1.91343 34.9417 2.29698 37.2442 3.31046 39.0635C6.4544 31.4404 11.4117 24.5806 18.3476 20.246C23.8339 16.8186 30.6392 15.1275 36.8942 16.7735C42.6688 18.2936 47.4413 22.4754 50.9425 27.3145C55.0072 32.931 57.6016 39.5894 58.4829 46.4606C62.7413 46.0498 66.9004 44.7802 70.2743 42.2025C73.7697 39.5393 74.4966 35.5613 73.7155 31.4026Z" fill="#2BB6BF"/>
<path d="M53.2364 19.1361C53.1666 14.3651 49.9118 9.9377 45.5573 7.26956C41.2028 4.60143 35.8824 3.50607 30.6384 3.23654C26.0687 3.00153 21.3823 3.37378 17.165 4.99093C12.9476 6.60808 9.2345 9.57941 7.5919 13.4604C6.18173 16.7867 6.7131 21.1558 10.0106 23.0877C10.2291 28.7913 9.64023 34.5097 10.023 40.2083C10.0632 40.8074 10.119 41.4409 10.5075 41.9265C11.0619 42.6193 12.27 43.33 13.1644 43.6201C22.6176 46.6835 32.2777 47.193 42.553 45.5421C43.2848 45.4246 44.2736 44.7278 44.8469 44.3005C45.4768 43.8305 45.6222 43.0219 45.7248 42.2873C46.3271 37.9847 46.9294 33.6827 47.5317 29.3813C47.6385 28.613 47.7551 27.82 48.1887 27.1536C48.8335 26.1536 50.0597 25.6055 50.9869 24.8092C52.6353 23.3877 53.2668 21.206 53.2364 19.1361Z" fill="#F1BD91"/>
<path d="M54.4044 19.1363C54.3223 14.5453 51.635 10.3866 48.0952 7.62562C44.0256 4.45213 38.9837 2.9763 33.9278 2.35015C31.3804 2.03152 28.8106 1.93008 26.2461 2.04694C23.5523 2.17512 20.8428 2.56383 18.2648 3.37076C13.884 4.74304 9.67479 7.40623 7.30042 11.436C6.22451 13.261 5.59129 15.358 5.69395 17.4887C5.79497 19.5693 6.55058 21.6557 8.09134 23.1044C8.49475 23.4832 8.93842 23.8166 9.41444 24.0987L8.83953 23.088C8.95287 26.1078 8.84445 29.1293 8.77136 32.1491C8.73604 33.6282 8.70895 35.1073 8.72209 36.5864C8.72948 37.3416 8.7459 38.0959 8.77793 38.8503C8.81078 39.6227 8.83378 40.405 8.95779 41.17C9.07572 41.8944 9.43076 42.5592 9.96717 43.0599C10.4368 43.496 10.9614 43.8686 11.5276 44.1684C12.735 44.82 14.1164 45.1545 15.4313 45.516C18.1508 46.2547 20.9188 46.8014 23.7149 47.1521C29.2464 47.8596 34.8575 47.7552 40.3807 47.0272C41.1815 46.9212 41.9814 46.8111 42.7789 46.6813C43.4056 46.5785 44.0002 46.2704 44.5349 45.9335C45.0424 45.6163 45.6297 45.2621 46.0075 44.7946C46.4477 44.2498 46.6899 43.6105 46.8057 42.9219C47.0521 41.4666 47.2164 39.9949 47.4234 38.533L48.0418 34.1106C48.2515 32.6112 48.4612 31.1115 48.6709 29.6116C48.7144 29.3027 48.7605 28.9937 48.8294 28.6888C48.8639 28.5368 48.9042 28.3864 48.9518 28.2385C48.96 28.2139 49.0077 28.0257 49.0339 28.0191C48.965 28.1786 48.9559 28.2007 49.0085 28.0849C49.0307 28.0372 49.0545 27.9912 49.0791 27.9452C49.1456 27.8202 49.259 27.7027 49.314 27.5754L49.213 27.7061C49.2417 27.6715 49.2705 27.637 49.3 27.6033C49.3444 27.5532 49.3904 27.5039 49.4372 27.4554C49.5325 27.3576 49.6318 27.2656 49.7345 27.176L49.893 27.0445C49.9894 26.9679 49.965 26.9859 49.8199 27.0988L49.9308 27.0166C50.3842 26.6814 50.8605 26.3798 51.3081 26.0371C51.9012 25.5894 52.4267 25.0586 52.8686 24.4611C53.602 23.4701 54.0628 22.2531 54.2574 21.0394C54.363 20.4098 54.4146 19.7723 54.4118 19.1338C54.4052 18.5216 53.8788 17.9349 53.2415 17.9629C52.6041 17.9908 52.0637 18.4781 52.0711 19.1338C52.0711 19.4116 52.0711 19.6893 52.0473 19.9654C52.0385 20.081 52.0278 20.1969 52.0152 20.313C52.0046 20.4067 51.9381 20.6121 52.0218 20.2785C51.9988 20.3672 51.9931 20.4642 51.9775 20.5546C51.8816 21.0817 51.7356 21.5985 51.5414 22.0978C51.451 22.3345 51.6596 21.8455 51.5512 22.074C51.5208 22.1372 51.4929 22.2013 51.4625 22.2638C51.4017 22.3898 51.3369 22.5133 51.2679 22.6344C51.2104 22.7354 51.1504 22.8349 51.0872 22.9326C51.0494 22.9918 51.01 23.0502 50.9706 23.1077L50.8884 23.2219C50.8145 23.3216 50.8331 23.2989 50.9443 23.1537C50.757 23.3279 50.6084 23.5547 50.4228 23.7355C50.3201 23.8349 50.2133 23.9319 50.1033 24.0239L49.9965 24.1118C49.8996 24.1885 49.9234 24.1705 50.0679 24.0576C50.031 24.0864 49.9932 24.1143 49.9554 24.1398C48.96 24.8793 47.8619 25.4907 47.1745 26.5581C46.4353 27.7085 46.3853 29.1934 46.2013 30.5089C45.8054 33.3373 45.4098 36.1654 45.0145 38.9932C44.9176 39.6851 44.8209 40.377 44.7246 41.0689C44.6424 41.6729 44.5915 42.3015 44.4182 42.8874C44.4059 42.9301 44.3928 42.9695 44.3788 43.0147L44.3566 43.0772C44.3123 43.1922 44.3268 43.1602 44.4002 42.981C44.3671 43.0374 44.3378 43.0959 44.3123 43.1561C44.2715 43.2068 44.2365 43.2619 44.208 43.3204L44.3115 43.1881C44.2836 43.2218 44.254 43.2547 44.2236 43.2867C44.1932 43.3188 44.1579 43.3475 44.1267 43.3796C43.955 43.5546 44.346 43.2218 44.1686 43.3492C44.1037 43.3952 44.0388 43.4437 43.9739 43.4905C43.5443 43.8028 43.0887 44.0778 42.6122 44.3122C42.3904 44.419 42.8758 44.221 42.6475 44.2942C42.5884 44.3131 42.5301 44.3361 42.4701 44.3533C42.3382 44.3885 42.2044 44.4159 42.0693 44.4355C41.7211 44.4903 41.3726 44.5428 41.0238 44.5932C40.8653 44.6163 40.706 44.6393 40.5466 44.6607C40.4744 44.6713 40.4021 44.682 40.3298 44.691C40.6526 44.6499 40.3536 44.6869 40.2945 44.691C39.9484 44.7359 39.6027 44.7787 39.2572 44.8192C37.9201 44.9748 36.5787 45.0926 35.2328 45.1726C32.6055 45.3304 29.9709 45.3246 27.3442 45.1553C26.0482 45.0699 24.7561 44.9422 23.4677 44.7724C23.1803 44.7354 23.7379 44.8102 23.4513 44.7724L23.287 44.7494L22.7942 44.6787C22.4657 44.6294 22.1386 44.5774 21.8128 44.5226C21.159 44.413 20.5072 44.2925 19.8573 44.161C18.5782 43.9025 17.3096 43.6012 16.0514 43.2571C15.4305 43.0862 14.8128 42.9057 14.1985 42.7156C13.9184 42.6285 13.6359 42.5447 13.3591 42.4469C13.2992 42.4255 13.2401 42.4017 13.1801 42.3804C12.9518 42.2982 13.4388 42.4995 13.213 42.3943C13.0856 42.3352 12.9584 42.2768 12.8335 42.2127C12.5763 42.0799 12.3267 41.9326 12.0861 41.7715C11.9945 41.6963 11.8979 41.6274 11.797 41.5652L11.9243 41.6638C11.8882 41.6359 11.8537 41.6071 11.8184 41.5776C11.7519 41.5217 11.6862 41.4633 11.6221 41.4033C11.54 41.3269 11.4726 41.2332 11.3897 41.1568C11.2887 41.0673 11.5539 41.4198 11.4307 41.2086L11.3215 41.0204C11.1967 40.8051 11.393 41.2743 11.3305 41.0344C11.3125 40.9645 11.2878 40.8963 11.2706 40.8256C11.2533 40.755 11.2418 40.6843 11.2271 40.6128C11.1786 40.3877 11.2501 40.8824 11.2271 40.635C11.1039 39.2586 11.0718 37.8716 11.0628 36.4894C11.0406 33.6495 11.1638 30.8105 11.2123 27.9715C11.2361 26.5524 11.2418 25.1324 11.2016 23.7133C11.1975 23.5489 11.1917 23.3846 11.186 23.2154C11.1679 22.7272 11.0217 22.3443 10.6012 22.0649C10.391 21.9277 10.1848 21.7897 9.97868 21.6475C10.3072 21.8735 9.9606 21.6261 9.88504 21.5587C9.7947 21.4788 9.7071 21.3966 9.62223 21.3122C9.45222 21.143 9.30603 20.958 9.14834 20.7789C9.40705 21.0723 9.1779 20.8143 9.12041 20.7321C9.05306 20.6351 8.98819 20.5365 8.92659 20.4371C8.80346 20.2367 8.69105 20.0299 8.58985 19.8175C8.56439 19.7649 8.54058 19.7107 8.51594 19.6573C8.41985 19.451 8.62436 19.9334 8.54223 19.7205C8.50609 19.6285 8.46995 19.5373 8.4371 19.4453C8.35114 19.2027 8.27766 18.9558 8.21698 18.7057C8.16524 18.4929 8.12337 18.2784 8.08887 18.0623C8.07491 17.9735 8.0634 17.7517 8.09707 18.1363C8.09707 18.0862 8.08558 18.0368 8.07983 17.9867C8.06587 17.8577 8.05438 17.7271 8.04698 17.5972C8.01768 17.1232 8.0262 16.6475 8.07245 16.1748C8.0823 16.0729 8.15046 15.6719 8.07736 16.0926C8.09789 15.9727 8.1135 15.8519 8.13485 15.7319C8.17838 15.492 8.23013 15.2537 8.29255 15.0187C8.3484 14.8034 8.41245 14.5897 8.4839 14.3793C8.52332 14.2643 8.56603 14.1509 8.60792 14.0383C8.62927 13.9816 8.65227 13.9258 8.67445 13.8699C8.75658 13.6563 8.55372 14.1411 8.65556 13.9151C8.87386 13.4258 9.12067 12.9497 9.39473 12.4894C9.52285 12.2779 9.65619 12.0703 9.79471 11.8665C9.87109 11.7556 9.9491 11.6447 10.0288 11.5378C10.0838 11.4614 10.3852 11.1138 10.1306 11.3957C10.4969 10.9897 10.8263 10.5567 11.2098 10.1631C11.5802 9.78345 11.9703 9.42354 12.3761 9.08089C12.4856 8.9905 12.5931 8.90177 12.6988 8.81467C12.7538 8.7703 12.8089 8.72754 12.8631 8.68399C12.9173 8.64044 13.0273 8.59361 12.7925 8.73823C13.0495 8.58129 13.2852 8.37255 13.5316 8.20163C13.9801 7.89266 14.4405 7.6037 14.913 7.33473C15.3856 7.06575 15.8718 6.81403 16.3717 6.57957C16.5014 6.51876 16.632 6.45933 16.7634 6.40126L16.9597 6.31496C17.1971 6.2106 16.7043 6.41932 16.9449 6.32154C17.2242 6.20732 17.5051 6.09638 17.7884 5.99285C19.0157 5.54622 20.2751 5.19352 21.5557 4.93777C22.1832 4.79772 22.8175 4.69075 23.4562 4.61731C23.1277 4.64853 23.4143 4.62388 23.4784 4.61731L23.7248 4.58689C23.8636 4.56964 24.0032 4.55402 24.1428 4.53923C24.5058 4.50143 24.8697 4.46884 25.2343 4.44145C26.5402 4.34448 27.851 4.31735 29.1601 4.34447C30.4304 4.37131 31.6985 4.44803 32.9644 4.57457C33.2858 4.60744 33.6066 4.64358 33.9269 4.68303C34.014 4.69371 34.4575 4.73151 34.0912 4.70357C34.2776 4.71754 34.4649 4.75534 34.6497 4.78574C35.2596 4.87668 35.8674 4.98295 36.473 5.10456C37.6998 5.34828 38.9112 5.66437 40.1007 6.05119C40.703 6.2484 41.2965 6.46588 41.8812 6.70363L42.0274 6.76361C42.2837 6.86879 41.781 6.65681 42.0373 6.76775C42.1818 6.83102 42.3256 6.89346 42.4693 6.95837C42.7551 7.08711 43.0382 7.22216 43.3185 7.36349C44.3729 7.88703 45.38 8.50097 46.3286 9.19841C46.3869 9.24114 46.4436 9.28467 46.501 9.3274C46.6998 9.47531 46.3368 9.1951 46.4633 9.29699C46.5659 9.37916 46.6694 9.46133 46.7704 9.54351C46.9922 9.72374 47.2093 9.90917 47.4217 10.0998C47.8444 10.4784 48.2482 10.8764 48.6331 11.2938C48.8078 11.4839 48.9781 11.6775 49.144 11.8747C49.2335 11.9824 49.3222 12.09 49.4093 12.2034C49.4364 12.2371 49.4651 12.2815 49.4955 12.3127C49.2491 12.0703 49.4701 12.279 49.5243 12.3522C49.8558 12.7947 50.1628 13.255 50.4441 13.731C50.7099 14.1804 50.9504 14.6443 51.1644 15.1205C51.1915 15.1822 51.2153 15.2471 51.2465 15.3063C51.0888 14.9981 51.2013 15.1994 51.2325 15.2759C51.2744 15.3802 51.3147 15.4846 51.3549 15.5897C51.4529 15.8511 51.5419 16.1159 51.6219 16.3843C51.7659 16.8644 51.8786 17.3532 51.9594 17.8478C51.9701 17.9136 51.9799 17.9793 51.9898 18.045C52.0276 18.2916 51.9553 17.7501 51.9832 17.9991C51.9955 18.1092 52.0079 18.2201 52.0177 18.3277C52.0415 18.5948 52.0547 18.8627 52.0596 19.1305C52.0703 19.7427 52.5902 20.3302 53.23 20.3015C53.8599 20.2793 54.4167 19.7929 54.4044 19.1363Z" fill="#040000"/>
<path d="M31.3281 43.4819C25.4879 43.4819 20.009 42.638 14.5777 40.9025C14.0168 40.7234 13.2932 40.2739 13.0394 40.0027C13.0031 39.8129 12.9806 39.6206 12.9721 39.4275C12.7791 36.5901 12.8563 33.6541 12.931 30.8142C12.9951 28.3852 13.0608 25.8732 12.9639 23.3752C12.9488 23.0443 12.8501 22.7227 12.6768 22.4404C12.5036 22.1581 12.2615 21.9245 11.9734 21.7613C10.7464 21.0522 10.2692 19.8763 10.0844 19.0151C9.8216 17.7826 9.97352 16.3733 10.5016 15.1456C11.764 12.2113 14.6788 9.70009 18.5003 8.25468C21.2656 7.20945 24.5598 6.67944 28.2926 6.67944C29.008 6.67944 29.7529 6.69836 30.5101 6.73698C35.9233 7.01061 40.3854 8.18732 43.7725 10.2342C47.6498 12.577 50.0907 16.227 50.1433 19.7596C50.1671 21.3883 49.6357 22.7844 48.6839 23.5897C48.4203 23.8015 48.1462 23.9998 47.8626 24.1838C47.1447 24.6711 46.2503 25.2783 45.6319 26.2258C44.979 27.2242 44.8246 28.3105 44.712 29.1018L42.9873 41.2444C42.9617 41.4654 42.9177 41.6839 42.8559 41.8976C42.0346 42.4909 41.6938 42.615 41.624 42.6372C38.218 43.185 34.7745 43.4661 31.3249 43.4778L31.3281 43.4819Z" fill="white"/>
<path d="M38.226 22.7567C36.9849 21.8201 35.5043 21.254 33.9552 21.1239C32.5097 21.0023 30.8482 21.2537 29.8093 22.3565C29.475 22.7114 29.3929 23.2464 29.7378 23.6326C30.0417 23.9728 30.6774 24.0607 31.0133 23.7041C31.7722 22.8971 32.9491 22.8314 33.9897 22.9399C35.1695 23.0744 36.2894 23.5315 37.2264 24.2612C37.6149 24.5571 38.2219 24.3952 38.4789 24.0065C38.7631 23.5792 38.6136 23.0525 38.226 22.7567Z" fill="#DE9861"/>
<path d="M37.6946 24.4988C37.5074 24.5011 37.3247 24.4416 37.1747 24.3296C36.2494 23.6098 35.1442 23.1582 33.9799 23.0239C32.6231 22.8834 31.672 23.1249 31.0716 23.7634C30.988 23.8478 30.8879 23.914 30.7775 23.9579C30.6671 24.0017 30.5489 24.0222 30.4302 24.0182C30.2888 24.0169 30.1491 23.987 30.0194 23.9306C29.8897 23.8741 29.7728 23.7921 29.6754 23.6895C29.3272 23.3 29.3576 22.7165 29.7477 22.3016C30.9723 20.9991 32.913 20.9531 33.9602 21.0419C35.5248 21.1702 37.0205 21.742 38.272 22.6902C38.718 23.0296 38.8354 23.6155 38.5455 24.0535C38.4665 24.1673 38.3655 24.264 38.2484 24.3378C38.1313 24.4117 38.0005 24.4611 37.8638 24.4832C37.8079 24.4932 37.7513 24.4984 37.6946 24.4988ZM33.2735 22.8209C33.5153 22.8216 33.7568 22.8348 33.9971 22.8603C35.1914 22.9977 36.325 23.4607 37.2741 24.1989C37.3543 24.2571 37.4457 24.2981 37.5425 24.3193C37.6393 24.3405 37.7395 24.3415 37.8367 24.3222C37.9517 24.3042 38.0618 24.2632 38.1606 24.2016C38.2594 24.1401 38.3448 24.0592 38.4116 23.9639C38.69 23.5432 38.5036 23.0715 38.1759 22.8217C36.9491 21.8925 35.4831 21.3321 33.9495 21.2062C32.9319 21.124 31.0486 21.1627 29.8709 22.415C29.5966 22.7067 29.4602 23.1964 29.8011 23.5802C29.8831 23.6659 29.9815 23.7342 30.0904 23.7811C30.1993 23.8279 30.3166 23.8524 30.4351 23.853C30.5312 23.8566 30.627 23.8405 30.7165 23.8055C30.8061 23.7706 30.8876 23.7177 30.9558 23.65C31.4749 23.0945 32.2379 22.8209 33.2735 22.8209Z" fill="#DE9861"/>
<path d="M21.3566 25.813C21.3365 25.7513 21.3089 25.6922 21.2745 25.6371C21.1382 25.426 20.932 25.2329 20.6782 25.1786C20.6124 25.1647 20.5457 25.1551 20.4787 25.1498C20.3976 25.1325 20.3151 25.1229 20.2323 25.1211C20.1306 25.1196 20.0292 25.13 19.93 25.1523C19.6314 25.17 19.3495 25.2962 19.1375 25.5073C18.7383 25.905 18.6817 26.5451 18.9338 27.0324C19.0104 27.1734 19.1146 27.2975 19.2402 27.3973C19.3658 27.4971 19.5102 27.5706 19.6647 27.6134C19.8254 27.6567 19.9937 27.664 20.1575 27.6348C20.7587 27.5312 21.4667 26.9083 21.4667 26.2592C21.4659 26.1038 21.4282 25.9509 21.3566 25.813Z" fill="black"/>
<path d="M21.5522 25.7579C21.4462 25.4591 21.2319 25.211 20.9518 25.0627C20.8068 24.9984 20.6523 24.9584 20.4944 24.9443C20.3134 24.9139 20.1287 24.9125 19.9474 24.9402C19.7935 24.9567 19.6418 24.9895 19.4948 25.038C19.338 25.0984 19.1925 25.1848 19.0645 25.2936C18.8356 25.4908 18.6768 25.7569 18.6119 26.0521C18.542 26.3446 18.5616 26.6514 18.668 26.9327C18.7745 27.214 18.963 27.4569 19.209 27.6297C19.7511 27.9938 20.4327 27.8763 20.9337 27.5048C21.2009 27.3162 21.4146 27.0614 21.5538 26.7653C21.6295 26.5986 21.6667 26.417 21.6627 26.2339C21.6587 26.0508 21.6137 25.871 21.5308 25.7077C21.503 25.6611 21.4579 25.6274 21.4053 25.6137C21.3528 25.6 21.297 25.6075 21.25 25.6346C21.2037 25.6628 21.1702 25.7078 21.1564 25.7602C21.1426 25.8126 21.1496 25.8683 21.176 25.9156C21.3871 26.3495 21.1424 26.785 20.813 27.0776C20.4837 27.3701 20.0172 27.5558 19.5917 27.3726C19.1663 27.1893 18.961 26.7653 18.9848 26.3232C18.9964 26.0989 19.0815 25.8846 19.2269 25.7135C19.3724 25.5424 19.5702 25.424 19.7897 25.3766C20.0725 25.3109 20.3669 25.3132 20.6488 25.3832C20.7642 25.4203 20.8697 25.483 20.9574 25.5667C21.0452 25.6504 21.1129 25.7528 21.1555 25.8663C21.1712 25.918 21.206 25.9617 21.2529 25.9885C21.2998 26.0152 21.3552 26.023 21.4076 26.0101C21.4599 25.9953 21.5043 25.9606 21.5313 25.9135C21.5583 25.8663 21.5658 25.8105 21.5522 25.7579Z" fill="black"/>
<path d="M35.1259 25.8268C34.9835 25.5886 34.778 25.3943 34.5321 25.2656C33.8422 24.9098 33.3084 24.9796 32.8419 25.5943C32.8238 25.6181 32.8058 25.6419 32.7885 25.6682C32.6308 25.9147 32.63 26.259 32.7064 26.5327C32.8075 26.8848 33.0437 27.1825 33.3634 27.361C33.9819 27.7077 34.6668 27.4144 35.075 26.8951C35.328 26.5664 35.3329 26.1818 35.1259 25.8268Z" fill="black"/>
<path d="M35.3027 25.7258C35.1436 25.4709 34.9255 25.2582 34.6669 25.1054C34.4083 24.9527 34.1168 24.8644 33.8169 24.8482C33.5624 24.8399 33.3118 24.913 33.1016 25.0569C32.8525 25.2207 32.6548 25.4518 32.5316 25.7233C32.3033 26.2903 32.5554 26.9888 33.0104 27.3668C33.2383 27.5607 33.5211 27.6787 33.8192 27.7041C34.1174 27.7296 34.416 27.6614 34.6735 27.5089C34.9743 27.3457 35.2188 27.0954 35.3749 26.7907C35.4496 26.6207 35.4821 26.4351 35.4695 26.2498C35.4569 26.0645 35.3997 25.8849 35.3027 25.7266C35.1721 25.4965 34.8173 25.7036 34.9479 25.9345C35.0088 26.03 35.047 26.1381 35.0595 26.2507C35.072 26.3632 35.0586 26.4771 35.0201 26.5837C34.9215 26.7915 34.7657 26.9668 34.5709 27.089C34.1939 27.3437 33.7405 27.384 33.3578 27.1186C33.0088 26.8762 32.7829 26.4095 32.8798 25.9846C32.9619 25.6264 33.3595 25.2878 33.7011 25.2615C34.1799 25.2254 34.7015 25.5269 34.947 25.9345C35.0842 26.1597 35.4398 25.9534 35.3027 25.7258Z" fill="black"/>
<path d="M30.2438 28.9617C29.6787 28.8179 29.2467 29.1408 29.0414 29.5928C28.6578 30.435 27.6066 30.9519 26.6596 30.9075C25.7636 30.864 24.8528 30.2189 24.5464 29.4062C24.4592 29.1709 24.2881 28.9762 24.0659 28.8597C23.8437 28.7431 23.5863 28.713 23.3432 28.7752C22.8595 28.8984 22.4866 29.4235 22.6607 29.887C23.2586 31.4803 24.8215 32.6266 26.6596 32.7153C28.5601 32.8074 30.215 31.6413 30.9304 30.0751C31.1316 29.6232 30.7053 29.0792 30.2438 28.9617Z" fill="black"/>
<path d="M38.1276 46.1727C37.7654 45.8876 35.8534 46.743 34.8563 46.6715C33.8593 46.6 34.2149 45.1743 34.1057 44.6755C34.0236 44.3041 33.2556 44.604 31.958 44.9286L31.783 47.259C31.783 47.259 31.6763 50.3594 31.783 50.5739C31.8898 50.7883 32.8162 50.6092 34.2059 50.1458C35.5955 49.6823 38.7649 48.5779 39.2979 47.8293C39.316 47.8038 39.3439 47.7668 39.3801 47.7192L39.201 47.2418C39.201 47.2418 38.4898 46.4579 38.1276 46.1727Z" fill="#FBDFCB"/>
<path d="M45.9969 31.1844C44.608 30.6856 43.3252 31.1137 42.292 32.1466C41.2588 33.1795 31.997 44.4075 31.997 44.4075L31.9584 44.9285C33.256 44.6039 34.0248 44.304 34.1061 44.6754C34.2153 45.1742 33.8597 46.5999 34.8567 46.6714C35.8538 46.7429 37.7658 45.8875 38.128 46.1726C38.4902 46.4577 39.2022 47.2408 39.2022 47.2408L39.3813 47.7183C40.4219 46.3419 48.7926 35.8148 49.1367 34.712C49.4931 33.5723 47.3865 31.684 45.9969 31.1844Z" fill="#F5C030"/>
<path d="M32.6047 47.2592L32.792 44.7612L32.8182 44.4078L32.5784 44.9888L32.8347 44.6782C33.0679 44.395 33.3017 44.112 33.536 43.8293C33.8832 43.4086 34.2312 42.9882 34.5799 42.568C35.007 42.0519 35.4346 41.5362 35.8628 41.0207L37.2828 39.3123C37.7674 38.7305 38.2522 38.1493 38.7373 37.5686C39.1989 37.0175 39.661 36.4664 40.1237 35.9153C40.5278 35.4354 40.9329 34.9564 41.3392 34.4781C41.6521 34.1108 41.965 33.7452 42.2821 33.382C42.4669 33.1699 42.6517 32.9547 42.848 32.7533C42.9981 32.6007 43.1581 32.4579 43.3268 32.326L43.1625 32.4551C43.4303 32.246 43.7237 32.072 44.0355 31.9374L43.8393 32.0195C44.1022 31.9095 44.3783 31.8338 44.6606 31.7944L44.4421 31.824C44.7214 31.7892 45.0041 31.7905 45.2831 31.8281L45.0646 31.7993C45.3654 31.8428 45.6595 31.9236 45.9401 32.0401L45.7439 31.9579C46.2098 32.1627 46.6475 32.4264 47.0464 32.7427L46.8822 32.6145C47.3108 32.94 47.6971 33.3179 48.032 33.7394L47.9031 33.5751C48.0752 33.7919 48.2197 34.0293 48.3334 34.2818L48.2513 34.0862C48.3104 34.2215 48.3515 34.3641 48.3737 34.5102L48.3441 34.2916C48.3568 34.387 48.3568 34.4837 48.3441 34.5792L48.3737 34.3614C48.3644 34.4268 48.3473 34.4908 48.3227 34.5521L48.4049 34.3557C48.2949 34.5887 48.1643 34.8115 48.0147 35.0213C47.7684 35.3944 47.5121 35.7608 47.2517 36.1208C46.9084 36.599 46.5599 37.0739 46.2062 37.5456C45.7956 38.0973 45.3814 38.6451 44.9636 39.1891C44.5201 39.7719 44.0747 40.3532 43.6274 40.9328L43.459 41.1497L43.5879 40.9854C43.1406 41.5644 42.6916 42.1432 42.241 42.7217C41.8271 43.2541 41.412 43.7863 40.9959 44.3182L39.9282 45.6807C39.6671 46.0143 39.4064 46.3485 39.1463 46.6832C38.9648 46.9174 38.7801 47.1499 38.6043 47.389L38.5723 47.4326L38.7004 47.2683C38.6268 47.3582 38.5423 47.4388 38.4491 47.5082L38.6133 47.3792C38.0754 47.79 37.4216 48.062 36.8024 48.3241L36.9987 48.242C36.3802 48.5024 35.7511 48.7391 35.1187 48.9643C34.5019 49.1845 33.881 49.4006 33.2527 49.5855C32.8766 49.7033 32.4923 49.7929 32.1029 49.8534L32.3205 49.8238C32.1962 49.844 32.0699 49.8487 31.9444 49.8378L32.1628 49.8665C32.1284 49.8626 32.0947 49.8541 32.0626 49.8411L32.2589 49.9232C32.2466 49.9175 32.2347 49.9106 32.2236 49.9027L32.3879 50.0309C32.3805 50.0251 32.3739 50.0185 32.3682 50.0112L32.4963 50.1755C32.4914 50.1691 32.4873 50.1622 32.484 50.155L32.5661 50.3514C32.5565 50.3249 32.5504 50.2973 32.548 50.2692L32.5768 50.4877C32.5209 50.0498 32.5472 49.5937 32.5521 49.1541C32.5579 48.6348 32.5702 48.1163 32.5858 47.5977C32.5858 47.4852 32.5924 47.3718 32.5965 47.2592C32.6113 46.8286 32.208 46.4177 31.7752 46.4375C31.5587 46.4417 31.3522 46.5296 31.1991 46.6828C31.046 46.836 30.9581 47.0426 30.9539 47.2592C30.9317 47.9116 30.9153 48.5641 30.9087 49.2166C30.9046 49.5945 30.898 49.9742 30.9219 50.3514C30.9366 50.574 30.9547 50.7975 31.0697 50.9939C31.2742 51.3448 31.6643 51.4829 32.0503 51.487C32.3445 51.4789 32.637 51.4389 32.9225 51.3678C33.2691 51.293 33.61 51.1953 33.9483 51.0909C34.4756 50.9266 34.998 50.7458 35.5179 50.5609C36.0772 50.3628 36.6332 50.1549 37.1826 49.9298C37.7556 49.7056 38.3158 49.45 38.8605 49.1639C39.0481 49.0646 39.2286 48.9526 39.401 48.8287C39.6322 48.6681 39.8353 48.4704 40.0022 48.2436C40.0679 48.1549 40.1344 48.067 40.2017 47.979C40.2272 47.947 40.2518 47.9141 40.2773 47.8813L40.1492 48.0456C40.4519 47.6528 40.7569 47.2614 41.0641 46.8714L42.4159 45.1408C42.952 44.4544 43.4869 43.7674 44.0208 43.0799C44.6231 42.3042 45.2231 41.5266 45.8211 40.747C46.3554 40.0486 46.8871 39.3477 47.416 38.6443C47.8622 38.0493 48.3025 37.4503 48.7367 36.8471C49.034 36.4314 49.3313 36.0131 49.5999 35.5776C49.677 35.4574 49.7467 35.3325 49.8085 35.2037C49.9083 34.9963 49.9679 34.7719 49.9842 34.5422C49.9922 34.3812 49.9803 34.2197 49.9489 34.0615C49.9325 33.9571 49.9064 33.8545 49.8709 33.755C49.6532 33.1494 49.2721 32.6293 48.8319 32.1658C48.3837 31.6999 47.8804 31.2904 47.3331 30.9464C46.805 30.6111 46.2112 30.3342 45.5911 30.229C45.174 30.1525 44.7477 30.1412 44.3271 30.1953C43.9169 30.253 43.5171 30.3698 43.1403 30.5421C42.4373 30.8519 41.8608 31.3745 41.3557 31.939C41.0082 32.3301 40.6674 32.7279 40.3282 33.1264C39.8447 33.6928 39.3637 34.2609 38.8852 34.8306C38.3256 35.4957 37.7677 36.1619 37.2114 36.8291C36.631 37.5254 36.0506 38.2222 35.4702 38.9195C34.9276 39.572 34.3855 40.225 33.844 40.8785L32.5144 42.4842L31.6561 43.5352L31.4516 43.7817L31.4171 43.8236C31.3941 43.8515 31.3826 43.8679 31.3514 43.9057C31.243 44.0523 31.1815 44.2281 31.1748 44.4103C31.1748 44.4366 31.1707 44.4621 31.1691 44.4884L31.0048 46.6684L30.9605 47.2551C30.9613 47.4728 31.0477 47.6815 31.2011 47.836C31.356 47.9888 31.5643 48.0752 31.7818 48.0768C31.9993 48.0756 32.2078 47.9892 32.3624 47.836C32.5085 47.6782 32.5942 47.474 32.6047 47.2592Z" fill="#040000"/>
<path d="M44.3413 51.6725C47.5432 51.6725 50.1388 48.957 50.1388 45.6074C50.1388 42.2577 47.5432 39.5422 44.3413 39.5422C41.1394 39.5422 38.5437 42.2577 38.5437 45.6074C38.5437 48.957 41.1394 51.6725 44.3413 51.6725Z" fill="#DE9861"/>
<path d="M49.2132 45.6075C49.2127 45.89 49.194 46.1721 49.1574 46.4522L49.1902 46.2057C49.1163 46.7558 48.9702 47.2938 48.7558 47.8056L48.8494 47.5846C48.6435 48.0717 48.3761 48.5304 48.0535 48.9495L48.1981 48.7621C47.8856 49.1664 47.523 49.5292 47.1189 49.8418L47.3053 49.6972C46.9155 49.9962 46.4894 50.2447 46.0373 50.4368L46.2582 50.3431C45.8064 50.5328 45.3318 50.6627 44.8464 50.7293L45.0928 50.6965C44.5934 50.763 44.0875 50.763 43.5881 50.6965L43.8345 50.7293C43.3491 50.6629 42.8744 50.533 42.4227 50.3431L42.6436 50.4368C42.1913 50.2447 41.7649 49.9962 41.3747 49.6972L41.562 49.8418C41.1579 49.529 40.795 49.1662 40.482 48.7621L40.6265 48.9495C40.3046 48.5302 40.0374 48.0715 39.8315 47.5846L39.9243 47.8056C39.7102 47.2936 39.5641 46.7557 39.4898 46.2057L39.5235 46.4522C39.4496 45.8915 39.4496 45.3235 39.5235 44.7628L39.4898 45.0093C39.5643 44.4596 39.7103 43.922 39.9243 43.4103L39.8315 43.6313C40.0374 43.1443 40.3046 42.6856 40.6265 42.2664L40.482 42.4538C40.795 42.0497 41.1579 41.6869 41.562 41.374L41.3747 41.5187C41.7649 41.2197 42.1913 40.9712 42.6436 40.7791L42.4227 40.8728C42.8744 40.6828 43.3491 40.553 43.8345 40.4866L43.5881 40.5194C44.0875 40.4529 44.5934 40.4529 45.0928 40.5194L44.8464 40.4866C45.3318 40.5532 45.8064 40.683 46.2582 40.8728L46.0373 40.7791C46.4894 40.9712 46.9155 41.2197 47.3053 41.5187L47.1189 41.374C47.523 41.6867 47.8856 42.0495 48.1981 42.4538L48.0535 42.2664C48.3761 42.6854 48.6435 43.1442 48.8494 43.6313L48.7558 43.4103C48.9701 43.9219 49.1162 44.4595 49.1902 45.0093L49.1574 44.7628C49.194 45.0429 49.2127 45.325 49.2132 45.6075C49.2154 45.8533 49.3122 46.0887 49.4834 46.2649C49.6583 46.4383 49.8943 46.5357 50.1405 46.5361C50.3853 46.535 50.6198 46.4376 50.7934 46.2649C50.965 46.0889 51.0621 45.8534 51.0644 45.6075C51.0675 44.1873 50.6481 42.7982 49.8596 41.6172C49.4867 41.0579 49.0328 40.5572 48.5126 40.1316C48.2242 39.8948 47.9181 39.6805 47.5969 39.4906C47.2741 39.3089 46.9377 39.1523 46.5908 39.0222C45.9429 38.7803 45.26 38.6454 44.5688 38.6229C43.875 38.5962 43.1815 38.6828 42.5155 38.8793C41.2119 39.2645 40.0578 40.0406 39.209 41.1029C38.9742 41.3929 38.7609 41.6996 38.5708 42.0207C38.3861 42.3505 38.2255 42.6932 38.0904 43.0462C37.834 43.7163 37.6811 44.4214 37.637 45.1375C37.5402 46.5617 37.8702 47.9825 38.5848 49.2182C39.255 50.3686 40.2799 51.3629 41.4897 51.9356C41.8287 52.1003 42.1802 52.2377 42.541 52.3465C42.9068 52.4466 43.28 52.5175 43.6571 52.5585C44.3545 52.6362 45.0599 52.5982 45.7449 52.4459C47.069 52.1514 48.2705 51.4562 49.1861 50.4549C50.1275 49.4347 50.7454 48.1582 50.9618 46.7867C51.0237 46.3977 51.0575 46.0047 51.0628 45.6108C51.0607 45.3649 50.9635 45.1293 50.7918 44.9534C50.6178 44.7815 50.3834 44.6844 50.1388 44.6831C49.6354 44.7053 49.214 45.089 49.2132 45.6075Z" fill="#040000"/>
<path d="M4.06443 59.2525C8.09252 60.393 12.4718 60.7383 16.5898 62C15.9512 61.2731 24.4016 52.1045 23.9851 51.9632C20.6194 50.822 16.3323 50.2406 12.7476 50.0087C10.3478 49.8528 8.64733 51.819 7.43475 53.4205C7.07667 53.8947 3.47812 59.0861 4.06443 59.2525Z" fill="white"/>
<path d="M3.85631 60.2125C5.43135 60.6615 7.04373 60.9857 8.65686 61.2883C10.2951 61.595 11.938 61.8802 13.561 62.2476C14.4754 62.4568 15.3822 62.6882 16.2745 62.9636L16.5633 62.9992C16.7085 63.0055 16.853 62.9761 16.9816 62.9141C17.1999 62.8362 17.3828 62.693 17.5005 62.5077C17.5919 62.3529 17.644 62.1813 17.6529 62.0057C17.6592 61.8728 17.6269 61.7407 17.5592 61.623C17.5161 61.5006 17.4389 61.3905 17.3352 61.3036L17.5051 61.5051C17.4983 61.4964 17.4924 61.487 17.4876 61.4772L17.5973 61.7143C17.5913 61.7001 17.5872 61.6854 17.5851 61.6704L17.624 61.9346C17.6194 61.9022 17.6194 61.8694 17.624 61.837L17.5859 62.1005C17.6069 61.9894 17.6438 61.8813 17.6956 61.7791L17.5859 62.0162C17.7322 61.7174 17.9024 61.429 18.0949 61.153C18.3547 60.7647 18.6283 60.3861 18.9133 60.0117C19.612 59.0824 20.3458 58.1753 21.0834 57.2725C21.8119 56.3815 22.548 55.4961 23.2764 54.6051C23.7596 54.0145 24.267 53.4268 24.6884 52.7986C24.9109 52.4689 25.0809 52.1014 24.9597 51.7047C24.8821 51.452 24.7009 51.2364 24.4537 51.103C24.3019 51.0327 24.1436 50.9748 23.9805 50.9301C23.7275 50.8458 23.4723 50.7663 23.2185 50.6896C22.7014 50.5362 22.1787 50.3968 21.6503 50.2713C19.4017 49.731 17.0936 49.3998 14.7841 49.1739C14.2588 49.1223 13.7332 49.0775 13.2075 49.0394C12.9537 49.0206 12.6985 48.9969 12.4455 49.0003C12.1342 49.0074 11.8241 49.0393 11.5189 49.0959C11.0001 49.1961 10.5018 49.3704 10.0422 49.6125C9.57639 49.8576 9.14191 50.1494 8.74679 50.4826C8.01071 51.0898 7.39881 51.8205 6.82808 52.5581C6.59948 52.8502 6.38689 53.1486 6.1781 53.4519C5.53879 54.3799 4.91929 55.3197 4.33103 56.2755C4.04224 56.7461 3.75803 57.2209 3.50581 57.7096C3.27721 58.153 3.02498 58.6195 3.0006 59.12C2.99355 59.3277 3.04891 59.5331 3.16062 59.714C3.3158 59.9567 3.5662 60.1362 3.86089 60.216C4.11921 60.2948 4.47048 60.239 4.69908 60.1156C4.94231 59.9833 5.12091 59.7707 5.19819 59.5216C5.26143 59.2678 5.24772 58.982 5.08847 58.7547C4.93814 58.5371 4.70839 58.3753 4.44001 58.298C4.43774 58.2983 4.43542 58.2983 4.43315 58.298L4.69222 58.3985C4.68613 58.3959 4.68027 58.3928 4.67469 58.3893L4.89416 58.5442C4.88883 58.5405 4.8842 58.536 4.88044 58.5309L5.0496 58.7324C5.0448 58.7258 5.0407 58.7188 5.0374 58.7115L5.14714 58.9492C5.14207 58.9366 5.13848 58.9235 5.13646 58.9102L5.17533 59.1744C5.17152 59.1429 5.17152 59.1111 5.17533 59.0796L5.13646 59.3438C5.17394 59.1594 5.2372 58.9801 5.32467 58.8105L5.21571 59.0482C5.62871 58.153 6.17887 57.3052 6.71455 56.4686C7.20527 55.7026 7.71124 54.9448 8.23245 54.1951C8.52734 53.7768 8.84203 53.3661 9.17807 52.9708L9.00891 53.1716C9.50344 52.5867 10.0483 52.0303 10.6899 51.5764L10.4704 51.7319C10.8091 51.4899 11.1798 51.2881 11.5738 51.131L11.3147 51.2306C11.6332 51.1072 11.968 51.0229 12.3106 50.9797L12.0218 51.0152C12.5339 50.9553 13.0498 51.0152 13.561 51.0529C14.1249 51.0993 14.6885 51.1512 15.2519 51.2083C15.5806 51.2432 15.9085 51.2809 16.2356 51.3213L15.9469 51.2857C18.0134 51.5402 20.0738 51.8957 22.0725 52.4451C22.5899 52.5846 23.1141 52.731 23.6148 52.9178L23.3549 52.8175H23.3595L23.14 52.6627L22.9701 52.4619C22.9703 52.4633 22.9703 52.4647 22.9701 52.4661L22.8604 52.2283C22.8607 52.2316 22.8607 52.2348 22.8604 52.2381L22.8215 51.9738C22.8223 51.9796 22.8223 51.9855 22.8215 51.9913L22.8604 51.727C22.8561 51.7489 22.8489 51.7702 22.8391 51.7905L22.948 51.5535C22.8568 51.728 22.7476 51.8942 22.6219 52.0498C22.4131 52.3287 22.1944 52.6076 21.9742 52.8823C21.3494 53.6617 20.7093 54.4307 20.0738 55.2025C19.3499 56.0803 18.626 56.9594 17.9242 57.8518C17.3283 58.6048 16.7347 59.3648 16.2052 60.1589C16.0238 60.4211 15.8616 60.6941 15.7198 60.976C15.5316 61.3692 15.3563 61.7756 15.4851 62.2135C15.5537 62.4477 15.6375 62.5244 15.7899 62.7092L16.8467 61.0485C15.2565 60.5604 13.622 60.2028 11.9814 59.8863C10.3531 59.5725 8.7163 59.2957 7.09478 58.9513C6.19791 58.7603 5.30638 58.5477 4.42781 58.2967C4.14483 58.2283 3.84383 58.2643 3.58962 58.397C3.34663 58.5295 3.16832 58.7421 3.09129 58.9911C3.02804 59.2449 3.04099 59.5307 3.20025 59.758C3.35128 59.9774 3.5845 60.139 3.85631 60.2125Z" fill="#040000"/>
<path d="M16.7902 24.0342C17.274 23.007 18.515 22.4868 19.6007 22.426C20.739 22.3636 21.8733 22.7186 22.7217 23.4943C23.4879 24.1886 24.6296 23.053 23.86 22.3554C23.2713 21.8179 22.5798 21.4054 21.8272 21.143C21.0747 20.8806 20.2767 20.7736 19.4816 20.8286C17.9039 20.9519 16.1102 21.7169 15.399 23.2256C15.2142 23.6192 15.2897 24.0941 15.6881 24.3275C16.0379 24.5321 16.603 24.4335 16.7886 24.0383L16.7902 24.0342Z" fill="#DE9861"/>
<path d="M16.0956 24.5119C15.9381 24.5134 15.7829 24.4738 15.6455 24.3969C15.2414 24.1602 15.1067 23.6524 15.3244 23.1897C16.089 21.566 18.0347 20.8577 19.4744 20.7451C20.2807 20.6885 21.0901 20.7965 21.8534 21.0626C22.6167 21.3288 23.3179 21.7475 23.9143 22.2932C24.0232 22.3831 24.1055 22.501 24.1522 22.6342C24.199 22.7675 24.2084 22.911 24.1796 23.0492C24.1387 23.2121 24.0569 23.3619 23.9419 23.4843C23.8269 23.6066 23.6826 23.6976 23.5226 23.7485C23.3751 23.7976 23.2171 23.8055 23.0655 23.7711C22.9139 23.7368 22.7746 23.6616 22.6627 23.5537C21.8504 22.8142 20.763 22.4469 19.5992 22.511C18.6498 22.5636 17.362 23.004 16.8594 24.0723L16.7846 24.0369L16.8594 24.0723C16.812 24.1682 16.7449 24.253 16.6625 24.3213C16.5802 24.3895 16.4844 24.4396 16.3814 24.4684C16.2888 24.4968 16.1925 24.5114 16.0956 24.5119ZM19.9146 20.8922C19.7725 20.8922 19.6296 20.8979 19.4867 20.9086C18.0946 21.0179 16.2073 21.6991 15.473 23.2596C15.3227 23.5792 15.3383 24.0271 15.7285 24.2555C15.8208 24.3049 15.922 24.3353 16.0263 24.3449C16.1305 24.3545 16.2356 24.3431 16.3354 24.3114C16.4166 24.2893 16.4923 24.2503 16.5575 24.1971C16.6227 24.1439 16.676 24.0775 16.714 24.0024C17.2479 22.8684 18.5989 22.4025 19.5935 22.3475C20.8008 22.2793 21.9309 22.6655 22.776 23.4321C22.8666 23.5207 22.9797 23.5829 23.103 23.6119C23.2263 23.6409 23.3552 23.6355 23.4758 23.5965C23.6073 23.5541 23.726 23.4791 23.8209 23.3786C23.9158 23.278 23.9838 23.1551 24.0187 23.0213C24.0421 22.9112 24.0345 22.7968 23.9967 22.6909C23.9588 22.5849 23.8922 22.4916 23.8043 22.4214C22.7416 21.4472 21.3559 20.9012 19.9146 20.8889V20.8922Z" fill="#DE9861"/>
<path d="M43.976 31.1159C46.6148 30.2761 50.3377 33.4027 48.8315 35.7955C48.4249 36.4149 47.9408 36.9796 47.3909 37.476L41.4299 33.4027C41.4299 33.4027 42.4336 31.6056 43.976 31.1159Z" fill="#ED7C87"/>
<path d="M44.1854 31.8831C44.3487 31.8323 44.516 31.7952 44.6855 31.7722L44.4745 31.8001C44.7801 31.7622 45.0893 31.7641 45.3943 31.8059L45.1833 31.7779C45.5713 31.8331 45.9504 31.939 46.3109 32.0927L46.1204 32.0105C46.5249 32.1833 46.9057 32.407 47.2537 32.6761L47.0895 32.5512C47.4028 32.7933 47.6847 33.0735 47.9289 33.3852L47.8049 33.2209C47.9917 33.4616 48.1478 33.7247 48.2697 34.004L48.1876 33.8142C48.2839 34.0398 48.3502 34.2771 48.3847 34.52L48.3559 34.3089C48.3814 34.505 48.3814 34.7036 48.3559 34.8997L48.3847 34.6877C48.3582 34.8744 48.3085 35.0572 48.2368 35.2317L48.319 35.0418C48.174 35.3528 47.9905 35.6444 47.7728 35.9096L47.8968 35.7452C47.5769 36.1654 47.2171 36.5537 46.8226 36.9047L47.7859 36.7798L47.1938 36.3755L45.7721 35.4042L44.0515 34.2283L42.5625 33.211C42.3202 33.0467 42.0812 32.8749 41.8365 32.718L41.8258 32.7106L42.1108 33.7994C42.2444 33.5694 42.3948 33.3497 42.5609 33.142L42.436 33.3063C42.7344 32.9143 43.081 32.5615 43.4676 32.2562L43.3033 32.3803C43.5503 32.1884 43.8197 32.0276 44.1057 31.9012L43.916 31.9834C43.9981 31.9472 44.0885 31.9143 44.1772 31.8856C44.3754 31.8267 44.5448 31.6964 44.6527 31.5199C44.7595 31.3343 44.789 31.1141 44.7348 30.9069C44.6067 30.5117 44.1805 30.2142 43.7558 30.3514C42.5321 30.7475 41.5769 31.7114 40.8813 32.7656C40.8296 32.8437 40.7795 32.9226 40.7335 33.0039C40.6271 33.19 40.5976 33.4103 40.6513 33.6178C40.7144 33.8138 40.8436 33.9817 41.0168 34.0927L41.609 34.497L43.0306 35.4691L44.7554 36.645L46.2444 37.6623C46.485 37.8266 46.7224 38.0041 46.9704 38.1553L46.9811 38.1627L47.1708 38.2449C47.2733 38.278 47.3827 38.2831 47.4878 38.2597C47.6592 38.2361 47.8189 38.1594 47.9445 38.0403C48.5138 37.535 49.0137 36.9564 49.431 36.3196C49.6679 35.9778 49.8305 35.5901 49.9082 35.1815C49.9844 34.7476 49.9732 34.3029 49.8753 33.8733C49.6963 33.091 49.2183 32.3745 48.6532 31.819C48.0393 31.2197 47.3034 30.7597 46.4957 30.4706C45.6333 30.1567 44.6387 30.0753 43.755 30.3522C43.5569 30.4109 43.3877 30.5413 43.2803 30.7179C43.1731 30.9034 43.1436 31.1238 43.1982 31.3309C43.3362 31.7262 43.7608 32.0163 44.1854 31.8831Z" fill="#040000"/>
<path d="M31.7125 47.3124L31.5811 50.1457L32.5387 50.9838L35.4247 49.9518L31.7125 47.3124Z" fill="#040000"/>
</svg>
