<svg width="16" height="16" viewBox="0 0 16 16" fill="none" xmlns="http://www.w3.org/2000/svg">
<path d="M2.75 1C2.75 0.861929 2.86193 0.75 3 0.75H10.5858C10.6521 0.75 10.7157 0.776339 10.7626 0.823223L11.2856 0.300158L10.7626 0.823223L13.1768 3.23744C13.2237 3.28432 13.25 3.34791 13.25 3.41421V15C13.25 15.1381 13.1381 15.25 13 15.25H3C2.86193 15.25 2.75 15.1381 2.75 15V1Z" stroke="#F76131" stroke-width="1.5"/>
<path d="M9.75 1C9.75 0.861929 9.86193 0.75 10 0.75H10.5858C10.6521 0.75 10.7157 0.776339 10.7626 0.823223L11.2929 0.292893L10.7626 0.823223L13.1768 3.23744C13.2237 3.28432 13.25 3.34791 13.25 3.41421V4C13.25 4.13807 13.1381 4.25 13 4.25H10C9.86193 4.25 9.75 4.13807 9.75 4V1Z" stroke="#F76131" stroke-width="1.5"/>
<path d="M6.25 7L9.75 10.5" stroke="#F76131" stroke-width="1.5"/>
<path d="M9.75 7L6.25 10.5" stroke="#F76131" stroke-width="1.5"/>
</svg>
