<svg width="24" height="24" viewBox="0 0 24 24" fill="none" xmlns="http://www.w3.org/2000/svg">
<path fill-rule="evenodd" clip-rule="evenodd" d="M3 11.0004C1.78555 10.0882 1 8.63582 1 7C1 4.23858 3.23858 2 6 2C6.62524 2 7.22367 2.11476 7.77538 2.32437C8.66209 0.927253 10.2228 0 12 0C13.7772 0 15.3379 0.927254 16.2246 2.32437C16.7763 2.11476 17.3748 2 18 2C20.7614 2 23 4.23858 23 7C23 8.63582 22.2144 10.0882 21 11.0004V22C21 23.1046 20.1046 24 19 24H5C3.89543 24 3 23.1046 3 22V11.0004Z" fill="#FF6E40"/>
<circle cx="12" cy="15.5" r="6.5" fill="#FFF6F4"/>
<mask id="mask0_2285_27949" style="mask-type:alpha" maskUnits="userSpaceOnUse" x="5" y="9" width="14" height="13">
<circle cx="12" cy="15.5" r="6.5" fill="#FFF6F4"/>
</mask>
<g mask="url(#mask0_2285_27949)">
<path d="M6 9H18V13H15L14 12L13 13L12 12L11 13H6V9Z" fill="#222222"/>
</g>
<circle cx="10" cy="16" r="1" fill="#222222"/>
<circle cx="14" cy="16" r="1" fill="#222222"/>
<path d="M9.5 18.5V18.5C11.0388 19.4233 12.9612 19.4233 14.5 18.5V18.5" stroke="#222222" stroke-linecap="round"/>
</svg>
