<svg width="24" height="24" viewBox="0 0 24 24" fill="none" xmlns="http://www.w3.org/2000/svg">
<path fill-rule="evenodd" clip-rule="evenodd" d="M8.21935 8.57171L12.2424 1.74047C13.203 0.109238 15.4289 0.887376 15.4289 2.85446V8.57171H22.1431C22.6954 8.57171 23.1431 9.01942 23.1431 9.57171V19.286C23.1431 20.9428 21.8 22.286 20.1431 22.286H3.85742C2.20057 22.286 0.857422 20.9428 0.857422 19.286V9.57171C0.857422 9.01942 1.30514 8.57171 1.85742 8.57171H8.21935Z" fill="url(#paint0_linear_2285_28008)"/>
<path fill-rule="evenodd" clip-rule="evenodd" d="M8.21935 8.57171L12.2424 1.74047C13.203 0.109238 15.4289 0.887376 15.4289 2.85446V8.57171H22.1431C22.6954 8.57171 23.1431 9.01942 23.1431 9.57171V19.286C23.1431 20.9428 21.8 22.286 20.1431 22.286H3.85742C2.20057 22.286 0.857422 20.9428 0.857422 19.286V9.57171C0.857422 9.01942 1.30514 8.57171 1.85742 8.57171H8.21935Z" fill="#FFCCF6"/>
<path d="M0.857422 9.57129C0.857422 9.019 1.30514 8.57129 1.85742 8.57129H7.71456V22.2856H3.85742C2.20057 22.2856 0.857422 20.9424 0.857422 19.2856V9.57129Z" fill="url(#paint1_linear_2285_28008)"/>
<path d="M0.857422 9.57129C0.857422 9.019 1.30514 8.57129 1.85742 8.57129H7.71456V22.2856H3.85742C2.20057 22.2856 0.857422 20.9424 0.857422 19.2856V9.57129Z" fill="#FF71D9"/>
<defs>
<linearGradient id="paint0_linear_2285_28008" x1="7.28599" y1="9.85742" x2="22.286" y2="24.0003" gradientUnits="userSpaceOnUse">
<stop stop-color="#FEADF9"/>
<stop offset="1" stop-color="#F69FF0"/>
</linearGradient>
<linearGradient id="paint1_linear_2285_28008" x1="0.47647" y1="8.99986" x2="8.19866" y2="21.5169" gradientUnits="userSpaceOnUse">
<stop stop-color="#E26EB5"/>
<stop offset="1" stop-color="#D74583"/>
</linearGradient>
</defs>
</svg>
