<svg width="24" height="24" viewBox="0 0 24 24" fill="none" xmlns="http://www.w3.org/2000/svg">
<g clip-path="url(#clip0_2285_27949)">
<path d="M12.0006 24.0004C12.7106 24.0004 13.2863 23.6167 13.2863 23.1433C13.2863 22.6699 12.7106 22.2861 12.0006 22.2861C11.2905 22.2861 10.7148 22.6699 10.7148 23.1433C10.7148 23.6167 11.2905 24.0004 12.0006 24.0004Z" fill="#464851"/>
<path d="M12.0003 23.143C13.1837 23.143 14.1431 22.7592 14.1431 22.2859C14.1431 21.8125 13.1837 21.4287 12.0003 21.4287C10.8168 21.4287 9.85742 21.8125 9.85742 22.2859C9.85742 22.7592 10.8168 23.143 12.0003 23.143Z" fill="url(#paint0_linear_2285_27949)"/>
<path d="M12.0003 23.143C13.1837 23.143 14.1431 22.7592 14.1431 22.2859C14.1431 21.8125 13.1837 21.4287 12.0003 21.4287C10.8168 21.4287 9.85742 21.8125 9.85742 22.2859C9.85742 22.7592 10.8168 23.143 12.0003 23.143Z" fill="#676D7B"/>
<path d="M9.21094 20.9629V21.8062C9.21094 22.2717 10.4199 22.6495 11.9125 22.6495C13.4051 22.6495 14.614 22.2717 14.614 21.8062V20.9629H9.21094Z" fill="#464851"/>
<path d="M11.9123 22.3121C13.5908 22.3121 14.9515 21.859 14.9515 21.3001C14.9515 20.7412 13.5908 20.2881 11.9123 20.2881C10.2337 20.2881 8.87305 20.7412 8.87305 21.3001C8.87305 21.859 10.2337 22.3121 11.9123 22.3121Z" fill="url(#paint1_linear_2285_27949)"/>
<path d="M11.9123 22.3121C13.5908 22.3121 14.9515 21.859 14.9515 21.3001C14.9515 20.7412 13.5908 20.2881 11.9123 20.2881C10.2337 20.2881 8.87305 20.7412 8.87305 21.3001C8.87305 21.859 10.2337 22.3121 11.9123 22.3121Z" fill="#676D7B"/>
<path d="M9.21094 19.9521V20.7955C9.21094 21.261 10.4199 21.6388 11.9125 21.6388C13.4051 21.6388 14.614 21.261 14.614 20.7955V19.9521H9.21094Z" fill="#464851"/>
<path d="M11.9123 21.3013C13.5908 21.3013 14.9515 20.8482 14.9515 20.2893C14.9515 19.7304 13.5908 19.2773 11.9123 19.2773C10.2337 19.2773 8.87305 19.7304 8.87305 20.2893C8.87305 20.8482 10.2337 21.3013 11.9123 21.3013Z" fill="url(#paint2_linear_2285_27949)"/>
<path d="M11.9123 21.3013C13.5908 21.3013 14.9515 20.8482 14.9515 20.2893C14.9515 19.7304 13.5908 19.2773 11.9123 19.2773C10.2337 19.2773 8.87305 19.7304 8.87305 20.2893C8.87305 20.8482 10.2337 21.3013 11.9123 21.3013Z" fill="#676D7B"/>
<path d="M9.85742 18.8574V19.7146C9.85742 20.1877 10.8164 20.5717 12.0003 20.5717C13.1842 20.5717 14.1431 20.1877 14.1431 19.7146V18.8574H9.85742Z" fill="#5C606F"/>
<path d="M12 20.5714C13.6569 20.5714 15 19.9958 15 19.2857C15 18.5756 13.6569 18 12 18C10.3431 18 9 18.5756 9 19.2857C9 19.9958 10.3431 20.5714 12 20.5714Z" fill="url(#paint3_linear_2285_27949)"/>
<path d="M12 20.5714C13.6569 20.5714 15 19.9958 15 19.2857C15 18.5756 13.6569 18 12 18C10.3431 18 9 18.5756 9 19.2857C9 19.9958 10.3431 20.5714 12 20.5714Z" fill="#464851"/>
<path d="M12 0C6.80769 0 3 3.71461 3 8.70874C3 10.551 3.54346 12.2927 4.60269 13.666C6.46154 16.0777 7.99154 16.4763 8.53846 18.5898C8.53846 19.052 9.51462 19.7143 12 19.7143C14.4854 19.7143 15.4615 19.052 15.4615 18.5898C16.0085 16.4763 17.5385 16.0777 19.3973 13.666C20.4565 12.2927 21 10.551 21 8.70874C21 3.71461 17.1923 0 12 0Z" fill="url(#paint4_linear_2285_27949)"/>
<path d="M12 0C6.80769 0 3 3.71461 3 8.70874C3 10.551 3.54346 12.2927 4.60269 13.666C6.46154 16.0777 7.99154 16.4763 8.53846 18.5898C8.53846 19.052 9.51462 19.7143 12 19.7143C14.4854 19.7143 15.4615 19.052 15.4615 18.5898C16.0085 16.4763 17.5385 16.0777 19.3973 13.666C20.4565 12.2927 21 10.551 21 8.70874C21 3.71461 17.1923 0 12 0Z" fill="#F8D240"/>
<g opacity="0.6">
<path d="M12.0006 15.4289C16.0243 15.4289 19.2863 12.1669 19.2863 8.14314C19.2863 4.11935 16.0243 0.857422 12.0006 0.857422C7.97677 0.857422 4.71484 4.11935 4.71484 8.14314C4.71484 12.1669 7.97677 15.4289 12.0006 15.4289Z" fill="url(#paint5_linear_2285_27949)"/>
<path d="M12.0006 15.4289C16.0243 15.4289 19.2863 12.1669 19.2863 8.14314C19.2863 4.11935 16.0243 0.857422 12.0006 0.857422C7.97677 0.857422 4.71484 4.11935 4.71484 8.14314C4.71484 12.1669 7.97677 15.4289 12.0006 15.4289Z" fill="#FFE16C"/>
</g>
<path d="M12 18.8569C13.6569 18.8569 15 18.4731 15 17.9997C15 17.5263 13.6569 17.1426 12 17.1426C10.3431 17.1426 9 17.5263 9 17.9997C9 18.4731 10.3431 18.8569 12 18.8569Z" fill="#F4BD23"/>
<path d="M12.7537 3.48629L9.90776 6.61949C9.82553 6.71131 9.84698 6.86051 9.95067 6.92172L10.9625 7.50322C11.0268 7.54147 11.0626 7.61798 11.0554 7.6945L10.7766 10.0702C10.7551 10.25 10.9589 10.3571 11.0805 10.2309L14.0909 7.00588C14.1803 6.91024 14.1517 6.74574 14.0301 6.69218L12.6429 6.09538C12.5607 6.06095 12.5142 5.9653 12.5356 5.86966L13.0505 3.65844C13.097 3.47863 12.8789 3.34856 12.7537 3.48629Z" fill="#FDF1B9"/>
<path d="M12.7537 3.48629L9.90776 6.61949C9.82553 6.71131 9.84698 6.86051 9.95067 6.92172L10.9625 7.50322C11.0268 7.54147 11.0626 7.61798 11.0554 7.6945L10.7766 10.0702C10.7551 10.25 10.9589 10.3571 11.0805 10.2309L14.0909 7.00588C14.1803 6.91024 14.1517 6.74574 14.0301 6.69218L12.6429 6.09538C12.5607 6.06095 12.5142 5.9653 12.5356 5.86966L13.0505 3.65844C13.097 3.47863 12.8789 3.34856 12.7537 3.48629Z" fill="#FFFAE0"/>
</g>
<defs>
<linearGradient id="paint0_linear_2285_27949" x1="12.0003" y1="21.4287" x2="12.0003" y2="23.143" gradientUnits="userSpaceOnUse">
<stop stop-color="#798290"/>
<stop offset="1" stop-color="#5B5F6D"/>
</linearGradient>
<linearGradient id="paint1_linear_2285_27949" x1="11.9123" y1="20.2881" x2="11.9123" y2="22.3121" gradientUnits="userSpaceOnUse">
<stop stop-color="#798290"/>
<stop offset="1" stop-color="#5B5F6D"/>
</linearGradient>
<linearGradient id="paint2_linear_2285_27949" x1="11.9123" y1="19.2773" x2="11.9123" y2="21.3013" gradientUnits="userSpaceOnUse">
<stop stop-color="#798290"/>
<stop offset="1" stop-color="#5B5F6D"/>
</linearGradient>
<linearGradient id="paint3_linear_2285_27949" x1="12" y1="18" x2="12" y2="20.5714" gradientUnits="userSpaceOnUse">
<stop stop-color="#798290"/>
<stop offset="1" stop-color="#5B5F6D"/>
</linearGradient>
<linearGradient id="paint4_linear_2285_27949" x1="12" y1="0" x2="12" y2="19.7143" gradientUnits="userSpaceOnUse">
<stop stop-color="#F6C744"/>
<stop offset="1" stop-color="#FFD150"/>
</linearGradient>
<linearGradient id="paint5_linear_2285_27949" x1="12.0006" y1="0.857422" x2="12.0006" y2="15.4289" gradientUnits="userSpaceOnUse">
<stop stop-color="#FBE67B"/>
<stop offset="1" stop-color="#F4BA41"/>
</linearGradient>
<clipPath id="clip0_2285_27949">
<rect width="24" height="24" fill="white"/>
</clipPath>
</defs>
</svg>
