<svg width="16" height="16" viewBox="0 0 16 16" fill="none" xmlns="http://www.w3.org/2000/svg">
<path d="M14.0593 13.3321C14.2775 13.1139 14.4001 12.8179 14.4001 12.5093V6.10929C14.4001 5.80067 14.2775 5.5047 14.0593 5.28647C13.8411 5.06825 13.5451 4.94565 13.2365 4.94565H10.9092L9.74555 3.2002H6.25464L5.09101 4.94565H2.76373C2.45512 4.94565 2.15914 5.06825 1.94092 5.28647C1.72269 5.5047 1.6001 5.80067 1.6001 6.10929V12.5093C1.6001 12.8179 1.72269 13.1139 1.94092 13.3321C2.15914 13.5503 2.45512 13.6729 2.76373 13.6729H13.2365C13.5451 13.6729 13.8411 13.5503 14.0593 13.3321Z" stroke="white" stroke-width="1.2" stroke-linecap="round" stroke-linejoin="round"/>
<path d="M8.00171 11.346C9.28703 11.346 10.329 10.304 10.329 9.01868C10.329 7.73336 9.28703 6.69141 8.00171 6.69141C6.71639 6.69141 5.67444 7.73336 5.67444 9.01868C5.67444 10.304 6.71639 11.346 8.00171 11.346Z" stroke="white" stroke-width="1.2" stroke-linecap="round" stroke-linejoin="round"/>
</svg>
