<svg width="24" height="24" viewBox="0 0 24 24" fill="none" xmlns="http://www.w3.org/2000/svg">
<path fill-rule="evenodd" clip-rule="evenodd" d="M20 17.1256C20.9494 15.6469 21.5 13.8878 21.5 12C21.5 6.75329 17.2467 2.5 12 2.5C6.75329 2.5 2.5 6.75329 2.5 12C2.5 17.2467 6.75329 21.5 12 21.5H19C19.5523 21.5 20 21.0523 20 20.5V17.1256Z" fill="#F76131"/>
<path d="M20 17.1256L19.3689 16.7204C19.2913 16.8413 19.25 16.982 19.25 17.1256H20ZM20.75 12C20.75 13.7399 20.243 15.359 19.3689 16.7204L20.6311 17.5308C21.6558 15.9349 22.25 14.0357 22.25 12H20.75ZM12 3.25C16.8325 3.25 20.75 7.16751 20.75 12H22.25C22.25 6.33908 17.6609 1.75 12 1.75V3.25ZM3.25 12C3.25 7.16751 7.16751 3.25 12 3.25V1.75C6.33908 1.75 1.75 6.33908 1.75 12H3.25ZM12 20.75C7.16751 20.75 3.25 16.8325 3.25 12H1.75C1.75 17.6609 6.33908 22.25 12 22.25V20.75ZM19 20.75H12V22.25H19V20.75ZM19.25 20.5C19.25 20.6381 19.1381 20.75 19 20.75V22.25C19.9665 22.25 20.75 21.4665 20.75 20.5H19.25ZM19.25 17.1256V20.5H20.75V17.1256H19.25Z" fill="#F76131"/>
<circle cx="8" cy="12" r="1" fill="white"/>
<circle cx="12" cy="12" r="1" fill="white"/>
<circle cx="16" cy="12" r="1" fill="white"/>
</svg>
