<svg width="100" height="100" viewBox="0 0 100 100" fill="none" xmlns="http://www.w3.org/2000/svg">
    <rect width="100" height="100" rx="8" fill="#EEEEEE"/>
    <g clip-path="url(#clip0_2392_243155)">
        <path d="M81.0583 43.1649C80.9617 36.5494 76.4563 30.4125 70.4286 26.7134C64.4009 23.0144 57.0363 21.4947 49.7773 21.1222C43.4529 20.7964 36.9648 21.3124 31.127 23.5544C25.2891 25.7963 20.1493 29.9158 17.8756 35.2951C15.9236 39.9078 16.6591 45.965 21.2237 48.6433C21.5261 56.5506 20.711 64.4785 21.2408 72.3789C21.2965 73.2094 21.3738 74.0878 21.9115 74.761C22.6789 75.7214 24.3524 76.7068 25.5893 77.109C38.6747 81.356 52.0465 82.0623 66.2699 79.7736C67.2829 79.6107 68.6517 78.6446 69.4452 78.0523C70.3172 77.4006 70.5184 76.2796 70.6605 75.2612C71.4942 69.2962 72.3279 63.3321 73.1616 57.3686C73.3106 56.3035 73.4709 55.2041 74.0711 54.2802C74.9636 52.8926 76.6609 52.1339 77.9445 51.03C80.2262 49.0592 81.1004 46.0345 81.0583 43.1649Z"
              fill="#E8E8E8"/>
        <path d="M83.3329 43.1676C83.2192 36.6377 79.4425 30.6818 74.4073 26.7458C71.5344 24.5004 68.3364 22.8406 64.9076 21.6114C61.4788 20.3821 57.9295 19.6861 54.3347 19.2407C50.8086 18.7984 47.2514 18.6577 43.7015 18.8203C39.918 19.0003 36.1027 19.5437 32.4806 20.6795C26.254 22.6321 20.2854 26.4269 16.9112 32.1617C15.3673 34.7819 14.4521 37.819 14.5999 40.8835C14.7477 43.948 15.8505 47.0045 18.1094 49.1326C18.7085 49.696 19.3668 50.1926 20.0728 50.6135L18.9473 48.6473C19.2133 55.723 18.5949 62.7975 18.8336 69.8743C18.8632 70.7447 18.9053 71.6139 18.9667 72.4831C19.0417 73.546 19.194 74.528 19.6704 75.4883C20.1092 76.3678 20.8868 77.0001 21.6485 77.5811C22.2149 78.0127 22.8245 78.3842 23.4675 78.6896C25.0068 79.4198 26.6837 79.8618 28.3208 80.3163C29.8768 80.7485 31.4449 81.1336 33.0252 81.4715C39.5386 82.8545 46.1904 83.4731 52.8465 83.3148C56.1668 83.2343 59.4806 82.9818 62.7748 82.5583C63.7791 82.4307 64.7814 82.2925 65.7818 82.1436C66.1684 82.0855 66.5606 82.0377 66.9437 81.9602C67.419 81.8646 67.8714 81.6492 68.308 81.4522C68.9191 81.1618 69.5014 80.8143 70.0474 80.4144C70.8432 79.8504 71.6015 79.2876 72.079 78.4059C72.8862 76.9146 72.9487 75.1386 73.1783 73.4936L73.9116 68.2384C74.3993 64.7467 74.8757 61.2538 75.3748 57.7644C75.4816 57.0148 75.6124 56.2686 75.8977 55.5635L75.6704 56.108C75.8188 55.7599 76.0097 55.4316 76.2388 55.1306L75.8829 55.5919C76.2215 55.178 76.6073 54.8052 77.0323 54.4812L76.5776 54.8378C77.528 54.1041 78.5535 53.4821 79.4743 52.7075C80.3674 51.9393 81.1186 51.0196 81.6935 49.9904C82.8611 47.9307 83.3636 45.5236 83.3374 43.1688C83.3249 41.9772 82.3017 40.8346 81.0637 40.8904C79.8438 40.9451 78.7763 41.8917 78.7899 43.1688C78.797 43.8117 78.759 44.4543 78.6762 45.0918L78.757 44.4857C78.6282 45.4462 78.3755 46.3859 78.0055 47.2813L78.2328 46.7379C77.9418 47.4218 77.5692 48.0679 77.1233 48.6621L77.4791 48.2007C77.037 48.7714 76.5252 49.2842 75.9557 49.7273L76.4105 49.3707C75.7909 49.8469 75.1304 50.2627 74.5039 50.7286C73.6013 51.3985 72.8521 52.0581 72.1984 52.9797C71.0717 54.5746 70.9751 56.6548 70.7147 58.5186C70.1615 62.4808 69.6082 66.443 69.0549 70.4052L68.6001 73.6588C68.4739 74.5622 68.4035 75.5089 68.059 76.3633L68.2864 75.8187C68.1912 76.0414 68.0715 76.2528 67.9294 76.4487L68.2852 75.993C68.1527 76.1629 68 76.316 67.8305 76.4487L68.2909 76.0933C67.5247 76.6629 66.7277 77.2211 65.8432 77.5959L66.3867 77.3681C65.8796 77.572 65.3521 77.6369 64.8144 77.7189C64.1739 77.8169 63.5327 77.9092 62.8908 77.9958L63.4945 77.9149C57.2871 78.7454 51.0014 79.021 44.7509 78.5745C43.0349 78.4514 41.3236 78.2749 39.6168 78.0447L40.2216 78.1268C36.3248 77.5979 32.4719 76.7839 28.6937 75.6912C27.6637 75.3938 26.603 75.1215 25.6105 74.7057L26.1539 74.9335C25.367 74.6002 24.6249 74.1693 23.945 73.6508L24.3997 74.0074C24.0728 73.7577 23.7739 73.4732 23.5084 73.1587L23.8643 73.62C23.7217 73.4329 23.6033 73.2286 23.5119 73.0117L23.7392 73.5562C23.622 73.2429 23.5404 72.9173 23.4959 72.5856L23.5766 73.1906C23.3606 71.5216 23.3595 69.8025 23.3334 68.121C23.3049 66.3632 23.322 64.6043 23.3561 62.8465C23.4232 59.3707 23.5596 55.8973 23.555 52.4181C23.555 51.4551 23.5414 50.4924 23.5141 49.5302C23.5073 49.2795 23.5039 49.0278 23.4902 48.7772C23.4414 47.8407 23.1014 47.1469 22.284 46.6389C21.9892 46.4587 21.7042 46.2628 21.4302 46.0521L21.885 46.4087C21.3415 45.9788 20.8514 45.485 20.4252 44.938L20.7811 45.3937C20.3205 44.7875 19.9364 44.1267 19.6374 43.4262L19.8648 43.9697C19.5072 43.1069 19.2634 42.2013 19.1395 41.2754L19.2213 41.8815C19.083 40.7981 19.0856 39.7014 19.2292 38.6187L19.1474 39.2248C19.302 38.0834 19.6055 36.9673 20.0501 35.9051L19.8227 36.4497C20.426 35.051 21.2025 33.734 22.134 32.5296L21.7781 32.991C22.9386 31.5106 24.2804 30.1825 25.7719 29.038L25.3115 29.3945C27.1647 27.9786 29.1892 26.8035 31.3369 25.8971L30.7946 26.1249C33.7653 24.8718 36.9167 24.1006 40.1056 23.6688L39.5019 23.7497C43.506 23.2177 47.5737 23.204 51.5948 23.5218C52.69 23.6084 53.7818 23.7223 54.8701 23.8636L54.2654 23.7827C58.1307 24.3045 61.9585 25.217 65.5624 26.7344L65.019 26.5066C67.3477 27.4756 69.5443 28.7369 71.556 30.2603L71.1013 29.9037C72.7351 31.1626 74.2048 32.622 75.4759 34.2476L75.1201 33.7862C76.1913 35.1633 77.083 36.6716 77.7736 38.2747L77.5462 37.7302C78.1262 39.0993 78.5233 40.5392 78.7274 42.0125L78.6467 41.4064C78.7218 41.9895 78.7647 42.5764 78.7751 43.1642C78.7967 44.3559 79.8063 45.4985 81.0489 45.4427C82.2733 45.3914 83.3602 44.4447 83.3329 43.1676Z"
              fill="#A6A6A6"/>
        <path d="M50.6639 75.9946C42.8729 75.9946 35.5629 74.8679 28.3165 72.5485C27.5684 72.3092 26.6032 71.7088 26.2701 71.3454C26.2212 71.0936 26.1911 70.8385 26.1803 70.5822C25.9222 66.7909 26.0245 62.8663 26.1246 59.0761C26.2098 55.8305 26.2974 52.4686 26.1678 49.1364C26.148 48.6942 26.0165 48.2643 25.7854 47.8871C25.5543 47.5098 25.2313 47.1977 24.8467 46.9799C23.2096 46.0321 22.573 44.4611 22.3274 43.3094C21.9761 41.6655 22.1796 39.7777 22.8834 38.1395C24.5671 34.2184 28.454 30.8623 33.5552 28.9324C37.2443 27.5346 41.6395 26.8271 46.6201 26.8271C47.5739 26.8271 48.5676 26.8522 49.576 26.9035C56.7985 27.2703 62.7511 28.8401 67.2702 31.5743C72.443 34.7048 75.7001 39.5829 75.7695 44.3027C75.8024 46.4786 75.0873 48.3447 73.822 49.4212C73.4715 49.7053 73.1068 49.9715 72.7295 50.2187C71.7711 50.8703 70.5785 51.6814 69.7531 52.9471C68.8823 54.2811 68.6765 55.7325 68.5265 56.7931L66.2288 73.0189C66.1942 73.3138 66.1353 73.6054 66.0526 73.8905C64.9612 74.6879 64.5031 74.8497 64.4121 74.8782C59.8681 75.6099 55.2741 75.9855 50.6719 76.0014L50.6639 75.9946Z"
              fill="white"/>
        <path d="M62.2138 48.1842C60.4958 46.8859 58.4463 46.1011 56.302 45.9206C54.3011 45.752 52.0013 46.1006 50.5631 47.6294C50.1004 48.1215 49.9867 48.8632 50.4642 49.3986C50.8848 49.8703 51.7659 49.9921 52.2309 49.4977C53.2802 48.3778 54.9094 48.2878 56.3498 48.4371C57.9829 48.6242 59.533 49.2584 60.8302 50.2701C61.3679 50.6802 62.2081 50.4558 62.5639 49.9169C62.9573 49.3245 62.7504 48.5943 62.2138 48.1842Z"
              fill="#D5D5D5" stroke="#D5D5D5" stroke-width="0.10914" stroke-miterlimit="10"/>
        <path d="M39.1357 52.3241C38.9869 51.919 38.6942 51.5831 38.3137 51.3808C38.1126 51.2917 37.8983 51.2363 37.6793 51.2168C37.4288 51.1746 37.1733 51.1726 36.9222 51.2111C36.7092 51.2338 36.4992 51.2793 36.2958 51.3466C36.079 51.4303 35.8776 51.5497 35.7 51.6998C35.3835 51.9738 35.1637 52.3431 35.0736 52.7525C34.977 53.1581 35.0042 53.5834 35.1515 53.9733C35.2989 54.3633 35.5597 54.7 35.9001 54.9397C36.6505 55.4444 37.5941 55.2815 38.2876 54.7666C38.6575 54.5048 38.9536 54.1516 39.147 53.7413C39.2473 53.5182 39.2982 53.2761 39.2962 53.0314C39.2943 52.7868 39.2395 52.5455 39.1357 52.3241Z"
              fill="#A6A6A6"/>
        <path d="M58.1681 52.2995C57.9479 51.9462 57.6461 51.6512 57.2881 51.4395C56.9302 51.2277 56.5266 51.1054 56.1115 51.0829C55.7591 51.0715 55.4123 51.1728 55.1213 51.3722C54.7764 51.5993 54.5028 51.9196 54.3323 52.2961C54.0162 53.0822 54.3653 54.0505 54.9951 54.5746C55.3108 54.8432 55.7021 55.0065 56.1147 55.0418C56.5273 55.0771 56.9407 54.9827 57.2972 54.7717C57.7136 54.5453 58.052 54.1983 58.2681 53.776C58.3717 53.5401 58.4168 53.2826 58.3993 53.0255C58.3819 52.7683 58.3026 52.5192 58.1681 52.2995Z"
              fill="#A6A6A6"/>
        <path d="M51.1642 56.7858C50.3832 56.5865 49.784 57.0342 49.4998 57.6608C48.9689 58.8285 47.5148 59.545 46.2029 59.4835C44.9614 59.4231 43.7018 58.5277 43.2766 57.4022C43.1559 57.0759 42.919 56.8059 42.6114 56.6444C42.3039 56.4828 41.9475 56.4411 41.6111 56.5272C40.9414 56.6981 40.4253 57.4261 40.6663 58.0686C41.494 60.2776 43.6574 61.8668 46.2029 61.9898C48.8325 62.1174 51.1233 60.5009 52.1146 58.3295C52.3931 57.7029 51.8043 56.9488 51.1642 56.7858Z"
              fill="#A6A6A6"/>
        <path d="M32.5412 49.9555C33.2108 48.5315 34.9286 47.8092 36.4316 47.7261C38.0073 47.6395 39.5773 48.1316 40.7517 49.2014C41.8124 50.164 43.3927 48.5896 42.3274 47.6224C41.5125 46.8773 40.5552 46.3054 39.5135 45.9414C38.4719 45.5774 37.3674 45.4288 36.2667 45.5046C34.0828 45.6766 31.5999 46.7372 30.6165 48.8288C30.3596 49.3745 30.4642 50.033 31.0155 50.3565C31.4999 50.6402 32.282 50.5035 32.5389 49.9555H32.5412Z"
              fill="#D5D5D5" stroke="#D5D5D5" stroke-width="0.10914" stroke-miterlimit="10"/>
    </g>
    <defs>
        <clipPath id="clip0_2392_243155">
            <rect width="68.75" height="64.5833" fill="white" transform="translate(14.5834 18.75)"/>
        </clipPath>
    </defs>
</svg>
