<svg width="16" height="16" viewBox="0 0 16 16" fill="none" xmlns="http://www.w3.org/2000/svg">
<mask id="path-1-inside-1_1448_13856" fill="white">
<rect x="2" y="4.5" width="12" height="11.5" rx="1"/>
</mask>
<rect x="2" y="4.5" width="12" height="11.5" rx="1" stroke="#F76131" stroke-width="3" mask="url(#path-1-inside-1_1448_13856)"/>
<path d="M6.5 8V12" stroke="#F76131" stroke-width="1.5" stroke-linecap="round" stroke-linejoin="round"/>
<path d="M9.5 8V12" stroke="#F76131" stroke-width="1.5" stroke-linecap="round" stroke-linejoin="round"/>
<mask id="path-4-inside-2_1448_13856" fill="white">
<path d="M0 5C0 3.34315 1.34315 2 3 2H13C14.6569 2 16 3.34315 16 5C16 5.55228 15.5523 6 15 6H1C0.447715 6 0 5.55228 0 5Z"/>
</mask>
<path d="M0 5C0 3.34315 1.34315 2 3 2H13C14.6569 2 16 3.34315 16 5C16 5.55228 15.5523 6 15 6H1C0.447715 6 0 5.55228 0 5Z" stroke="#F76131" stroke-width="3" mask="url(#path-4-inside-2_1448_13856)"/>
<path d="M10 2.75C10 1.64543 9.10457 0.75 8 0.75C6.89543 0.75 6 1.64543 6 2.75" stroke="#F76131" stroke-width="1.5"/>
</svg>
