<svg width="24" height="24" viewBox="0 0 24 24" fill="none" xmlns="http://www.w3.org/2000/svg">
<g clip-path="url(#clip0_2285_27971)">
<path d="M18.8574 6.14258C18.8574 5.59029 18.4097 5.14258 17.8574 5.14258H1.00028C0.447996 5.14258 0.000278473 5.59029 0.000278473 6.14258V21.2451C0.000278473 21.6644 0.485245 21.8975 0.812626 21.6356L4.01208 19.076C4.18939 18.9341 4.4097 18.8569 4.63677 18.8569H15.8574C17.5143 18.8569 18.8574 17.5137 18.8574 15.8569V6.14258Z" fill="url(#paint0_linear_2285_27971)"/>
<path d="M18.8574 6.14258C18.8574 5.59029 18.4097 5.14258 17.8574 5.14258H1.00028C0.447996 5.14258 0.000278473 5.59029 0.000278473 6.14258V21.2451C0.000278473 21.6644 0.485245 21.8975 0.812626 21.6356L4.01208 19.076C4.18939 18.9341 4.4097 18.8569 4.63677 18.8569H15.8574C17.5143 18.8569 18.8574 17.5137 18.8574 15.8569V6.14258Z" fill="#7CE9FF"/>
<path d="M5.14258 2.71387C5.14258 2.16158 5.59029 1.71387 6.14258 1.71387H22.9997C23.552 1.71387 23.9997 2.16158 23.9997 2.71387V17.8164C23.9997 18.2357 23.5148 18.4688 23.1874 18.2068L19.9879 15.6473C19.8106 15.5054 19.5903 15.4282 19.3632 15.4282H8.14258C6.48572 15.4282 5.14258 14.085 5.14258 12.4282V2.71387Z" fill="url(#paint1_linear_2285_27971)"/>
<path d="M5.14258 2.71387C5.14258 2.16158 5.59029 1.71387 6.14258 1.71387H22.9997C23.552 1.71387 23.9997 2.16158 23.9997 2.71387V17.8164C23.9997 18.2357 23.5148 18.4688 23.1874 18.2068L19.9879 15.6473C19.8106 15.5054 19.5903 15.4282 19.3632 15.4282H8.14258C6.48572 15.4282 5.14258 14.085 5.14258 12.4282V2.71387Z" fill="#4153F5"/>
<circle cx="9.85798" cy="8.57185" r="1.28571" fill="url(#paint2_linear_2285_27971)"/>
<circle cx="9.85798" cy="8.57185" r="1.28571" fill="#7CE9FF"/>
<circle cx="14.5709" cy="8.57185" r="1.28571" fill="url(#paint3_linear_2285_27971)"/>
<circle cx="14.5709" cy="8.57185" r="1.28571" fill="#7CE9FF"/>
<circle cx="19.2857" cy="8.57185" r="1.28571" fill="url(#paint4_linear_2285_27971)"/>
<circle cx="19.2857" cy="8.57185" r="1.28571" fill="#7CE9FF"/>
</g>
<defs>
<linearGradient id="paint0_linear_2285_27971" x1="-0.428292" y1="5.57115" x2="18.4288" y2="17.1426" gradientUnits="userSpaceOnUse">
<stop stop-color="#68D4BE"/>
<stop offset="1" stop-color="#63C989"/>
</linearGradient>
<linearGradient id="paint1_linear_2285_27971" x1="4.71401" y1="2.14244" x2="24.4283" y2="16.2853" gradientUnits="userSpaceOnUse">
<stop stop-color="#498CF7"/>
<stop offset="1" stop-color="#4153F5"/>
</linearGradient>
<linearGradient id="paint2_linear_2285_27971" x1="11.2021" y1="7.35042" x2="8.50254" y2="8.85639" gradientUnits="userSpaceOnUse">
<stop stop-color="#68D4BE"/>
<stop offset="1" stop-color="#63C989"/>
</linearGradient>
<linearGradient id="paint3_linear_2285_27971" x1="15.915" y1="7.35042" x2="13.2154" y2="8.85639" gradientUnits="userSpaceOnUse">
<stop stop-color="#68D4BE"/>
<stop offset="1" stop-color="#63C989"/>
</linearGradient>
<linearGradient id="paint4_linear_2285_27971" x1="20.6299" y1="7.35042" x2="17.9303" y2="8.85639" gradientUnits="userSpaceOnUse">
<stop stop-color="#68D4BE"/>
<stop offset="1" stop-color="#63C989"/>
</linearGradient>
<clipPath id="clip0_2285_27971">
<rect width="24" height="24" fill="white"/>
</clipPath>
</defs>
</svg>
