<svg width="24" height="24" viewBox="0 0 24 24" fill="none" xmlns="http://www.w3.org/2000/svg">
<path d="M4.08333 9.52474C4.08333 8.97256 3.61323 8.47549 3.19106 8.11957C3.09283 8.03675 3.00067 7.94782 2.91677 7.85947C2.32553 7.23689 2.36853 6.26904 3.01281 5.69772C4.96003 3.971 8.38057 3 12 3C15.6194 3 19.04 3.971 20.9872 5.69772C21.6315 6.26904 21.6745 7.23689 21.0832 7.85947C20.9993 7.94782 20.9072 8.03675 20.8089 8.11957C20.3868 8.47549 19.9167 8.97256 19.9167 9.52475V19.47C19.9167 20.315 19.2078 21 18.3333 21H5.66666C4.79221 21 4.08333 20.315 4.08333 19.47V9.52474Z" stroke="#9E9E9E" stroke-width="1.5" stroke-linecap="round"/>
<path d="M16 10.5V16.5" stroke="#9E9E9E" stroke-width="1.5" stroke-linecap="round"/>
</svg>
