<svg width="17" height="17" viewBox="0 0 17 17" fill="none" xmlns="http://www.w3.org/2000/svg">
<path d="M14.462 1H3.12025C2.22541 1 1.5 1.72541 1.5 2.62025V13.962C1.5 14.8569 2.22541 15.5823 3.12025 15.5823H14.462C15.3569 15.5823 16.0823 14.8569 16.0823 13.962V2.62025C16.0823 1.72541 15.3569 1 14.462 1Z" stroke="#BDBDBD" stroke-width="1.5" stroke-linecap="round" stroke-linejoin="round"/>
<path d="M5.99121 6.67062C6.68157 6.67062 7.24121 6.12656 7.24121 5.45543C7.24121 4.78429 6.68157 4.24023 5.99121 4.24023C5.30085 4.24023 4.74121 4.78429 4.74121 5.45543C4.74121 6.12656 5.30085 6.67062 5.99121 6.67062Z" stroke="#BDBDBD" stroke-width="1.5" stroke-linecap="round" stroke-linejoin="round"/>
<path d="M16.0825 10.7225L12.0319 6.67188L3.12048 15.5833" stroke="#BDBDBD" stroke-width="1.5" stroke-linecap="round" stroke-linejoin="round"/>
</svg>
