<svg width="24" height="24" viewBox="0 0 24 24" fill="none" xmlns="http://www.w3.org/2000/svg">
<path d="M19.5741 18.6649C19.8469 18.3921 20.0001 18.0221 20.0001 17.6364V9.63636C20.0001 9.25059 19.8469 8.88063 19.5741 8.60784C19.3013 8.33506 18.9313 8.18182 18.5456 8.18182H15.6365L14.1819 6H9.8183L8.36376 8.18182H5.45467C5.0689 8.18182 4.69893 8.33506 4.42615 8.60784C4.15337 8.88063 4.00012 9.25059 4.00012 9.63636V17.6364C4.00012 18.0221 4.15337 18.3921 4.42615 18.6649C4.69893 18.9377 5.0689 19.0909 5.45467 19.0909H18.5456C18.9313 19.0909 19.3013 18.9377 19.5741 18.6649Z" stroke="#BDBDBD" stroke-width="1.5" stroke-linecap="round" stroke-linejoin="round"/>
<path d="M12.0021 16.1824C13.6088 16.1824 14.9112 14.88 14.9112 13.2733C14.9112 11.6667 13.6088 10.3643 12.0021 10.3643C10.3955 10.3643 9.09302 11.6667 9.09302 13.2733C9.09302 14.88 10.3955 16.1824 12.0021 16.1824Z" stroke="#BDBDBD" stroke-width="1.5" stroke-linecap="round" stroke-linejoin="round"/>
</svg>
