<svg width="20" height="20" viewBox="0 0 20 20" fill="none" xmlns="http://www.w3.org/2000/svg">
<path d="M4.68213 3.41797V16.9995" stroke="white" stroke-width="2.27273" stroke-linecap="round" stroke-linejoin="round"/>
<mask id="path-2-inside-1_2392_173686" fill="white">
<path d="M4 3.92675C4 3.24597 4.71989 2.81102 5.34474 3.08124C7.04237 3.8154 8.18389 3.90702 10.8222 3.90702C13.4058 3.90702 14.1951 3.54973 15.651 3.08415C16.3289 2.86736 17 3.38644 17 4.09817V10.4122C17 11.5019 16.3603 12.5077 15.3542 12.9263C14.1364 13.433 13.1725 13.6748 10.8222 13.6748C8.18086 13.6748 6.53608 13.4487 5.04815 12.7944C4.37763 12.4996 4 11.8024 4 11.07V3.92675Z"/>
</mask>
<path d="M4 3.92675C4 3.24597 4.71989 2.81102 5.34474 3.08124C7.04237 3.8154 8.18389 3.90702 10.8222 3.90702C13.4058 3.90702 14.1951 3.54973 15.651 3.08415C16.3289 2.86736 17 3.38644 17 4.09817V10.4122C17 11.5019 16.3603 12.5077 15.3542 12.9263C14.1364 13.433 13.1725 13.6748 10.8222 13.6748C8.18086 13.6748 6.53608 13.4487 5.04815 12.7944C4.37763 12.4996 4 11.8024 4 11.07V3.92675Z" fill="white"/>
<path d="M10.8222 3.90702V5.82155V3.90702ZM5.04815 12.7944L4.27756 14.547L5.04815 12.7944ZM15.0855 4.09817V10.4122H18.9145V4.09817H15.0855ZM5.91452 11.07V3.92675H2.08548V11.07H5.91452ZM4.5848 4.83848C6.65557 5.73401 8.12309 5.82155 10.8222 5.82155V1.9925C8.2447 1.9925 7.42917 1.89679 6.10468 1.324L4.5848 4.83848ZM10.8222 5.82155C12.2046 5.82155 13.1861 5.72593 14.0531 5.54381C14.8816 5.36978 15.5901 5.11368 16.2342 4.9077L15.0679 1.2606C14.2561 1.5202 13.842 1.67554 13.2659 1.79655C12.7283 1.90948 12.0234 1.9925 10.8222 1.9925V5.82155ZM14.6188 11.1587C13.6771 11.5504 12.9714 11.7603 10.8222 11.7603V15.5894C13.3736 15.5894 14.5956 15.3155 16.0896 14.694L14.6188 11.1587ZM10.8222 11.7603C8.27057 11.7603 6.94267 11.536 5.81873 11.0418L4.27756 14.547C6.12948 15.3613 8.09114 15.5894 10.8222 15.5894V11.7603ZM2.08548 11.07C2.08548 12.4161 2.78766 13.892 4.27756 14.547L5.81873 11.0418C5.84682 11.0542 5.87196 11.0711 5.89151 11.089C5.9103 11.1061 5.91943 11.1199 5.92245 11.125C5.92527 11.1298 5.92297 11.1272 5.92002 11.1161C5.91708 11.105 5.91452 11.0892 5.91452 11.07H2.08548ZM15.0855 10.4122C15.0855 10.7669 14.8762 11.0516 14.6188 11.1587L16.0896 14.694C17.8444 13.9639 18.9145 12.2368 18.9145 10.4122H15.0855ZM18.9145 4.09817C18.9145 2.17043 17.0571 0.624454 15.0679 1.2606L16.2342 4.9077C15.6008 5.11026 15.0855 4.60245 15.0855 4.09817H18.9145ZM5.91452 3.92675C5.91452 4.74377 5.11135 5.06619 4.5848 4.83848L6.10468 1.324C4.32844 0.55584 2.08548 1.74818 2.08548 3.92675H5.91452Z" fill="white" mask="url(#path-2-inside-1_2392_173686)"/>
</svg>
