<svg width="20" height="20" viewBox="0 0 20 20" fill="none" xmlns="http://www.w3.org/2000/svg">
<path d="M15.8794 3.14987C16.4356 3.38034 16.941 3.71814 17.3666 4.14397C17.7924 4.5696 18.1302 5.07496 18.3607 5.63117C18.5912 6.18739 18.7098 6.78356 18.7098 7.38564C18.7098 7.98771 18.5912 8.58388 18.3607 9.1401C18.1302 9.69631 17.7924 10.2017 17.3666 10.6273L16.4833 11.5106L9.99994 17.994L3.5166 11.5106L2.63327 10.6273C1.77353 9.76756 1.29053 8.6015 1.29053 7.38564C1.29053 6.16977 1.77353 5.00371 2.63327 4.14397C3.49301 3.28423 4.65908 2.80123 5.87494 2.80123C7.0908 2.80123 8.25686 3.28423 9.1166 4.14397L9.99994 5.0273L10.8833 4.14397C11.3089 3.71814 11.8143 3.38034 12.3705 3.14987C12.9267 2.9194 13.5229 2.80078 14.1249 2.80078C14.727 2.80078 15.3232 2.9194 15.8794 3.14987Z" fill="white"/>
</svg>
