<svg width="32" height="32" viewBox="0 0 32 32" fill="none" xmlns="http://www.w3.org/2000/svg">
<circle cx="16" cy="16" r="16" fill="#1EC780"/>
<path d="M21.8794 9.14914C22.4356 9.37961 22.941 9.71741 23.3666 10.1432C23.7924 10.5689 24.1302 11.0742 24.3607 11.6304C24.5912 12.1867 24.7098 12.7828 24.7098 13.3849C24.7098 13.987 24.5912 14.5831 24.3607 15.1394C24.1302 15.6956 23.7924 16.2009 23.3666 16.6266L22.4833 17.5099L15.9999 23.9932L9.5166 17.5099L8.63327 16.6266C7.77353 15.7668 7.29053 14.6008 7.29053 13.3849C7.29053 12.169 7.77353 11.003 8.63327 10.1432C9.49301 9.28349 10.6591 8.80049 11.8749 8.80049C13.0908 8.80049 14.2569 9.28349 15.1166 10.1432L15.9999 11.0266L16.8833 10.1432C17.3089 9.71741 17.8143 9.37961 18.3705 9.14914C18.9267 8.91867 19.5229 8.80005 20.1249 8.80005C20.727 8.80005 21.3232 8.91867 21.8794 9.14914Z" fill="white"/>
</svg>
