<svg width="42" height="46" viewBox="0 0 42 46" fill="none" xmlns="http://www.w3.org/2000/svg">
    <g filter="url(#filter0_d_7211_202913)">
        <path d="M37 17.5C37 26.0604 25.7075 38 21 38C16.2925 38 5 26.0604 5 17.5C5 8.93959 12.1634 2 21 2C29.8366 2 37 8.93959 37 17.5Z" fill="currentColor"/>
        <path d="M26.1442 10.6585C26.6309 10.8601 27.073 11.1557 27.4455 11.5283C27.8181 11.9007 28.1136 12.3429 28.3153 12.8296C28.517 13.3163 28.6208 13.838 28.6208 14.3648C28.6208 14.8916 28.517 15.4132 28.3153 15.8999C28.1136 16.3866 27.8181 16.8288 27.4455 17.2012L26.6726 17.9741L20.9996 23.6471L15.3267 17.9741L14.5538 17.2012C13.8015 16.449 13.3789 15.4287 13.3789 14.3648C13.3789 13.3009 13.8015 12.2806 14.5538 11.5283C15.3061 10.776 16.3264 10.3534 17.3903 10.3534C18.4541 10.3534 19.4744 10.776 20.2267 11.5283L20.9996 12.3012L21.7726 11.5283C22.145 11.1557 22.5872 10.8601 23.0739 10.6585C23.5605 10.4568 24.0822 10.353 24.609 10.353C25.1358 10.353 25.6575 10.4568 26.1442 10.6585Z" fill="white"/>
    </g>
<defs>
<filter id="filter0_d_7211_202913" x="0" y="0" width="42" height="46" filterUnits="userSpaceOnUse" color-interpolation-filters="sRGB">
<feFlood flood-opacity="0" result="BackgroundImageFix"/>
<feColorMatrix in="SourceAlpha" type="matrix" values="0 0 0 0 0 0 0 0 0 0 0 0 0 0 0 0 0 0 127 0" result="hardAlpha"/>
<feOffset dy="3"/>
<feGaussianBlur stdDeviation="2.5"/>
<feComposite in2="hardAlpha" operator="out"/>
<feColorMatrix type="matrix" values="0 0 0 0 0 0 0 0 0 0 0 0 0 0 0 0 0 0 0.15 0"/>
<feBlend mode="normal" in2="BackgroundImageFix" result="effect1_dropShadow_7211_202913"/>
<feBlend mode="normal" in="SourceGraphic" in2="effect1_dropShadow_7211_202913" result="shape"/>
</filter>
</defs>
</svg>
