<svg width="16" height="16" viewBox="0 0 16 16" fill="none" xmlns="http://www.w3.org/2000/svg">
<circle cx="7.99508" cy="7.99508" r="6.665" fill="#BDBDBD"/>
<path fill-rule="evenodd" clip-rule="evenodd" d="M7.99532 4.3501C7.03673 4.3501 6.25964 5.12719 6.25964 6.08577C6.25964 7.04436 7.03673 7.82145 7.99532 7.82145C8.95391 7.82145 9.731 7.04436 9.731 6.08577C9.731 5.12719 8.95391 4.3501 7.99532 4.3501Z" fill="white"/>
<path fill-rule="evenodd" clip-rule="evenodd" d="M7.99512 8.51611C6.61936 8.51611 5.73446 9.01815 5.26607 9.78491C4.97537 10.2608 5.08663 10.756 5.38384 11.1014C5.66895 11.4327 6.12832 11.6403 6.60657 11.6403H9.38366C9.86192 11.6403 10.3213 11.4327 10.6064 11.1014C10.9036 10.756 11.0149 10.2608 10.7242 9.78491C10.2558 9.01815 9.37087 8.51611 7.99512 8.51611Z" fill="white"/>
</svg>

