<svg width="16" height="16" viewBox="0 0 16 16" fill="none" xmlns="http://www.w3.org/2000/svg">
<path d="M4.57141 9.75872H7.48311H10.3948C11.2038 9.75872 11.6983 8.73715 11.272 7.94647L10.9923 7.42744C10.7169 6.91667 10.7169 6.27063 10.9923 5.75985L11.272 5.24082C11.6983 4.45014 11.2038 3.42857 10.3948 3.42857L4.57141 3.42857L4.57141 9.75872Z" fill="currentColor"/>
<path d="M4.57141 9.75872V13.7143M4.57141 9.75872L4.57141 3.42857L10.3948 3.42857C11.2038 3.42857 11.6983 4.45014 11.272 5.24082L10.9923 5.75985C10.7169 6.27063 10.7169 6.91667 10.9923 7.42744L11.272 7.94647C11.6983 8.73715 11.2038 9.75872 10.3948 9.75872H7.48311H4.57141Z" stroke="currentColor" stroke-width="1.5" stroke-linecap="round" stroke-linejoin="round"/>
</svg>
