<svg width="16" height="16" viewBox="0 0 16 16" fill="none" xmlns="http://www.w3.org/2000/svg">
    <path d="M3.33366 8.00065C3.33366 5.42332 5.42299 3.33398 8.00032 3.33398C9.30612 3.33398 10.4866 3.8703 11.3337 4.73466" stroke="#222222" stroke-width="1.33333" stroke-linecap="round" stroke-linejoin="round"/>
    <path d="M13.0003 3.63292V6.26724C13.0003 6.30406 12.9705 6.3339 12.9337 6.3339H10.2993C10.2798 6.3339 10.2688 6.3287 10.2614 6.3235C10.2525 6.31724 10.2436 6.30686 10.2377 6.29275C10.2319 6.27863 10.2309 6.265 10.2327 6.25429C10.2343 6.24541 10.2384 6.23391 10.2522 6.2201L12.8865 3.58578C12.9003 3.57196 12.9118 3.56783 12.9207 3.56629C12.9314 3.56444 12.9451 3.56548 12.9592 3.57133C12.9733 3.57718 12.9837 3.58608 12.9899 3.59496C12.9951 3.60233 13.0003 3.61338 13.0003 3.63292Z" fill="#222222" stroke="#222222" stroke-width="0.666667"/>
    <path d="M12.6663 8.66659C12.6663 11.2439 10.577 13.3333 7.99968 13.3333C6.69388 13.3333 5.51335 12.7969 4.66634 11.9326" stroke="#222222" stroke-width="1.33333" stroke-linecap="round" stroke-linejoin="round"/>
    <path d="M2.99968 13.0343V10.4C2.99968 10.3632 3.02952 10.3333 3.06634 10.3333H5.70066C5.7202 10.3333 5.73125 10.3385 5.73862 10.3437C5.7475 10.35 5.7564 10.3604 5.76225 10.3745C5.7681 10.3886 5.76914 10.4022 5.76729 10.4129C5.76575 10.4218 5.76162 10.4333 5.7478 10.4471L3.11348 13.0815C3.09967 13.0953 3.08817 13.0994 3.07929 13.1009C3.06858 13.1028 3.05495 13.1018 3.04083 13.0959C3.02672 13.0901 3.01634 13.0812 3.01008 13.0723C3.00488 13.0649 2.99968 13.0539 2.99968 13.0343Z" fill="#222222" stroke="#222222" stroke-width="0.666667"/>
</svg>
