<svg width="24" height="24" viewBox="0 0 24 24" fill="none" xmlns="http://www.w3.org/2000/svg">
<path d="M12.0112 1.71289C12.7952 1.72144 13.576 1.81223 14.3419 1.98313C14.5048 2.0195 14.6523 2.10586 14.7638 2.23015C14.8752 2.35444 14.9451 2.51044 14.9636 2.67635L15.1451 4.3074C15.1708 4.53736 15.25 4.75808 15.3765 4.95182C15.503 5.14556 15.6732 5.30689 15.8735 5.42285C16.0737 5.53881 16.2983 5.60615 16.5293 5.61945C16.7603 5.63276 16.9912 5.59165 17.2034 5.49945L18.6999 4.84254C18.8518 4.77562 19.0208 4.75756 19.1835 4.79086C19.3461 4.82415 19.4944 4.90716 19.6078 5.0284C20.6887 6.18315 21.4936 7.56802 21.962 9.07878C22.0111 9.23755 22.0096 9.40766 21.9578 9.56555C21.9059 9.72344 21.8062 9.86128 21.6725 9.96L20.3459 10.9384C20.1594 11.0755 20.0077 11.2545 19.9031 11.461C19.7986 11.6675 19.7441 11.8958 19.7441 12.1273C19.7441 12.3587 19.7986 12.587 19.9031 12.7935C20.0077 13 20.1594 13.1791 20.3459 13.3161L21.6736 14.2934C21.8077 14.3921 21.9077 14.5301 21.9598 14.6882C22.0119 14.8463 22.0134 15.0167 21.9641 15.1757C21.4956 16.6864 20.6907 18.0713 19.61 19.2261C19.4968 19.3471 19.349 19.43 19.1868 19.4635C19.0246 19.497 18.856 19.4793 18.7042 19.413L17.2013 18.754C16.9894 18.6611 16.7586 18.6194 16.5275 18.6322C16.2965 18.6451 16.0717 18.7121 15.8714 18.828C15.6711 18.9439 15.5008 19.1052 15.3745 19.2991C15.2481 19.493 15.1692 19.7139 15.1441 19.9439L14.9636 21.5739C14.9454 21.738 14.8769 21.8925 14.7675 22.0162C14.6581 22.1399 14.5132 22.2268 14.3526 22.265C12.8054 22.6331 11.1935 22.6331 9.64635 22.265C9.48571 22.2268 9.34078 22.1399 9.23142 22.0162C9.12205 21.8925 9.05358 21.738 9.03538 21.5739L8.85593 19.946C8.82976 19.7166 8.75012 19.4965 8.62341 19.3034C8.4967 19.1103 8.32646 18.9496 8.12637 18.8343C7.92627 18.719 7.70191 18.6522 7.47132 18.6394C7.24073 18.6266 7.01035 18.668 6.79869 18.7604L5.29689 19.4184C5.14497 19.4849 4.97615 19.5027 4.81372 19.4692C4.65129 19.4357 4.50325 19.3527 4.39004 19.2315C3.30877 18.0753 2.50384 16.689 2.03585 15.1768C1.98661 15.0178 1.98813 14.8474 2.04019 14.6892C2.09226 14.5311 2.19229 14.3932 2.32639 14.2945L3.65409 13.3161C3.84085 13.1792 3.99273 13.0002 4.09742 12.7937C4.20211 12.5871 4.25666 12.3588 4.25666 12.1273C4.25666 11.8957 4.20211 11.6674 4.09742 11.4608C3.99273 11.2543 3.84085 11.0753 3.65409 10.9384L2.32639 9.96214C2.19248 9.86335 2.09266 9.72532 2.04079 9.56721C1.98892 9.4091 1.98756 9.23877 2.03692 9.07985C2.50533 7.5691 3.31024 6.18424 4.3911 5.02947C4.50452 4.90823 4.65281 4.82522 4.81546 4.79193C4.97811 4.75863 5.14708 4.77669 5.29902 4.84361L6.79442 5.50052C7.007 5.59267 7.23823 5.63367 7.46953 5.62024C7.70084 5.60681 7.92577 5.53931 8.12625 5.42318C8.32674 5.30704 8.49719 5.1455 8.62392 4.95154C8.75064 4.75757 8.83011 4.53659 8.85593 4.30633L9.03751 2.67635C9.05584 2.5101 9.12575 2.35376 9.23743 2.22924C9.3491 2.10473 9.49695 2.0183 9.66024 1.98206C10.4261 1.81223 11.209 1.7225 12.0112 1.71289ZM12.0112 3.3151C11.5267 3.32079 11.0433 3.36256 10.565 3.44007L10.4485 4.48365C10.3952 4.96384 10.2298 5.42478 9.96552 5.82928C9.7013 6.23377 9.34569 6.5705 8.9274 6.81228C8.5091 7.05407 8.03983 7.19415 7.55744 7.22123C7.07505 7.2483 6.59305 7.16161 6.15033 6.96814L5.19114 6.54729C4.58015 7.28871 4.09385 8.12459 3.75129 9.02217L4.60366 9.64917C4.9927 9.93508 5.309 10.3085 5.52701 10.7393C5.74502 11.17 5.85861 11.6461 5.85861 12.1289C5.85861 12.6117 5.74502 13.0877 5.52701 13.5184C5.309 13.9492 4.9927 14.3226 4.60366 14.6085L3.75022 15.2366C4.09202 16.136 4.5791 16.9734 5.19007 17.7168L6.15674 17.2928C6.59841 17.0999 7.07918 17.0135 7.56035 17.0404C8.04153 17.0673 8.50967 17.2068 8.92708 17.4477C9.3445 17.6885 9.69953 18.0241 9.96361 18.4272C10.2277 18.8303 10.3934 19.2898 10.4475 19.7687L10.565 20.8198C11.5145 20.98 12.4855 20.98 13.435 20.8198L13.5525 19.7687C13.6057 19.2892 13.7709 18.8289 14.0347 18.425C14.2985 18.0211 14.6536 17.6849 15.0714 17.4435C15.4891 17.2021 15.9577 17.0623 16.4394 17.0354C16.921 17.0085 17.4023 17.0952 17.8443 17.2885L18.811 17.7115C19.4217 16.9696 19.9076 16.1334 20.2498 15.2355L19.3974 14.6075C19.0084 14.3216 18.6921 13.9481 18.4741 13.5174C18.256 13.0866 18.1425 12.6106 18.1425 12.1278C18.1425 11.645 18.256 11.169 18.4741 10.7382C18.6921 10.3074 19.0084 9.93401 19.3974 9.6481L20.2476 9.02111C19.9051 8.12352 19.4188 7.28764 18.8078 6.54623L17.8507 6.966C17.4083 7.15971 16.9264 7.24665 16.4442 7.21981C15.9619 7.19297 15.4927 7.05309 15.0744 6.81148C14.6562 6.56987 14.3006 6.23329 14.0364 5.82892C13.7722 5.42455 13.6069 4.96372 13.5536 4.48365L13.4361 3.44114C12.9653 3.36416 12.4893 3.32239 12.0123 3.31617L12.0112 3.3151ZM11.9984 8.12173C13.0607 8.12173 14.0795 8.54374 14.8307 9.29492C15.5819 10.0461 16.0039 11.0649 16.0039 12.1273C16.0039 13.1896 15.5819 14.2084 14.8307 14.9596C14.0795 15.7108 13.0607 16.1328 11.9984 16.1328C10.9361 16.1328 9.91725 15.7108 9.16606 14.9596C8.41488 14.2084 7.99287 13.1896 7.99287 12.1273C7.99287 11.0649 8.41488 10.0461 9.16606 9.29492C9.91725 8.54374 10.9361 8.12173 11.9984 8.12173ZM11.9984 9.72394C11.361 9.72394 10.7497 9.97715 10.299 10.4279C9.84829 10.8786 9.59508 11.4899 9.59508 12.1273C9.59508 12.7647 9.84829 13.3759 10.299 13.8267C10.7497 14.2774 11.361 14.5306 11.9984 14.5306C12.6358 14.5306 13.2471 14.2774 13.6978 13.8267C14.1485 13.3759 14.4017 12.7647 14.4017 12.1273C14.4017 11.4899 14.1485 10.8786 13.6978 10.4279C13.2471 9.97715 12.6358 9.72394 11.9984 9.72394Z" fill="#222222"/>
</svg>
