<svg width="38" height="42" viewBox="0 0 38 42" fill="none" xmlns="http://www.w3.org/2000/svg">
    <g filter="url(#filter0_d_2450_163632)">
        <path
                d="M35 15.5C35 24.0604 23.7075 36 19 36C14.2925 36 3 24.0604 3 15.5C3 6.93959 10.1634 0 19 0C27.8366 0 35 6.93959 35 15.5Z"
                fill="currentColor"
        />
    </g>
    <path fill-rule="evenodd" clip-rule="evenodd" d="M17.9708 10.7405C18.1327 10.6433 18.6871 10.4489 19.4825 10.3877C20.0499 10.3441 20.709 10.3712 21.3901 10.536C21.3414 10.612 21.3145 10.6979 21.3096 10.7849C21.187 10.8797 21.0819 10.977 20.9962 11.0716C20.1066 12.0392 19.7647 13.1808 19.7647 14.4169C19.7647 14.7011 19.9951 14.9316 20.2794 14.9316C20.5637 14.9316 20.7941 14.7011 20.7941 14.4169C20.7941 13.3857 21.072 12.5095 21.7552 11.767L21.7584 11.7635C22.0905 11.396 23.0701 10.842 24.2974 11.2664C24.3704 11.2927 24.4429 11.3208 24.5143 11.3508C24.5697 11.3747 24.6254 11.4006 24.6816 11.4287C24.703 11.4394 24.7249 11.4485 24.747 11.456C26.8232 12.4528 28 13.9248 28 15.4463C28 16.7277 27.1673 17.7438 25.587 18.467C24.0033 19.1917 21.7692 19.5639 19.25 19.5639C16.7308 19.5639 14.4967 19.1917 12.913 18.467C11.3327 17.7438 10.5 16.7277 10.5 15.4463C10.5 13.9114 11.6976 12.4269 13.8081 11.4298C14.3168 11.1894 14.8967 11.0408 15.3947 11.0098C15.5835 10.998 15.7515 11.0038 15.8936 11.0238C15.6468 11.2853 15.4379 11.563 15.2648 11.8568C14.8022 12.6423 14.6176 13.5074 14.6176 14.4169C14.6176 14.7011 14.8481 14.9316 15.1324 14.9316C15.4166 14.9316 15.6471 14.7011 15.6471 14.4169C15.6471 13.6495 15.8015 12.9741 16.1519 12.3792C16.5023 11.7841 17.0697 11.2338 17.9529 10.7508C17.9589 10.7475 17.9649 10.744 17.9708 10.7405Z" fill="white"/>
    <defs>
        <filter id="filter0_d_2450_163632" x="0.430435" y="0" width="37.1391" height="41.1391" filterUnits="userSpaceOnUse" color-interpolation-filters="sRGB">
            <feFlood flood-opacity="0" result="BackgroundImageFix"/>
            <feColorMatrix in="SourceAlpha" type="matrix" values="0 0 0 0 0 0 0 0 0 0 0 0 0 0 0 0 0 0 127 0" result="hardAlpha"/>
            <feOffset dy="2.56957"/>
            <feGaussianBlur stdDeviation="1.28478"/>
            <feComposite in2="hardAlpha" operator="out"/>
            <feColorMatrix type="matrix" values="0 0 0 0 0 0 0 0 0 0 0 0 0 0 0 0 0 0 0.1 0"/>
            <feBlend mode="normal" in2="BackgroundImageFix" result="effect1_dropShadow_2450_163632"/>
            <feBlend mode="normal" in="SourceGraphic" in2="effect1_dropShadow_2450_163632" result="shape"/>
        </filter>
    </defs>
</svg>
