<svg width="16" height="16" viewBox="0 0 16 16" fill="none" xmlns="http://www.w3.org/2000/svg">
<path fill-rule="evenodd" clip-rule="evenodd" d="M8 2C6.75568 2 6.63804 4.16732 5.89724 4.93307C5.15643 5.69883 2.85334 4.82328 2.53336 6.18246C2.21405 7.54233 4.28588 8.00373 4.54133 9.17043C4.79813 10.3371 3.5323 11.9763 4.61393 12.7921C5.69556 13.6072 6.85988 11.7623 8 11.7623C9.14011 11.7623 10.3044 13.6072 11.3861 12.7921C12.4677 11.9763 11.2025 10.3371 11.4587 9.17043C11.7148 8.00373 13.7859 7.54233 13.4666 6.18246C13.1473 4.82328 10.8436 5.69883 10.1034 4.93307C9.36262 4.16732 9.24431 2 8 2Z" fill="currentColor"/>
</svg>
