<svg width="85" height="49" viewBox="0 0 85 49" fill="none" xmlns="http://www.w3.org/2000/svg">
<g clip-path="url(#clip0_5868_189900)">
<path d="M1.50353 34.3337C1.18098 32.8493 1.16015 31.3126 1.44234 29.8196C1.72453 28.3265 2.3037 26.909 3.14375 25.6554C5.54408 22.1413 10.2947 20.7935 14.2653 20.4194C18.4692 20.023 21.678 22.2985 25.1301 24.4134C25.1101 24.4015 29.5757 20.023 30.0741 19.6404C31.9344 18.2139 34.0363 17.0779 36.335 16.6303C38.5553 16.1913 40.9323 16.0973 43.1876 16.1178C45.2079 16.1435 47.4715 16.2374 49.3301 17.1428C49.5585 17.2499 49.7781 17.3755 49.9869 17.5186C51.8918 18.8651 53.6036 20.478 55.0726 22.3105C55.0726 22.3105 59.9065 17.3563 69.7579 18.5265C79.6093 19.6967 83.0481 25.5887 83.7032 29.7092C84.3582 33.8297 80.4227 39.797 64.5889 43.7501C48.755 47.7031 40.4706 48.793 26.1152 46.608C11.7599 44.4231 2.9804 40.7246 1.50353 34.3337Z" fill="#DADADA"/>
<path d="M2.70838 33.9941C2.48278 32.9573 2.42645 31.8893 2.54169 30.8337C2.54169 30.8337 2.59837 30.3964 2.56503 30.6321C2.58503 30.4972 2.6067 30.3622 2.63171 30.2272C2.68005 29.959 2.74004 29.6925 2.80839 29.4295C2.87673 29.1664 2.95341 28.9032 3.04009 28.6453C3.08343 28.5171 3.12845 28.389 3.17679 28.2609C3.20846 28.1772 3.24179 28.0901 3.27513 28.0081C3.24346 28.0849 3.24679 28.0832 3.27513 28.0081C3.48295 27.5354 3.72359 27.0787 3.99522 26.6414C4.06689 26.5269 4.14025 26.4159 4.21526 26.2997C4.22526 26.2844 4.45362 25.9667 4.2986 26.1734C4.46499 25.9539 4.64247 25.7435 4.83033 25.543C5.15038 25.1965 5.49529 24.8749 5.86215 24.5812C5.66046 24.7417 5.96716 24.5043 5.98216 24.4941C6.07718 24.424 6.17219 24.354 6.27053 24.2874C6.49723 24.1302 6.73227 23.9816 6.96897 23.8415C8.58253 22.8883 10.3161 22.345 12.303 21.9709C12.4947 21.935 12.6898 21.9008 12.8831 21.8701L13.2298 21.8154C13.6082 21.7573 12.9765 21.8445 13.3548 21.7984C13.8932 21.7317 14.4316 21.6685 14.9734 21.6548C15.2518 21.6548 15.5301 21.6549 15.8068 21.6702C15.9435 21.6788 16.0786 21.689 16.2152 21.7027C16.2152 21.7027 16.6453 21.759 16.4186 21.7249C16.9866 21.812 17.5473 21.9439 18.0955 22.1195C19.175 22.469 20.2136 22.9393 21.1926 23.522C22.3127 24.1524 23.3962 24.8459 24.4914 25.5173C25.2515 25.982 26.0333 25.4968 26.325 24.752L26.0032 25.3175C26.2897 24.9911 26.5965 24.6841 26.9217 24.3984C27.5385 23.7925 28.158 23.1877 28.7803 22.5841C29.3437 22.0392 29.9071 21.4942 30.4805 20.9612C30.5722 20.8758 30.6622 20.7904 30.7556 20.7084L30.8456 20.6298C31.0239 20.459 30.7106 20.7614 30.6922 20.746C30.7189 20.7665 31.4657 20.1806 31.5457 20.1259C31.8791 19.8987 32.2124 19.6834 32.5458 19.4801C33.7487 18.7335 35.0665 18.2015 36.443 17.9067C37.957 17.6035 39.4945 17.4405 41.037 17.4198C42.5815 17.3555 44.1284 17.3869 45.6693 17.5139C45.836 17.5292 46.0027 17.5463 46.1693 17.5668C46.1985 17.5681 46.2276 17.572 46.256 17.5788C46.3494 17.5924 46.4427 17.6078 46.5344 17.6249C46.9277 17.6909 47.3172 17.7787 47.7012 17.888C48.0125 17.9752 48.3182 18.0825 48.6164 18.2091C48.4813 18.1493 48.6864 18.245 48.6947 18.2502C48.7847 18.2963 48.8747 18.339 48.9631 18.3868C49.16 18.4979 49.3509 18.6199 49.5348 18.7524C50.7292 19.6183 51.8394 20.5999 52.8503 21.6838C53.3206 22.1722 53.7657 22.6854 54.1838 23.2213C54.6022 23.768 55.5173 23.6638 55.9524 23.2213C56.064 23.1069 56.1874 23.0027 56.3091 22.8985C56.3724 22.8456 56.4391 22.7977 56.4991 22.743C56.4441 22.7943 56.2141 22.9634 56.3807 22.837L56.5291 22.7243C56.7325 22.5717 56.9408 22.4259 57.1542 22.2869C57.733 21.9044 58.336 21.5619 58.9594 21.2619L59.2062 21.1475C59.2428 21.1304 59.5762 20.9766 59.3845 21.0655C59.1928 21.1543 59.4862 21.0244 59.5395 21.0005L59.8962 20.8588C60.338 20.6879 60.7863 20.5375 61.2297 20.4026C61.7487 20.2488 62.2721 20.1173 62.8 20.008C63.0483 19.9567 63.3 19.9107 63.5467 19.8697C63.6934 19.844 63.8418 19.8218 63.9901 19.7996C63.7251 19.8389 64.2218 19.7722 64.2852 19.7654C65.5992 19.6188 66.9231 19.5874 68.2424 19.6715C69.619 19.7434 70.9858 19.9487 72.3246 20.2847C72.9347 20.4351 73.5398 20.611 74.1332 20.8194C74.4049 20.9134 74.6733 21.0125 74.94 21.1201C74.9883 21.1406 75.395 21.3131 75.1533 21.2072C75.2867 21.2653 75.4184 21.3251 75.55 21.3866C76.5041 21.8376 77.412 22.3847 78.2604 23.0198C78.5138 23.2111 78.1654 22.9361 78.3371 23.0796L78.6188 23.3136C78.8011 23.4708 78.9789 23.6314 79.1522 23.7954C79.4835 24.1126 79.7984 24.4473 80.0957 24.7981C80.219 24.945 80.3341 25.1022 80.4591 25.2491C80.2307 24.9809 80.4507 25.2406 80.5057 25.3158C80.5607 25.391 80.6441 25.5122 80.7108 25.6113C80.9341 25.9427 81.1425 26.2844 81.3325 26.6363C81.5225 26.9882 81.6759 27.3196 81.8326 27.6613C81.9559 27.9415 81.7342 27.3999 81.8409 27.6835C81.8709 27.7604 81.9009 27.8355 81.9293 27.9124C81.9909 28.0832 82.051 28.2541 82.106 28.4249C82.2104 28.7563 82.3004 29.0923 82.376 29.4329C82.4077 29.5849 82.4377 29.7369 82.4643 29.8907C82.476 29.9539 82.4843 30.0171 82.496 30.0803C82.5427 30.3434 82.466 29.7386 82.481 29.9624C82.496 30.1862 82.5143 30.3912 82.5127 30.6082C82.5127 30.7158 82.5127 30.8234 82.501 30.9293C82.491 31.0882 82.386 31.505 82.501 31.0045C82.4081 31.4798 82.2868 31.9488 82.1376 32.4088C82.0926 32.5318 81.9709 32.6872 82.171 32.3353C82.1442 32.3909 82.1202 32.4479 82.0993 32.5061C82.0426 32.6325 81.9826 32.7573 81.9176 32.882C81.7871 33.1352 81.6441 33.3815 81.4892 33.6199C81.4042 33.7498 81.3225 33.8779 81.2275 34.0043C81.1958 34.0487 81.0391 34.2606 81.1825 34.0675C81.3259 33.8745 81.1275 34.1359 81.0925 34.1803C80.8824 34.44 80.6602 34.6905 80.4257 34.932C80.1774 35.1951 79.9256 35.4444 79.6489 35.6887C79.5123 35.8117 79.3723 35.9347 79.2289 36.0543L78.9939 36.2473C78.9639 36.273 78.9338 36.2986 78.9022 36.3208C79.1989 36.1124 78.9655 36.2713 78.9022 36.3208C77.3417 37.4826 75.6654 38.4714 73.9015 39.271C73.6314 39.3974 73.3597 39.5188 73.0864 39.6384C73.2914 39.5478 72.9664 39.688 72.9064 39.7136C72.7397 39.782 72.5813 39.8485 72.4163 39.9152C71.824 40.1555 71.2267 40.3832 70.6244 40.5985C69.2559 41.0905 67.869 41.5279 66.4705 41.9208C63.4084 42.7852 60.303 43.4991 57.1909 44.1825C54.5122 44.7718 51.8201 45.2997 49.1081 45.6978L48.683 45.761L48.5463 45.7799L48.4097 45.7987C48.0896 45.842 47.7696 45.8829 47.4495 45.9217C46.8361 45.9968 46.2249 46.064 45.6159 46.1232C44.3858 46.2371 43.1523 46.3225 41.9154 46.3794C39.4111 46.4794 36.9034 46.4435 34.4027 46.2718C33.0692 46.183 31.7357 46.0584 30.4022 45.9063C29.6771 45.8243 28.952 45.7355 28.2352 45.6364L28.1219 45.621C28.2452 45.6364 27.9552 45.5971 27.9385 45.5954L27.4384 45.5253C27.0284 45.4661 26.6194 45.4045 26.2116 45.3408C21.0042 44.5396 15.7102 43.513 10.8095 41.4852L10.4761 41.3467H10.4961L10.3128 41.2665C10.0727 41.1588 9.83437 41.0494 9.596 40.935C9.14427 40.718 8.69588 40.4891 8.26249 40.2516C7.48233 39.8205 6.7321 39.3348 6.01716 38.7979L5.88881 38.6988C5.91048 38.7159 6.11717 38.8867 5.95215 38.7484L5.73713 38.5775C5.57045 38.4426 5.42041 38.3059 5.26706 38.1641C4.98126 37.9011 4.70867 37.6234 4.4503 37.3321C4.32028 37.1869 4.19859 37.0366 4.07524 36.8863C3.90855 36.6847 4.09191 36.917 4.07524 36.8863C4.01524 36.7992 3.95021 36.7155 3.8902 36.6266C3.68464 36.3316 3.49758 36.0235 3.33013 35.7041C3.25012 35.5538 3.17344 35.3983 3.10343 35.2429C3.08343 35.2002 3.06677 35.1592 3.04676 35.1165C2.97842 34.9696 3.02843 35.1797 3.09511 35.2344C3.0551 35.2019 3.0251 35.0635 3.00843 35.0105C2.88594 34.6792 2.78404 34.3403 2.70337 33.9958C2.61155 33.6708 2.39954 33.3953 2.11247 33.2281C1.82541 33.0609 1.48598 33.0151 1.1665 33.1006C0.849688 33.1958 0.581431 33.4136 0.418431 33.7079C0.255432 34.0021 0.210468 34.3498 0.293048 34.6774C1.1265 38.2136 3.92188 40.7385 6.92396 42.4229C11.2979 44.8761 16.3069 46.1113 21.1692 47.0543C26.8867 48.1647 32.7242 48.942 38.5483 48.9983C43.8457 49.0513 49.1114 48.4038 54.3088 47.3976C57.3659 46.8048 60.3996 46.0994 63.4251 45.358C66.4505 44.6165 69.4092 43.8203 72.3013 42.7014C75.9951 41.28 79.9107 39.4198 82.581 36.3379C84.2479 34.4109 85.3081 32.0193 84.9147 29.4124C84.3746 25.8642 82.1793 22.767 79.3839 20.6999C77.4236 19.2495 75.1016 18.3082 72.7547 17.7598C69.9119 17.0746 66.9754 16.8955 64.0735 17.2302C60.6597 17.6556 57.2392 18.8138 54.5522 21.0791C54.4305 21.1833 54.3088 21.2875 54.1954 21.402H55.964C54.7322 19.7927 53.2103 18.3885 51.6301 17.1533C50.9555 16.5997 50.2122 16.1401 49.4198 15.7867C48.7112 15.489 47.9719 15.2747 47.2162 15.1478C45.5876 14.8642 43.9341 14.8249 42.2855 14.8317C38.9134 14.8454 35.4912 15.1358 32.4158 16.6579C31.2124 17.2394 30.0851 17.9735 29.0603 18.8429C28.5403 19.2956 28.0485 19.7876 27.5518 20.266C26.7972 20.9926 26.0466 21.7226 25.2998 22.456C24.8098 22.9377 24.1913 23.4076 23.9313 24.067L25.7649 23.3017C23.6813 22.0272 21.631 20.6759 19.334 19.8371C18.1587 19.4059 16.9272 19.1566 15.6802 19.0975C14.5133 19.0428 13.3248 19.2153 12.1697 19.4049C7.88409 20.1122 3.43181 22.0631 1.35653 26.2143C0.0482347 28.8185 -0.325241 31.8111 0.30139 34.6689C0.453078 35.3437 1.20818 35.7417 1.83993 35.564C2.15413 35.4673 2.4198 35.2501 2.58159 34.9577C2.74338 34.6652 2.78879 34.32 2.70838 33.9941Z" fill="#A6A6A6"/>
<path d="M34.6839 27.8636C34.9741 27.939 35.2349 28.1035 35.4313 28.335C35.4348 28.3398 35.438 28.3447 35.4409 28.3496C35.4445 28.3535 35.448 28.3578 35.4513 28.3624C35.8813 28.9569 35.6563 29.8452 35.2346 30.3799C35.1766 30.4538 35.1079 30.5148 35.0396 30.5756C34.9783 30.63 34.9173 30.6842 34.8645 30.7472C34.7684 30.8625 34.6504 30.9567 34.5178 31.024C34.3824 31.089 34.2337 31.1197 34.0843 31.1135C33.9349 31.1072 33.7892 31.0642 33.6594 30.988C33.341 30.8345 33.0742 30.5879 32.8926 30.2791C32.7384 29.9798 32.6752 29.6401 32.7109 29.3036C32.7468 28.9893 32.8689 28.6918 33.063 28.4457C33.2571 28.1996 33.5153 28.0149 33.8077 27.913C34.0881 27.8054 34.3938 27.7882 34.6839 27.8636Z" fill="#A6A6A6"/>
<path d="M43.6715 29.333C43.6415 29.6625 43.51 29.9737 43.2961 30.2216C43.2826 30.2381 43.2678 30.2494 43.2525 30.2562C43.0045 30.5171 42.6759 30.683 42.3219 30.7251C41.9525 30.769 41.58 30.6752 41.2725 30.4608C41.0133 30.2923 40.8235 30.0321 40.7391 29.7296C40.6262 29.3935 40.6152 29.0302 40.7074 28.6875C40.8054 28.3989 40.9842 28.1464 41.2213 27.9611C41.4584 27.7758 41.7434 27.666 42.0409 27.6455C42.321 27.6282 42.6006 27.6879 42.8506 27.8186C43.1006 27.9493 43.312 28.146 43.4628 28.3886C43.6283 28.6727 43.7014 29.0035 43.6715 29.333Z" fill="#A6A6A6"/>
<path d="M37.1448 36.4569C38.5584 37.6015 40.7703 36.737 41.5704 35.2405C41.6633 35.0627 41.7965 34.9104 41.9588 34.7963C42.5872 34.3727 43.4657 34.7878 43.7307 35.4609C43.7979 35.6518 43.82 35.8564 43.7951 36.0577C43.7702 36.2591 43.699 36.4515 43.5874 36.6192C43.3739 36.9969 43.1152 37.3458 42.8173 37.6578C42.2201 38.2678 41.5026 38.74 40.7129 39.0429C39.9232 39.3458 39.0796 39.4722 38.2383 39.4139C37.4174 39.3607 36.6231 39.0951 35.9297 38.6418C35.5859 38.4101 35.2761 38.1294 35.0095 37.8082C34.7107 37.4728 34.476 37.0828 34.3178 36.6585C34.0711 35.9 34.6312 35.0988 35.3846 34.9894C35.5618 34.9615 35.743 34.9819 35.91 35.0484C36.0771 35.115 36.2241 35.2254 36.3364 35.3686C36.4133 35.4677 36.4723 35.5786 36.5315 35.6899C36.5774 35.7763 36.6235 35.863 36.6781 35.9444C36.8073 36.1386 36.9647 36.3114 37.1448 36.4569Z" fill="#A6A6A6"/>
<path d="M38.2371 15.5341C37.4037 10.9848 37.1153 8.23095 37.3653 3.60821C37.3537 3.35965 37.4209 3.11397 37.557 2.90786C37.7337 2.69603 38.0287 2.64649 38.2988 2.60891C41.9409 2.11349 44.5913 1.67951 48.2468 1.30539C48.6986 1.25926 49.2336 1.24736 49.5153 1.61294C49.7387 1.90165 49.7053 2.31331 49.657 2.67889C49.4892 3.98975 49.2825 5.29384 49.0369 6.59103C48.9836 6.87291 48.9202 7.17355 48.7202 7.37513C48.5084 7.55133 48.2501 7.65897 47.9784 7.68435C46.8883 7.88935 45.7848 8.00381 44.683 8.11827C41.8493 8.41039 40.6291 8.70246 37.802 8.99629" fill="#E8E8E8"/>
<path d="M39.4403 15.1944C39.2119 13.9353 38.9969 12.6729 38.8302 11.4036L38.8735 11.7453C38.6959 10.4229 38.5846 9.09201 38.5402 7.75796C38.5185 7.05754 38.5168 6.35883 38.5302 5.65842C38.5232 4.8838 38.5572 4.10943 38.6319 3.33857L38.5868 3.68024C38.6013 3.59217 38.6242 3.50573 38.6552 3.42224L38.5285 3.72804C38.5935 3.58795 38.6702 3.58458 38.4768 3.7725L38.3201 3.89545C38.355 3.87273 38.3919 3.85332 38.4302 3.83739L38.1318 3.96552C38.293 3.90506 38.461 3.86547 38.6319 3.84765L38.2985 3.89378C40.0787 3.6512 41.8556 3.39147 43.6325 3.14547L43.2992 3.1916C44.2282 3.06404 45.1572 2.94338 46.0862 2.8295C46.5763 2.77141 47.0647 2.71504 47.5547 2.65866C47.9952 2.58335 48.4422 2.55586 48.8883 2.57667L48.5549 2.53054C48.6659 2.54631 48.7748 2.57433 48.8799 2.6142L48.5799 2.48608C48.7049 2.54416 48.8249 2.69107 48.5549 2.43311C48.6399 2.52365 48.6116 2.4827 48.4715 2.31016C48.4942 2.34528 48.5138 2.38243 48.5299 2.42118L48.4049 2.11538C48.4346 2.19445 48.457 2.27628 48.4715 2.35971L48.4265 2.01804C48.4474 2.26548 48.4373 2.51461 48.3965 2.75943L48.4415 2.41776C48.3415 3.16943 48.2304 3.91998 48.1081 4.66937C48.0498 5.02983 47.9881 5.38855 47.9231 5.749C47.8803 6.09344 47.8027 6.43236 47.6914 6.76032L47.8181 6.45286C47.8014 6.49329 47.7814 6.53211 47.7581 6.56897C47.8965 6.39814 47.9248 6.36741 47.8364 6.46478C48.1248 6.21195 47.9398 6.38447 47.8364 6.43742L48.1348 6.3093C47.8871 6.3996 47.6306 6.46209 47.3697 6.49556C47.063 6.54852 46.7563 6.59466 46.4479 6.63737L46.7813 6.59124C45.5345 6.76207 44.281 6.86283 43.0308 7.02341C41.954 7.16178 40.8805 7.32581 39.8037 7.47443L40.1371 7.4283C39.3592 7.53422 38.5813 7.62816 37.8034 7.71016C37.4742 7.71997 37.1599 7.85306 36.9199 8.08428C36.6867 8.3259 36.5551 8.65153 36.5532 8.99141C36.5816 9.62691 37.1066 10.3444 37.8034 10.2727C39.437 10.1018 41.0605 9.85407 42.6874 9.63028L42.354 9.67641C44.0443 9.44408 45.7445 9.31427 47.4314 9.06314C48.4099 8.91794 49.485 8.76424 49.9784 7.74778C50.1661 7.30112 50.2912 6.82948 50.3501 6.34692C50.4301 5.90446 50.5052 5.46025 50.5752 5.01779C50.6452 4.57533 50.7118 4.12953 50.7752 3.68366C50.868 3.19799 50.9238 2.70562 50.9419 2.21106C50.9319 1.61144 50.7368 0.984474 50.2751 0.581308C49.8358 0.20317 49.2803 -0.0037417 48.7066 -0.00292729C48.3333 0.00162438 47.9607 0.0318363 47.5914 0.0875774C47.1764 0.131994 46.758 0.179881 46.3479 0.227714C45.5661 0.319964 44.7877 0.419003 44.0143 0.52492C42.159 0.772627 40.3071 1.04593 38.4535 1.30218L38.7869 1.25613C38.0651 1.35521 37.335 1.38077 36.7633 1.91035C36.1915 2.43993 36.1349 3.19503 36.0965 3.93474C36.0482 4.91703 36.0215 5.90107 36.0298 6.88336C36.0561 8.76154 36.2054 10.6358 36.4765 12.4935C36.6432 13.6227 36.8283 14.7485 37.0316 15.8709C37.1517 16.5303 37.9651 16.9658 38.5702 16.766C39.2586 16.5371 39.5703 15.8964 39.442 15.1892L39.4403 15.1944Z" fill="#A6A6A6"/>
</g>
<defs>
<clipPath id="clip0_5868_189900">
<rect width="85" height="49" fill="white"/>
</clipPath>
</defs>
</svg>
