<svg width="90" height="18" viewBox="0 0 90 18" fill="none" xmlns="http://www.w3.org/2000/svg">
<path d="M54.6193 5.66183V5.63496C54.634 5.57878 54.6486 5.51284 54.6535 5.44201C54.6658 5.27348 54.6438 5.0219 54.6095 4.90222V4.7972C54.6242 4.75812 54.6315 4.71415 54.6389 4.66775C54.6511 4.55784 54.6462 4.39908 54.634 4.27207C54.6364 4.22322 54.6413 4.17437 54.6438 4.12308C54.6462 4.084 54.6487 4.03759 54.6511 3.99119C54.6511 3.93501 54.6462 3.85685 54.6217 3.7909C54.5777 3.65413 54.475 3.54177 54.3674 3.48315C54.2818 3.41477 54.1669 3.3708 54.0495 3.36592C53.7536 3.39767 53.4527 3.42942 53.1348 3.45629C53.0419 3.46361 53.0003 3.44896 52.9856 3.43186L52.9465 3.43675L52.7998 3.46117L52.7362 3.47583L52.6995 3.48804C52.675 3.49781 52.6164 3.50758 52.5699 3.50758H52.4549C52.4305 3.51735 52.3938 3.52956 52.3498 3.53689C52.3522 3.53689 52.3522 3.53689 52.3547 3.53933H52.3449V3.19494C52.3449 3.19494 52.3449 3.21937 52.3449 3.22914C52.3473 3.29997 52.3522 3.37569 52.3596 3.43186C52.3645 3.46606 52.3718 3.4856 52.3767 3.51002C52.3889 3.40011 52.3987 3.29264 52.4085 3.19006V2.99222C52.4036 2.96535 52.4036 2.93604 52.4085 2.90673L52.4158 2.86521C52.4207 2.84079 52.4256 2.82369 52.4329 2.81148V2.80415C52.4329 2.77973 52.4329 2.75042 52.4378 2.71378L52.4525 2.57944V2.52571C52.4525 2.4964 52.4525 2.46221 52.4598 2.42557V2.32787C52.4598 2.28635 52.4549 2.24971 52.4501 2.21552V2.19598C52.4378 2.16423 52.4354 2.12271 52.4427 2.0763C52.4427 2.0592 52.4476 2.0421 52.4525 2.02989C52.4403 1.99081 52.4378 1.91998 52.4525 1.86136C52.4598 1.8345 52.4623 1.82961 52.4647 1.80274V1.73191C52.4647 1.69528 52.4549 1.62444 52.4476 1.59025C52.4329 1.51942 52.4403 1.4437 52.4623 1.3973C52.477 1.36554 52.4941 1.35089 52.5112 1.34845L52.5161 1.2019C52.5136 1.17015 52.5088 1.13839 52.5039 1.10909C52.4941 1.05535 52.5039 1.01139 52.5161 0.979635L52.5063 0.930786C52.5112 0.874609 52.5136 0.81599 52.5112 0.759814C52.5112 0.701195 52.5112 0.659673 52.4965 0.586399C52.4965 0.405658 52.3718 0.173624 52.1321 0.0759258C52.0906 0.0588286 52.0441 0.0417314 51.9927 0.0368465C51.8925 0.0124219 51.8411 0.00753696 51.7628 0.00265205C51.5672 -0.00956024 51.2884 0.0221917 51.1539 0.061271L51.0414 0.0685984C50.9729 0.061271 50.902 0.0588286 50.8409 0.061271C50.7332 0.0637135 50.6379 0.0734833 50.5572 0.0856956C50.4789 0.0808107 50.4031 0.0808107 50.3297 0.0856956C50.2833 0.066156 50.1463 0.0441738 50.0142 0.0954654C49.8797 0.13943 49.7526 0.254225 49.6914 0.391003C49.6694 0.430082 49.6498 0.474046 49.6376 0.520453C49.6254 0.56686 49.6181 0.632806 49.6205 0.674328L49.6254 0.794008C49.6303 0.874609 49.6401 0.955211 49.6523 1.0236V1.05779C49.6572 1.21655 49.6719 1.35333 49.6963 1.4608C49.6547 1.5585 49.6205 1.70505 49.6132 1.8638C49.6058 2.01524 49.6254 2.21308 49.6547 2.3523C49.6547 2.38405 49.6523 2.41336 49.6547 2.44511C49.6547 2.56235 49.6792 2.69424 49.7036 2.78705C49.7036 2.84323 49.7061 2.89941 49.711 2.95558C49.6963 3.00932 49.6865 3.07282 49.6816 3.13877C49.6767 3.24379 49.689 3.37813 49.7085 3.47583C49.7036 3.53933 49.7036 3.60528 49.7085 3.66634C49.6645 3.81289 49.6278 4.10354 49.645 4.31115C49.6474 4.34046 49.6523 4.36977 49.6572 4.39663C49.6572 4.5212 49.667 4.65553 49.6841 4.74346C49.6792 4.77277 49.6767 4.80452 49.6767 4.83383V4.87536C49.6694 4.9242 49.6621 4.9755 49.6596 5.0219C49.6498 5.16112 49.6523 5.29546 49.6596 5.41758C49.645 5.48353 49.6352 5.55436 49.6303 5.63007C49.6229 5.79372 49.6474 6.01598 49.6816 6.14299C49.6767 6.23825 49.6792 6.34327 49.6865 6.43853C49.6767 6.53378 49.6694 6.64369 49.6719 6.74628C49.6498 6.8684 49.6376 7.01251 49.6401 7.14196C49.6156 7.2885 49.5985 7.46192 49.6083 7.61091C49.6181 7.76234 49.6523 7.91866 49.6939 8.01636C49.689 8.03834 49.6865 8.06032 49.6841 8.08475C49.6767 8.17756 49.6841 8.30457 49.6963 8.40715L49.6865 8.5195C49.6816 8.57324 49.6767 8.6343 49.6743 8.70269C49.6352 8.86877 49.6058 9.11791 49.6205 9.31086C49.6254 9.37681 49.6352 9.44275 49.6498 9.50381C49.6572 9.61617 49.6572 9.71142 49.689 9.81645C49.6939 9.8311 49.6988 9.84087 49.7036 9.85308C49.7134 9.89705 49.7281 9.93857 49.7501 9.98009C49.7795 10.0436 49.8308 10.1095 49.8944 10.1584C49.9751 10.2341 50.0827 10.2854 50.1952 10.2952C50.2564 10.3001 50.3004 10.2952 50.3371 10.2952L50.4569 10.283C50.5669 10.2878 50.677 10.283 50.7724 10.2732L50.7944 10.2781C50.8971 10.2976 51.0634 10.3098 51.215 10.3074C51.3667 10.3342 51.5599 10.3489 51.709 10.3342C51.7604 10.3294 51.8069 10.3196 51.8533 10.3098C51.9022 10.3147 52.005 10.3147 52.0808 10.2878C52.1615 10.2634 52.2324 10.2195 52.2838 10.1682C52.318 10.1462 52.3498 10.1218 52.3767 10.0924C52.4354 10.0314 52.4794 9.95323 52.5039 9.87018C52.5161 9.82866 52.5234 9.7847 52.5259 9.74317C52.5259 9.69921 52.5259 9.67723 52.5259 9.64548C52.5259 9.5258 52.5136 9.411 52.4965 9.30842C52.4965 9.23026 52.4965 9.15454 52.4892 9.09348C52.5039 9.04219 52.5136 8.98113 52.5185 8.91762C52.5259 8.82237 52.5185 8.70269 52.5063 8.59766V8.56591C52.5136 8.43157 52.5063 8.30945 52.4941 8.19954C52.5259 8.02613 52.5405 7.76723 52.5185 7.59625L52.5136 7.5645C52.5136 7.49611 52.5087 7.42772 52.5014 7.37155L52.5136 7.23233C52.5259 7.12242 52.5259 6.97343 52.5185 6.83176C52.5185 6.76093 52.5185 6.68277 52.5136 6.61194C52.521 6.54844 52.5234 6.48249 52.5259 6.42143C52.5821 6.4141 52.6335 6.40433 52.6799 6.39456H52.7215C52.7655 6.39456 52.8071 6.38968 52.8462 6.38479C52.9465 6.4141 53.0835 6.43609 53.2131 6.43609C53.2791 6.43609 53.35 6.42876 53.4161 6.41899C53.5481 6.42632 53.6826 6.42143 53.8098 6.40922C53.8318 6.41899 53.8563 6.42632 53.8856 6.43364C53.9272 6.44341 53.9761 6.45074 54.0372 6.45807C54.1204 6.4654 54.2158 6.45074 54.3038 6.41166C54.4823 6.33839 54.612 6.16497 54.6413 6.02575C54.6633 5.94515 54.6609 5.85234 54.6511 5.80105C54.6413 5.7522 54.6315 5.70823 54.6193 5.66915V5.66183Z" fill="#FF6E40"/>
<path d="M40.0486 9.85923C40.1782 9.85923 40.3103 9.85923 40.4106 9.8519C40.4986 9.86655 40.5989 9.87632 40.7089 9.88121C40.8679 9.88854 41.0709 9.88121 41.247 9.869H41.3008C41.5258 9.87632 41.7336 9.869 41.9171 9.85678C42.2081 9.88854 42.6459 9.90319 42.932 9.88121L42.9858 9.87632C43.1032 9.87632 43.2157 9.87144 43.3111 9.86411L43.5458 9.87632C43.7317 9.88854 43.9812 9.88854 44.2184 9.88121C44.3382 9.88121 44.4678 9.88121 44.5877 9.87632C44.7295 9.88609 44.8787 9.89098 45.0059 9.88854C45.292 9.88609 45.5366 9.869 45.7298 9.84213H45.8007L46.011 9.83236C46.1798 9.86167 46.4096 9.88365 46.6297 9.88365C46.686 9.88365 46.7398 9.88365 46.8034 9.87632C46.8694 9.87144 46.9354 9.86167 46.9966 9.84701C47.246 9.81526 47.4881 9.69314 47.6569 9.52217C47.6936 9.50263 47.7352 9.47576 47.7767 9.43912C47.8966 9.33898 48.0506 9.13626 48.1167 8.88713C48.1534 8.76745 48.1656 8.63067 48.1656 8.51587C48.1656 8.41329 48.1607 8.31559 48.1558 8.23255C48.1436 8.03227 48.124 7.86862 48.102 7.73673V7.69277C48.1167 7.59995 48.1313 7.49004 48.1362 7.36792C48.1485 7.08704 48.1264 6.66205 48.0922 6.46177V6.28591C48.1069 6.22241 48.1142 6.14913 48.1216 6.06609C48.1338 5.88046 48.1289 5.61423 48.1167 5.40174C48.1191 5.32114 48.124 5.23809 48.1265 5.15261C48.1411 4.88394 48.1362 4.4907 48.1142 4.19028C48.124 4.0535 48.1289 3.91428 48.1313 3.77262C48.0971 3.25726 48.0726 2.71504 48.0482 2.18014C48.0409 2.02382 48.058 1.93833 48.08 1.89193L48.0751 1.82598C48.0678 1.74294 48.0604 1.66478 48.0506 1.59395L48.036 1.49869L48.0237 1.45228C48.014 1.42053 48.0017 1.33505 48.0017 1.25445V1.05905C47.9895 1.03218 47.9748 0.985775 47.965 0.927156C47.965 0.934484 47.9626 0.939369 47.9601 0.946696V0.927156C47.9601 0.761069 47.8428 0.619407 47.6862 0.585212C47.7938 0.604752 47.8941 0.678026 47.943 0.763512C47.9773 0.822131 47.9968 0.868537 48.0042 0.927156C48.0237 0.743972 47.8868 0.538806 47.6765 0.497284C47.6202 0.492399 47.5713 0.497284 47.5297 0.497284H47.317C47.268 0.502169 47.2191 0.502169 47.1702 0.497284L47.1066 0.489956C47.0724 0.485071 47.0479 0.477744 47.0333 0.470417C47.0284 0.470417 47.0284 0.467974 47.0259 0.465532C46.9795 0.470417 46.9257 0.470417 46.8694 0.465532C46.796 0.460647 46.7227 0.455762 46.6518 0.450877H46.5613C46.5075 0.450877 46.4463 0.45332 46.3901 0.445992C46.3338 0.445992 46.2776 0.445992 46.2189 0.445992C46.1455 0.448435 46.077 0.45332 46.0134 0.460647H46.0012L45.9792 0.465532C45.945 0.470417 45.9181 0.472859 45.8741 0.475302C45.83 0.475302 45.7811 0.485071 45.7322 0.502169C45.6955 0.514381 45.6662 0.526593 45.6417 0.536363C45.5586 0.599867 45.4681 0.73176 45.4363 0.846555C45.4192 0.897847 45.4216 0.919829 45.4167 0.961351V1.08592C45.4167 1.14942 45.429 1.27887 45.4363 1.33993C45.4534 1.46938 45.4461 1.59395 45.4216 1.66966C45.4069 1.71851 45.3898 1.73805 45.3727 1.73805L45.3678 1.99207L45.38 2.15571C45.3898 2.25097 45.38 2.32668 45.3678 2.38042L45.3776 2.46591C45.3703 2.63688 45.3703 2.81273 45.3776 2.95928C45.2088 2.95195 45.023 2.94707 44.8224 2.94463H44.6488C44.5436 2.92753 44.4287 2.91776 44.3064 2.91287C44.2502 2.91287 44.189 2.91043 44.1254 2.91287C44.1132 2.74679 44.0985 2.59291 44.079 2.49033L44.0716 2.30226C44.079 2.18502 44.0814 2.06778 44.079 1.9652C44.0765 1.78446 44.0668 1.6257 44.0545 1.48892C44.0594 1.35947 44.0594 1.23002 44.0545 1.1079C44.0643 1.05661 44.0716 0.995545 44.079 0.919829C44.0863 0.817246 44.0594 0.695123 43.9836 0.594982C43.9102 0.492399 43.7904 0.41424 43.6534 0.389816C43.5752 0.377603 43.5336 0.382488 43.492 0.380046H43.36C43.3037 0.375161 43.2524 0.372718 43.1986 0.370276C42.9662 0.362949 42.6556 0.375161 42.4233 0.399585H42.3646L42.1714 0.40447C42.1029 0.40447 41.9978 0.42401 41.9293 0.463089C41.7801 0.541248 41.6994 0.680468 41.6798 0.802591C41.6309 0.927156 41.6285 1.01997 41.6089 1.13477C41.5943 1.24956 41.5845 1.37901 41.5796 1.5109C41.5722 1.76736 41.5918 2.09465 41.6212 2.32913V2.483C41.6212 2.65886 41.6383 2.85426 41.6603 3.00569H41.5845C41.494 2.99348 41.3888 2.98371 41.2763 2.98126C41.1027 2.97638 40.8728 2.98859 40.7089 3.00813C40.6013 3.00325 40.4937 3.00325 40.3886 3.00813C40.3715 3.00569 40.3519 3.00325 40.3348 3.0008C40.3543 2.76633 40.3666 2.49277 40.3543 2.27051L40.3421 2.1264C40.3421 1.91635 40.3323 1.69165 40.3152 1.5451C40.3201 1.49625 40.3225 1.44496 40.3225 1.39122V1.32039C40.3299 1.23735 40.3372 1.15431 40.3397 1.0737V0.985775C40.3421 0.956466 40.3445 0.932041 40.3397 0.883192C40.3323 0.797706 40.303 0.714663 40.259 0.643831C40.1685 0.502169 40.0095 0.416683 39.8579 0.411798C39.7209 0.392258 39.6207 0.384931 39.4861 0.380046C39.2098 0.372718 38.8381 0.397143 38.6253 0.431337C38.4663 0.426452 38.2902 0.428895 38.1288 0.436222C38.0432 0.42401 37.8941 0.448435 37.7962 0.524151C37.6911 0.597425 37.6177 0.714663 37.5957 0.839228C37.5859 0.873422 37.581 0.919829 37.5786 0.946696L37.5712 1.0273C37.5688 1.08347 37.5639 1.13965 37.5615 1.19583C37.5566 1.31062 37.5541 1.42542 37.5541 1.53289C37.5297 1.77957 37.5125 2.07023 37.5223 2.31936C37.5321 2.57337 37.5663 2.83716 37.6079 3.0008L37.5981 3.11804C37.5908 3.27436 37.5981 3.48685 37.6079 3.66027L37.5981 3.85078C37.5933 3.93871 37.5884 4.04618 37.5859 4.15853C37.5468 4.43697 37.5174 4.85463 37.5321 5.18192C37.537 5.29427 37.5468 5.40418 37.5615 5.50676C37.5663 5.69239 37.5761 5.87313 37.5933 5.99037L37.6006 6.03922V6.21019C37.5957 6.29812 37.5981 6.4007 37.6006 6.50329C37.5884 6.78173 37.5933 7.07482 37.6128 7.33372C37.6079 7.51935 37.6128 7.70009 37.6226 7.86374L37.6177 7.90282C37.5981 8.07379 37.5859 8.35467 37.5884 8.60625C37.5835 8.67219 37.5737 8.73325 37.5737 8.81141C37.5737 8.89446 37.5761 8.97994 37.5981 9.06543C37.6348 9.23396 37.7204 9.39027 37.8231 9.49774C37.8916 9.57102 37.9699 9.62963 38.0481 9.67116C38.2316 9.81526 38.503 9.88609 38.7036 9.86655L38.8527 9.88121C39.2734 9.90808 39.6989 9.90075 40.0437 9.869L40.0486 9.85923ZM39.7772 4.80578C39.7723 4.8302 39.7747 4.85951 39.7821 4.87905C39.787 4.89371 39.7967 4.90348 39.8041 4.91325C39.8187 4.87905 39.8359 4.85463 39.8554 4.8302C39.8554 4.82288 39.8554 4.81555 39.8554 4.80822L39.8603 4.79601L39.8677 4.77891C39.8677 4.77891 39.8726 4.76182 39.8799 4.75693H39.8921C39.8921 4.75693 39.9068 4.75693 39.9141 4.75693H39.919C39.919 4.75693 39.9239 4.74472 39.9312 4.74228L39.9606 4.73739C39.9606 4.73739 39.9679 4.73739 39.9704 4.73495C39.9728 4.72762 39.9802 4.72518 39.9875 4.73006L40.0022 4.72518C40.0022 4.72518 40.0119 4.71541 40.0242 4.71052H40.0266L40.0315 4.70564C40.0462 4.69587 40.0609 4.69343 40.078 4.69831C40.0853 4.69831 40.0902 4.7032 40.0927 4.70808C40.1098 4.69587 40.1367 4.69098 40.1538 4.70808C40.1636 4.71541 40.1636 4.71785 40.1734 4.72029C40.1758 4.72029 40.1929 4.72029 40.2003 4.72029C40.2149 4.72029 40.2418 4.70808 40.2541 4.70075C40.281 4.68366 40.3079 4.69098 40.325 4.71541C40.3348 4.73006 40.3397 4.74716 40.3397 4.76426L40.3935 4.76914C40.3935 4.76914 40.4179 4.76182 40.4277 4.75693C40.4473 4.74716 40.4644 4.75693 40.4766 4.76914L40.4937 4.75937C40.5353 4.7667 40.5818 4.7667 40.616 4.75449C40.6649 4.76914 40.7236 4.77647 40.7872 4.78135C40.7994 4.78135 40.8117 4.7838 40.8239 4.7838C40.8459 4.79845 40.8704 4.80822 40.8973 4.81311C40.9682 4.82532 41.0684 4.79357 41.1149 4.75449C41.1296 4.75449 41.1418 4.7496 41.154 4.74716C41.1785 4.75449 41.2054 4.75693 41.225 4.75449C41.2641 4.75205 41.2983 4.74228 41.3277 4.73006C41.3546 4.73495 41.3839 4.73495 41.4084 4.73006C41.4524 4.7667 41.5356 4.79357 41.6114 4.79357C41.6236 4.79845 41.6334 4.80089 41.6456 4.80334C41.6578 4.80334 41.675 4.80578 41.6823 4.80578L41.6872 4.80089C41.6872 4.80089 41.6994 4.78868 41.7116 4.7838H41.7141L41.7899 4.81066C41.763 4.84974 41.7361 4.87905 41.7312 4.90348C41.7263 4.93035 41.7434 5.02072 41.7728 5.06468C41.7728 5.07689 41.7703 5.08666 41.7728 5.09887C41.7728 5.1404 41.7972 5.18925 41.8217 5.221C41.8217 5.24054 41.8241 5.26252 41.829 5.28206C41.8144 5.3016 41.8046 5.32358 41.7997 5.34801C41.7948 5.38464 41.807 5.43349 41.8266 5.46769C41.8217 5.48967 41.8217 5.51409 41.8266 5.53607C41.7826 5.58737 41.7459 5.69239 41.763 5.76811C41.7654 5.77788 41.7703 5.79009 41.7752 5.79986C41.7752 5.84382 41.785 5.89267 41.8021 5.92443C41.7972 5.9342 41.7948 5.94641 41.7948 5.95618V5.97083C41.7875 5.98793 41.7801 6.00747 41.7777 6.02457C41.7679 6.07342 41.7703 6.12226 41.7777 6.16623C41.763 6.19065 41.7532 6.21508 41.7483 6.24194C41.741 6.30056 41.7654 6.38117 41.7997 6.42513C41.7948 6.45932 41.7972 6.49596 41.8046 6.53016C41.7948 6.56435 41.7875 6.60343 41.7899 6.64007C41.7679 6.68403 41.7557 6.73532 41.7581 6.78173C41.7337 6.83546 41.7165 6.89652 41.7263 6.95026C41.7361 7.00399 41.7703 7.06017 41.8119 7.09436C41.807 7.10169 41.8046 7.11146 41.8021 7.11879C41.7948 7.15298 41.8021 7.19695 41.8119 7.23358C41.807 7.24091 41.8046 7.25068 41.7997 7.25801C41.7923 7.26778 41.7875 7.27999 41.7801 7.2922C41.7312 7.31663 41.6921 7.31663 41.6921 7.33128V7.36303C41.6921 7.36303 41.6872 7.37036 41.6823 7.37525C41.6676 7.38013 41.6505 7.38746 41.6383 7.39479L41.6285 7.40211H41.5918C41.5722 7.39723 41.5502 7.39967 41.5282 7.40211C41.4695 7.3899 41.4059 7.39479 41.3497 7.41433C41.3106 7.40944 41.2714 7.41432 41.2372 7.42409L41.2299 7.41921C41.1932 7.39967 41.132 7.38746 41.0807 7.3899C41.0269 7.36303 40.9559 7.34838 40.9046 7.36303C40.8875 7.36792 40.8704 7.37769 40.8532 7.38746C40.8117 7.38013 40.7627 7.38257 40.7236 7.39234C40.7138 7.38746 40.7016 7.38257 40.6918 7.37769C40.6013 7.35082 40.5109 7.35815 40.4375 7.3899C40.4106 7.3899 40.3812 7.3899 40.3592 7.39723C40.3397 7.38257 40.3201 7.3728 40.2956 7.36792C40.2614 7.36059 40.2174 7.36792 40.1807 7.38013H40.1685C40.1196 7.3728 40.0755 7.38013 40.0364 7.39234C39.9753 7.36059 39.8799 7.34594 39.8187 7.36792L39.8065 7.3728C39.7943 7.3728 39.7821 7.3728 39.7698 7.37769C39.7649 7.37769 39.7625 7.38257 39.7576 7.38502C39.7527 7.38013 39.7503 7.37525 39.7454 7.37036C39.738 7.35571 39.7283 7.34838 39.7087 7.33372C39.7038 7.32395 39.6965 7.31418 39.6867 7.30441C39.6867 7.28732 39.6891 7.27022 39.6867 7.25801C39.6842 7.24824 39.6818 7.23603 39.6769 7.22626V7.24335C39.672 7.20672 39.6622 7.17496 39.6476 7.14565V7.131C39.6476 7.1139 39.6476 7.09925 39.6476 7.08459C39.6793 7.0504 39.7087 7.00399 39.7111 6.95759C39.7111 6.93316 39.7111 6.90874 39.7014 6.88431C39.7136 6.8379 39.7136 6.78906 39.7062 6.74265C39.716 6.73532 39.7258 6.72799 39.7332 6.71822C39.7772 6.66449 39.8016 6.54481 39.787 6.47154C39.7772 6.42757 39.7625 6.39093 39.7429 6.36163V6.35186C39.7625 6.33232 39.7772 6.31033 39.7845 6.28591C39.8041 6.22729 39.7894 6.13448 39.7625 6.09051V6.07586L39.7698 6.05143C39.7821 6.03922 39.7943 6.02457 39.7992 6.00747C39.8163 5.96839 39.8163 5.91221 39.809 5.86581L39.8261 5.81451C39.8456 5.75834 39.8505 5.67529 39.8359 5.60935C39.8481 5.58004 39.8554 5.55073 39.8603 5.52142C39.8383 5.40907 39.8261 5.29183 39.8139 5.17703C39.8114 5.14284 39.831 5.12574 39.8505 5.11841L39.8457 5.10376C39.8408 5.08422 39.8334 5.06957 39.8261 5.05247C39.8212 5.04514 39.8187 5.03781 39.8139 5.03049L39.8016 5.02072C39.8016 5.02072 39.7821 4.99385 39.7845 4.97675L39.7894 4.93523C39.7894 4.93523 39.7625 4.91813 39.7552 4.90592C39.7552 4.90592 39.7527 4.90592 39.7503 4.90836C39.7503 4.86684 39.7576 4.83265 39.7674 4.79845L39.7772 4.80578ZM39.7772 4.79601C39.7772 4.79601 39.7772 4.78868 39.7796 4.78624C39.7796 4.78868 39.7796 4.79357 39.7772 4.79601ZM43.9591 7.44608C43.9591 7.44608 43.9469 7.44363 43.9396 7.44119L43.9298 7.43386L43.9151 7.42165C43.9151 7.42165 43.9029 7.41188 43.9005 7.40455V7.39234C43.9005 7.39234 43.9053 7.37769 43.9102 7.3728H43.9127C43.9127 7.3728 43.9005 7.36059 43.9005 7.35082V7.30441C43.9005 7.30441 43.8907 7.28976 43.8956 7.27999L43.8907 7.25801C43.8907 7.25801 43.8833 7.23847 43.876 7.2287V7.22137C43.8638 7.20672 43.8613 7.19206 43.8662 7.17741C43.8662 7.17008 43.8711 7.16519 43.876 7.16275C43.8638 7.14565 43.8589 7.11879 43.876 7.10169C43.8833 7.09192 43.8858 7.09192 43.8882 7.08215C43.8882 7.07971 43.8882 7.06261 43.8882 7.05528C43.8882 7.04063 43.876 7.01376 43.8687 7.00155C43.8515 6.97468 43.8589 6.94782 43.8833 6.93072C43.898 6.92095 43.9151 6.91606 43.9322 6.91606L43.9371 6.86233C43.9371 6.86233 43.9298 6.8379 43.9249 6.82813C43.9151 6.8086 43.9249 6.7915 43.9371 6.77929L43.9274 6.76219C43.9347 6.72067 43.9347 6.67426 43.9225 6.64007C43.9371 6.59122 43.9445 6.5326 43.9494 6.46909C43.9494 6.45688 43.9518 6.44467 43.9518 6.43246C43.9665 6.41047 43.9763 6.38605 43.9812 6.35918C43.9934 6.28835 43.9616 6.19065 43.9225 6.1418C43.9225 6.12715 43.9176 6.11494 43.9151 6.10273C43.9225 6.0783 43.9249 6.05388 43.9225 6.03189C43.92 5.99281 43.9102 5.96106 43.898 5.93175C43.9029 5.90489 43.9029 5.87802 43.898 5.85115C43.9347 5.80719 43.9616 5.72414 43.9616 5.65087C43.9665 5.63866 43.9689 5.62889 43.9714 5.61668C43.9787 5.56783 43.9665 5.50188 43.942 5.45303V5.44082C43.9371 5.38464 43.9225 5.33579 43.898 5.29671C43.9396 5.26252 43.9738 5.20879 43.9812 5.15261C43.9885 5.09887 43.9689 5.02804 43.9396 4.97919C43.9396 4.96698 43.942 4.95721 43.9396 4.94744C43.9371 4.89859 43.9176 4.89127 43.898 4.85707C43.9005 4.84486 43.9029 4.83265 43.9029 4.81799C43.9225 4.81311 43.9371 4.80578 43.9469 4.79845C43.9616 4.78624 43.9689 4.76426 43.9763 4.73739C43.9885 4.73495 43.9983 4.73251 44.0081 4.72762C44.0154 4.73739 44.0227 4.74716 44.0301 4.75693C44.0472 4.7667 44.0668 4.77403 44.0888 4.78135C44.1303 4.79357 44.1744 4.79845 44.2135 4.78868C44.2233 4.78624 44.2331 4.78135 44.2453 4.77647C44.2893 4.77647 44.3382 4.7667 44.37 4.7496C44.3798 4.75449 44.392 4.75693 44.4018 4.75693H44.4165C44.4336 4.76426 44.4507 4.77158 44.4678 4.77403C44.5167 4.7838 44.5657 4.78135 44.6097 4.77403C44.6317 4.78868 44.6586 4.79845 44.6855 4.80334C44.7442 4.81066 44.8224 4.78624 44.8689 4.75205C44.9031 4.75693 44.9398 4.75449 44.9741 4.74716C45.0083 4.75693 45.0474 4.76426 45.0841 4.76182C45.1281 4.7838 45.1795 4.79601 45.226 4.79357C45.2798 4.81799 45.3409 4.83509 45.3923 4.82532C45.4461 4.81555 45.5023 4.78135 45.5366 4.73983C45.5439 4.74472 45.5537 4.74716 45.561 4.7496C45.5928 4.75693 45.6417 4.7496 45.676 4.73983C45.6809 4.74472 45.6857 4.74716 45.6906 4.75205C45.6955 4.75937 45.7004 4.76426 45.7077 4.76914C45.7077 4.81555 45.6955 4.84486 45.72 4.8644C45.7273 4.87173 45.7395 4.87905 45.7567 4.88638C45.7616 4.89615 45.7664 4.90592 45.7713 4.91813V4.93523C45.7787 4.94988 45.786 4.96454 45.7958 4.97431L45.8056 4.98408V5.02072C45.8056 5.04026 45.8105 5.06224 45.8154 5.08178C45.808 5.14284 45.8202 5.2039 45.8471 5.25519C45.8471 5.29427 45.8545 5.33335 45.8692 5.3651V5.37243C45.8496 5.41151 45.8447 5.47013 45.8545 5.52386C45.8349 5.58004 45.8276 5.65087 45.8471 5.70216C45.8545 5.71926 45.8643 5.73636 45.8765 5.75101C45.8765 5.79497 45.8814 5.84138 45.8961 5.87802C45.8912 5.88779 45.8887 5.9 45.8863 5.90977C45.8667 6.00014 45.8863 6.09051 45.9254 6.1589C45.9254 6.18577 45.9327 6.21264 45.9401 6.23462C45.9279 6.25416 45.9205 6.27614 45.9181 6.30056C45.9156 6.33476 45.9254 6.37628 45.9425 6.41292V6.42513C45.9425 6.47398 45.9523 6.5155 45.9694 6.55458C45.945 6.61808 45.9376 6.71334 45.9694 6.77196L45.9768 6.78173C45.9817 6.80615 45.9865 6.83058 45.9963 6.85012L45.989 6.90141C45.9817 6.94293 45.9865 6.99422 45.9988 7.04307C45.9988 7.06994 46.0037 7.09681 46.011 7.12123C46.0061 7.15298 46.0037 7.18473 46.0061 7.2116C46.0061 7.22626 46.011 7.24091 46.0159 7.25556V7.23847C46.0232 7.26045 46.033 7.28243 46.0452 7.30686V7.31663C46.0452 7.31663 46.0404 7.33617 46.0404 7.34594C46.0037 7.35326 45.9743 7.35571 45.9621 7.36548C45.9572 7.37036 45.9523 7.38013 45.9499 7.39234C45.9425 7.39234 45.9352 7.39234 45.9279 7.39234C45.9181 7.39479 45.8863 7.39723 45.8667 7.40455C45.8594 7.39479 45.8496 7.38746 45.8398 7.38013C45.7811 7.34105 45.6613 7.33128 45.5904 7.35326C45.5488 7.36548 45.5121 7.38502 45.4852 7.407H45.4754C45.4559 7.39234 45.4314 7.37769 45.4069 7.3728C45.3458 7.36059 45.2578 7.38257 45.2137 7.41677H45.1771C45.1624 7.40211 45.1477 7.39479 45.1306 7.38746C45.0915 7.37525 45.0352 7.38013 44.9887 7.39234L44.9349 7.38257C44.8787 7.36792 44.7931 7.3728 44.7295 7.39479C44.7002 7.38502 44.6708 7.38013 44.6415 7.37769C44.5314 7.41188 44.4165 7.43631 44.304 7.46073C44.2722 7.46806 44.2526 7.45096 44.2428 7.42898L44.2282 7.43386C44.211 7.44119 44.1939 7.44852 44.1792 7.45829C44.1719 7.46317 44.1646 7.46806 44.1597 7.47294L44.1499 7.48516C44.1499 7.48516 44.1254 7.50714 44.1083 7.50714H44.0668C44.0619 7.51935 44.0521 7.53401 44.0374 7.54378C44.0374 7.54378 44.0374 7.54622 44.0399 7.54866H44.0374C43.9983 7.54866 43.964 7.53889 43.9298 7.51935C43.9543 7.52912 43.9836 7.53156 44.0056 7.52424C44.0178 7.52179 44.0276 7.50958 44.0374 7.50225C44.0105 7.4876 43.9885 7.46806 43.9738 7.44608H43.9591ZM47.6544 0.585212C47.6373 0.58277 47.6178 0.580327 47.6006 0.580327H47.6251C47.6251 0.580327 47.6447 0.585212 47.6544 0.585212Z" fill="#FF6E40"/>
<path d="M53.0816 13.671C53.0449 13.5685 53.0009 13.483 52.9495 13.4048C52.9349 13.2631 52.8762 13.0971 52.8052 12.9432C52.7148 12.8015 52.6243 12.6599 52.5093 12.5939L52.4898 12.5695C52.436 12.5011 52.3699 12.4303 52.3015 12.3643C52.2305 12.3033 52.1474 12.252 52.074 12.208C52.0496 12.1592 52.0153 12.1103 51.9713 12.059C51.9248 12.0126 51.8686 11.9711 51.8026 11.9296C51.7659 11.9076 51.7292 11.888 51.6925 11.8709C51.5751 11.7513 51.4088 11.6926 51.2352 11.6218C51.0444 11.4118 50.5626 11.1651 50.2569 11.1895C50.1004 11.1406 49.939 11.1284 49.7898 11.1309L49.7409 11.1162C49.6798 11.1016 49.6137 11.0894 49.5477 11.082C49.4621 11.0429 49.3643 11.0234 49.264 11.0039L49.2396 10.9892L49.2249 10.9819C49.176 11.0039 49.1124 11.0063 49.0317 10.9819C48.8336 10.9159 48.5719 10.8891 48.3225 10.8866C48.073 10.8769 47.8358 10.9062 47.6768 10.9575C47.6279 10.9721 47.5839 10.9721 47.5252 10.9599C47.376 10.9306 47.1853 10.8964 47.0385 10.933C46.9603 10.9501 46.926 10.9892 46.8478 11.0039C46.816 11.0088 46.7768 11.0112 46.7377 11.0112C46.5763 11.0088 46.41 11.0063 46.2388 11.0063H46.2266C46.207 10.9941 46.1875 10.9794 46.1801 10.9672C46.1899 10.9794 46.1752 10.9623 46.1385 10.9623C46.0994 10.9599 46.0627 10.9623 46.0236 10.9623C45.9209 10.9648 45.8231 10.977 45.7252 10.9892C45.6372 10.999 45.5809 10.9868 45.5394 10.955C45.4758 10.9062 45.2483 10.9208 45.1334 10.9233C44.9304 10.9233 44.7397 10.894 44.5391 10.8866C44.0671 10.8817 43.6073 10.9526 43.172 11.1065C43.0228 11.1529 42.9275 11.0991 42.9079 11.0234C42.7294 11.0429 42.5435 11.0918 42.4261 11.1822C42.4139 11.1919 42.4017 11.2017 42.3919 11.2115C42.3479 11.2237 42.3038 11.2408 42.2598 11.2579C42.1498 11.253 41.9981 11.2677 41.849 11.3043C41.6973 11.3409 41.553 11.4166 41.4503 11.4924C41.3916 11.4924 41.328 11.4924 41.2596 11.4997C41.1935 11.5119 41.1226 11.5339 41.0492 11.5583C40.9074 11.612 40.7558 11.6829 40.6408 11.8074C40.543 11.9051 40.4868 11.9931 40.4501 12.0834C40.384 12.1323 40.3131 12.1885 40.2398 12.2495C40.1664 12.3106 40.0906 12.379 40.0245 12.4645C39.961 12.5377 39.8876 12.6232 39.8362 12.7209C39.7164 12.8504 39.5843 13.0384 39.5403 13.2167L39.5256 13.2485C39.4082 13.3291 39.3153 13.4976 39.2615 13.7199C39.242 13.8664 39.242 13.9983 39.2689 14.1204C39.242 14.2133 39.2224 14.3183 39.215 14.4233C39.2126 14.5283 39.2322 14.6334 39.2615 14.7213C39.2542 14.8727 39.3031 15.0315 39.3422 15.1829C39.3569 15.3637 39.4082 15.5884 39.5452 15.7276L39.577 15.7593C39.599 15.8228 39.6235 15.8863 39.665 15.945C39.6895 16.0158 39.7286 16.0988 39.7898 16.1892C39.8436 16.2625 39.9145 16.3187 39.9805 16.3748C40.0514 16.4286 40.1199 16.4823 40.2031 16.5165C40.2593 16.5898 40.3327 16.6704 40.4134 16.7436C40.4965 16.8145 40.5919 16.8658 40.6824 16.9073C40.7166 16.9488 40.7607 16.9952 40.8218 17.0416C40.9294 17.1125 41.0517 17.1711 41.1862 17.2224C41.3207 17.2761 41.4699 17.2981 41.6264 17.3347L41.6778 17.3445H41.6827C41.7805 17.3836 41.8783 17.3909 41.9737 17.3909C42.1253 17.4642 42.3112 17.5423 42.5068 17.5619C42.5875 17.5961 42.6756 17.6303 42.7734 17.6571C42.9397 17.7084 43.1598 17.728 43.3334 17.7133L43.4141 17.7231H43.419C43.5169 17.7524 43.6245 17.767 43.7394 17.7695C43.9057 17.8208 44.1258 17.8354 44.3753 17.855C44.4413 17.8623 44.5147 17.8623 44.588 17.855C44.6859 17.8696 44.7861 17.8745 44.8839 17.8721C45.0723 17.9551 45.3755 18.021 45.6103 17.9722L45.7032 17.9844C45.9698 18.0186 46.3538 17.9991 46.5567 17.9038L46.6252 17.894C46.7475 17.916 46.8918 17.9258 47.0141 17.9087C47.0777 17.9209 47.151 17.9282 47.2317 17.916L47.2953 17.9063C47.4029 17.9331 47.5252 17.9527 47.6621 17.9624C47.9018 17.9844 48.2369 17.9429 48.4619 17.8598C48.6013 17.8403 48.7431 17.8159 48.8556 17.767L48.9118 17.7597C48.9657 17.7499 49.0243 17.7353 49.083 17.7206C49.1735 17.7157 49.2665 17.7035 49.3594 17.6864L49.3985 17.6938C49.5061 17.7133 49.6529 17.7035 49.8045 17.684C49.8461 17.684 49.8925 17.6791 49.9439 17.6718C50.1933 17.64 50.4159 17.5008 50.6605 17.364C50.7509 17.342 50.8463 17.3127 50.9344 17.2737C51.1545 17.2663 51.4382 17.1467 51.5971 16.9928L51.6852 16.9488C51.9224 16.834 52.2036 16.5678 52.2697 16.3773L52.2745 16.3675C52.3479 16.3211 52.4384 16.2478 52.5191 16.1672C52.59 16.0744 52.6512 15.9718 52.6879 15.8815C52.7368 15.8033 52.7661 15.708 52.8077 15.6128L52.8248 15.5713C52.8615 15.5322 52.8908 15.4858 52.9153 15.4345C52.9544 15.3539 53.0058 15.2489 53.0302 15.1365V15.1316C53.1819 14.88 53.2381 14.35 53.1134 14.0643C53.1232 13.9544 53.1207 13.82 53.0792 13.6759L53.0816 13.671ZM47.8089 15.6152C47.8138 15.6274 47.8064 15.6103 47.7844 15.6079C47.7624 15.6055 47.7429 15.603 47.7208 15.6055C47.6646 15.6055 47.6083 15.6177 47.5545 15.6274C47.5056 15.6372 47.4738 15.6201 47.4518 15.5884C47.4176 15.5395 47.2904 15.5493 47.2268 15.5395C47.1143 15.5249 47.0092 15.4858 46.8991 15.4638C46.6399 15.4125 46.3855 15.4296 46.1361 15.4955C46.0505 15.5175 46.004 15.4418 46.004 15.3612C45.9087 15.3392 45.8035 15.3441 45.7301 15.4003C45.7228 15.4076 45.7154 15.4149 45.7081 15.4223C45.6837 15.4223 45.6568 15.4223 45.6323 15.4272C45.5198 15.3514 45.3119 15.3026 45.1799 15.371C45.0674 15.2733 44.8962 15.2049 44.7299 15.266C44.659 15.2928 44.6125 15.3319 44.5709 15.3832C44.4902 15.3661 44.3973 15.371 44.2946 15.3612C44.2481 15.3563 44.1943 15.3612 44.1405 15.371C44.0598 15.3368 43.9546 15.3148 43.8666 15.3295H43.8495C43.803 15.2513 43.7296 15.1976 43.6294 15.1829C43.5633 15.1731 43.4997 15.1854 43.4337 15.2073C43.3603 15.139 43.265 15.095 43.1696 15.1072C43.106 15.073 43.0424 15.0437 42.9715 15.0266C42.9152 14.9558 42.8443 14.8947 42.7514 14.8923H42.7294C42.7098 14.8703 42.6878 14.8483 42.6658 14.8288C42.656 14.7921 42.6364 14.7579 42.6071 14.7286C42.5582 14.6773 42.4946 14.6529 42.4212 14.626C42.4212 14.543 42.4188 14.4795 42.3919 14.4648C42.4139 14.4575 42.4286 14.4526 42.4383 14.4453C42.4775 14.4184 42.4848 14.3183 42.5557 14.1864L42.5655 14.1644C42.6022 14.1327 42.6193 14.0887 42.6389 14.0423C42.7245 14.0227 42.8052 13.9788 42.8834 13.9177C42.9275 13.9104 42.9764 13.9055 43.0253 13.8884C43.1036 13.8591 43.2014 13.8103 43.2674 13.7419L43.3065 13.7272C43.3603 13.7248 43.4093 13.7003 43.4631 13.6735C43.5584 13.6832 43.6636 13.6466 43.7908 13.6149C43.825 13.6075 43.8592 13.5929 43.8959 13.5782C43.9473 13.5782 43.9986 13.5709 44.05 13.5562C44.16 13.6124 44.3166 13.6491 44.434 13.5929L44.4829 13.6026C44.6174 13.6246 44.8277 13.6026 44.9426 13.5147L44.9793 13.5074C45.0478 13.5318 45.1261 13.544 45.1945 13.5294C45.2288 13.5416 45.2704 13.5489 45.3144 13.544C45.3266 13.544 45.3388 13.5391 45.3486 13.5367C45.4073 13.5709 45.4733 13.5953 45.5492 13.6124C45.6812 13.6417 45.8646 13.632 45.9918 13.5733C46.0676 13.5709 46.1483 13.5538 46.2119 13.5245H46.2437C46.273 13.5245 46.3073 13.5196 46.3391 13.5123C46.388 13.522 46.4394 13.5245 46.4907 13.5196L46.5103 13.5318C46.5665 13.566 46.6448 13.5929 46.7279 13.6051C46.7499 13.6124 46.7744 13.6197 46.8013 13.6222C46.9358 13.6368 47.0679 13.5831 47.2171 13.5172C47.266 13.5294 47.3198 13.5343 47.3711 13.5318C47.4836 13.5929 47.6401 13.6222 47.7526 13.5562C47.7698 13.5611 47.7844 13.5636 47.804 13.566C47.9385 13.588 48.117 13.5587 48.2149 13.483H48.2197C48.3029 13.5343 48.435 13.5684 48.5328 13.5391L48.6771 13.5465H48.6991C48.7211 13.566 48.7431 13.5831 48.77 13.5978C48.8091 13.6222 48.8605 13.6393 48.9143 13.6539C49.0292 13.7614 49.2322 13.8591 49.3863 13.8225C49.423 13.864 49.4646 13.9031 49.5281 13.9202C49.5746 13.9324 49.6137 13.9373 49.6602 13.9324C49.7385 14.0447 49.8363 14.1449 49.9488 14.1571L49.9561 14.1669C49.9953 14.2157 50.0442 14.2597 50.1004 14.2987C50.076 14.3452 50.0711 14.3842 50.0808 14.4258C50.0833 14.438 50.0906 14.4502 50.1004 14.4599C50.0882 14.4844 50.0833 14.5064 50.0857 14.5332C50.0784 14.5576 50.0857 14.587 50.0857 14.6211C49.9708 14.67 49.8314 14.7433 49.7898 14.902C49.7385 14.9484 49.6896 15.0046 49.6431 15.0681L49.6211 15.0779C49.5966 15.0925 49.5648 15.1072 49.5404 15.1292C49.4939 15.1341 49.4474 15.1487 49.3985 15.1658L49.3839 15.1609H49.3741C49.3643 15.1951 49.3398 15.2171 49.2958 15.222C49.0855 15.2415 48.7822 15.3637 48.6306 15.5029C48.6086 15.5224 48.5841 15.5297 48.5499 15.5249C48.4668 15.5126 48.3616 15.5102 48.2833 15.5493C48.2418 15.5713 48.2271 15.6128 48.1831 15.6299C48.1513 15.6445 48.1097 15.6445 48.073 15.6494C47.9972 15.6519 47.9238 15.6543 47.8456 15.6543H47.8382C47.826 15.6421 47.8162 15.6274 47.8113 15.6152H47.8089Z" fill="#FF6E40"/>
<path d="M18.5743 9.27154C18.5572 8.9931 18.5303 8.76351 18.4985 8.57788V8.51682C18.5205 8.38493 18.5376 8.23349 18.5449 8.06252C18.5621 7.66684 18.5327 7.07577 18.4862 6.79489V6.70451L18.4911 6.5482C18.5058 6.45783 18.518 6.35524 18.5254 6.24045C18.5425 5.98155 18.5376 5.61029 18.518 5.30987C18.5229 5.19752 18.5278 5.08028 18.5327 4.9606C18.5523 4.58446 18.5474 4.03491 18.5156 3.61236C18.5278 3.42185 18.5352 3.22401 18.5376 3.02862C18.518 2.66469 18.496 2.29588 18.4765 1.92462L18.4691 1.7854C18.4642 1.739 18.4691 1.69748 18.4545 1.61687C18.4276 1.47521 18.3346 1.35553 18.2123 1.28959C18.1512 1.25783 18.0827 1.23829 18.0142 1.23585C17.9458 1.23585 17.914 1.23829 17.8626 1.24074L17.5814 1.25295C17.3637 1.26272 17.2439 1.23829 17.1779 1.20898L17.0874 1.21631C16.97 1.22608 16.8599 1.23829 16.7621 1.25051L16.63 1.27005L16.564 1.28714C16.5175 1.3018 16.4002 1.31889 16.2877 1.31645H16.0137C15.9771 1.33355 15.911 1.35553 15.8279 1.36774C15.8377 1.36774 15.845 1.37263 15.8548 1.37507H15.8279C15.6518 1.37507 15.51 1.51673 15.51 1.69259V1.99057C15.51 1.96859 15.51 1.94416 15.51 1.92218C15.5075 1.8367 15.5051 1.74877 15.5026 1.66084C15.5075 1.57047 15.5491 1.48498 15.6078 1.42881C15.6763 1.36286 15.7472 1.32866 15.8303 1.31401C15.6958 1.3018 15.5466 1.37263 15.4708 1.50208C15.4317 1.56314 15.4097 1.64618 15.4097 1.71213L15.3975 1.88799C15.3975 1.94905 15.4023 2.015 15.4048 2.07606V2.37404C15.4121 2.44243 15.4121 2.51081 15.4048 2.57676L15.3926 2.66713C15.3852 2.71598 15.3754 2.75018 15.3632 2.76971C15.3632 2.7746 15.3583 2.7746 15.3583 2.77948C15.3632 2.84543 15.3657 2.9187 15.3583 2.99686C15.351 3.09456 15.3437 3.19714 15.3388 3.30217V3.42674C15.3412 3.50245 15.3412 3.5855 15.3339 3.6661V3.90546C15.3412 4.0056 15.3461 4.1033 15.3559 4.19123V4.20832L15.3608 4.24007C15.373 4.328 15.3779 4.4257 15.3706 4.53805C15.3681 4.57958 15.3632 4.61377 15.3583 4.64064C15.3779 4.75055 15.3828 4.92152 15.3583 5.04853C15.3485 5.10715 15.3461 5.11936 15.3437 5.18531C15.3437 5.20729 15.3437 5.30743 15.3437 5.35872C15.3437 5.44909 15.3608 5.62739 15.3706 5.71532C15.3926 5.8985 15.3828 6.07192 15.351 6.17694C15.3314 6.24778 15.307 6.2722 15.2825 6.2722V6.46515C15.17 6.47004 15.0771 6.46515 15.0111 6.44806L14.8912 6.46271C14.6124 6.4505 14.3189 6.4505 14.094 6.4676C13.9717 6.46027 13.8372 6.45538 13.6953 6.4505C13.6953 6.36746 13.7002 6.28441 13.7027 6.19893L13.7075 5.95712C13.7271 5.81057 13.7418 5.64937 13.7467 5.4784C13.7613 5.01922 13.7198 4.36464 13.666 4.04956L13.6537 3.78822C13.6635 3.62702 13.666 3.45849 13.666 3.31683C13.6635 3.06525 13.6489 2.84299 13.6317 2.65248C13.6391 2.46929 13.6391 2.29099 13.6342 2.12002L13.6513 2.00034C13.6586 1.97103 13.6635 1.86845 13.6391 1.79517C13.5975 1.63397 13.4605 1.46788 13.2551 1.41659C13.2111 1.40438 13.1377 1.39705 13.1133 1.39705L13.0228 1.39217L12.8369 1.38484C12.7122 1.37996 12.5875 1.37751 12.4652 1.37751C12.3918 1.37263 12.3184 1.36774 12.2402 1.3653C11.9125 1.35309 11.4821 1.37263 11.1543 1.40438H11.0712C10.9049 1.40438 10.7508 1.48742 10.6554 1.60222C10.6065 1.66084 10.5723 1.72679 10.5527 1.79517C10.5307 1.85868 10.5283 1.94905 10.5332 1.98569C10.5429 2.14445 10.5576 2.28855 10.5747 2.41556C10.5185 2.64515 10.4696 2.98954 10.4622 3.36323C10.4549 3.71983 10.4794 4.18146 10.5185 4.50874C10.516 4.58202 10.5136 4.65285 10.516 4.72612C10.5185 4.99968 10.5478 5.30987 10.5845 5.52725C10.5845 5.66158 10.5894 5.79348 10.5967 5.92049C10.5772 6.04505 10.5625 6.19404 10.5576 6.35036C10.5503 6.5946 10.5674 6.91457 10.5919 7.14171C10.587 7.2907 10.587 7.44214 10.5894 7.59113C10.5283 7.93551 10.4769 8.61696 10.5038 9.10545C10.5063 9.17384 10.5136 9.24223 10.5209 9.30817C10.5209 9.60127 10.5356 9.91635 10.5576 10.1215C10.5527 10.1923 10.5478 10.2632 10.5478 10.3364V10.4341C10.5356 10.5489 10.5283 10.6662 10.5258 10.7785C10.5136 11.1058 10.516 11.4209 10.5283 11.7067C10.5087 11.8581 10.494 12.0266 10.4891 12.2049C10.4794 12.5908 10.5136 13.1111 10.5576 13.4091C10.5527 13.6289 10.5527 13.878 10.5625 14.1052C10.5478 14.3299 10.5405 14.5888 10.5429 14.8306C10.5283 14.9722 10.516 15.1286 10.5087 15.2898L10.5014 15.5291V15.6464C10.5014 15.6854 10.4965 15.7147 10.5063 15.7953C10.5185 15.9541 10.6016 16.1153 10.7435 16.2179C10.8144 16.2692 10.8976 16.3058 10.988 16.3229C11.0956 16.3376 11.1225 16.3327 11.1739 16.3376C11.3622 16.3449 11.5505 16.3473 11.7266 16.3425C12.0837 16.3302 12.453 16.2814 12.6804 16.2252C12.7318 16.2301 12.7856 16.235 12.8442 16.2374C12.9005 16.2374 12.9592 16.2399 13.0228 16.2423H13.1182C13.1426 16.2423 13.216 16.2399 13.2624 16.2252C13.4777 16.1739 13.6342 15.9712 13.6415 15.7782C13.6513 15.7001 13.6489 15.6757 13.6537 15.6268L13.6611 15.4925C13.6684 15.3679 13.6733 15.2214 13.6758 15.0626C13.7296 14.6718 13.7687 14.0881 13.7491 13.6313C13.7418 13.475 13.7271 13.3211 13.71 13.177C13.7051 12.9181 13.688 12.6666 13.6684 12.5005L13.6586 12.4321C13.6586 12.3539 13.6586 12.2758 13.6611 12.1927C13.6635 12.0682 13.6611 11.9265 13.6586 11.7824C13.6758 11.394 13.6684 10.9837 13.6415 10.6222C13.6415 10.5563 13.6415 10.4952 13.6415 10.4293C13.71 10.4268 13.7785 10.4244 13.8421 10.4219L13.8959 10.4268C14.1355 10.4537 14.5293 10.4708 14.8814 10.4659C15.0013 10.4781 15.1333 10.4879 15.2678 10.4952C15.2678 10.5954 15.2678 10.693 15.2752 10.7834C15.2825 10.9007 15.2947 11.0155 15.3094 11.1205C15.3021 11.3989 15.3021 11.7116 15.3168 11.9656C15.3094 12.0364 15.3045 12.1072 15.2972 12.1732C15.2581 12.7594 15.2678 13.3553 15.3143 13.8389C15.3143 14.0221 15.3143 14.2029 15.3241 14.3445C15.3045 14.4666 15.2898 14.6083 15.285 14.7597C15.2776 14.982 15.285 15.2653 15.3021 15.512V15.5877C15.2972 15.7441 15.2972 15.8955 15.2996 16.0396C15.3045 16.1153 15.2923 16.1642 15.3192 16.296C15.3485 16.406 15.4121 16.5012 15.4928 16.5672C15.5515 16.6258 15.6298 16.6746 15.7203 16.6991C15.7618 16.7113 15.8254 16.7161 15.8523 16.7186L15.9428 16.7235C16.0627 16.7308 16.1898 16.7357 16.317 16.7406C16.5713 16.7479 16.8257 16.7455 17.0262 16.7284L17.102 16.721C17.2659 16.721 17.4249 16.7137 17.5569 16.7039C17.6621 16.7088 17.7721 16.7137 17.8846 16.7186L17.9849 16.7235C18.0363 16.7235 18.1047 16.7186 18.1659 16.6991C18.2906 16.6624 18.4055 16.572 18.4765 16.4499C18.5547 16.3351 18.5547 16.1471 18.5498 16.0933L18.5449 15.8442C18.5474 15.6757 18.5449 15.4949 18.54 15.3288C18.5523 15.1286 18.5596 14.9209 18.5572 14.7451C18.5523 14.3445 18.5303 14.0026 18.4936 13.7339V13.6338C18.4911 13.5287 18.4862 13.4335 18.4814 13.3407C18.5205 13.1038 18.5523 12.7814 18.5498 12.476C18.5498 12.3222 18.5401 12.1561 18.5254 11.9998C18.5352 11.692 18.5303 11.3745 18.5131 11.079C18.5254 11.0277 18.5376 10.9715 18.5474 10.9007C18.6012 10.5196 18.6159 9.73072 18.5865 9.26665L18.5743 9.27154Z" fill="#222222"/>
<path d="M9.29106 13.7297L9.25682 13.6246L9.24948 13.5807C9.26171 13.483 9.26905 13.3682 9.26171 13.2412C9.24948 12.9481 9.17122 12.5158 9.10275 12.3155L9.09786 12.2495L9.08807 12.1347C9.09541 12.0663 9.1003 11.9906 9.1003 11.9051C9.1003 11.8758 9.1003 11.8661 9.09541 11.8197C9.09052 11.7733 9.07584 11.7268 9.05873 11.6804C9.0196 11.5876 8.94867 11.5046 8.86308 11.4484C8.77748 11.3922 8.67477 11.3605 8.57205 11.358C8.45222 11.3605 8.42287 11.3776 8.36173 11.3849L8.10739 11.3971C7.83104 11.4044 7.42996 11.4411 7.12181 11.4875C6.97997 11.4826 6.83568 11.4826 6.69139 11.4875C6.16314 11.5583 5.60309 11.6096 5.05283 11.6536C4.89142 11.6658 4.80338 11.6438 4.75447 11.6145L4.68599 11.6243C4.6004 11.6365 4.51969 11.6487 4.44633 11.6609L4.3485 11.6829C4.3485 11.6829 4.30448 11.7 4.29959 11.7024C4.26535 11.7171 4.17975 11.7342 4.0966 11.7342C4.04769 11.7342 3.9621 11.7342 3.89362 11.7342C3.86672 11.7513 3.81781 11.7708 3.75667 11.7855C3.764 11.7855 3.76889 11.7903 3.77623 11.7928H3.54145C3.42896 11.7928 3.34091 11.7171 3.31157 11.6145C3.33113 11.6707 3.37026 11.722 3.42162 11.7464C3.47787 11.7757 3.53412 11.7708 3.59037 11.7635C3.6564 11.7562 3.70286 11.7415 3.75667 11.7317C3.67841 11.7195 3.57325 11.7146 3.517 11.7C3.46564 11.6829 3.42896 11.6365 3.42162 11.5925C3.40939 11.573 3.40695 11.5485 3.40695 11.4948V11.275C3.39961 11.2237 3.39961 11.1748 3.40695 11.1236L3.41917 11.0576C3.42651 11.0234 3.43629 10.9965 3.44852 10.9819C3.44852 10.977 3.45341 10.977 3.45341 10.9746C3.44852 10.9257 3.44608 10.872 3.45341 10.8134C3.46075 10.7425 3.46809 10.6668 3.47298 10.5887V10.4958C3.47053 10.4397 3.47053 10.3786 3.47787 10.3175C3.47787 10.2589 3.47787 10.2003 3.47787 10.1417C3.47298 10.066 3.46809 9.99514 3.4583 9.9292V9.91698L3.45341 9.89256C3.44118 9.82661 3.43629 9.75578 3.44363 9.67274C3.44608 9.64099 3.45097 9.61656 3.45586 9.59702C3.43629 9.51642 3.4314 9.38941 3.45586 9.2966C3.46564 9.25508 3.46809 9.24286 3.47053 9.19646C3.47053 9.17936 3.47053 9.10609 3.47053 9.06945C3.46809 9.0035 3.45341 8.86917 3.44363 8.80567C3.42162 8.67133 3.4314 8.54188 3.46319 8.46372C3.48276 8.41243 3.50722 8.39289 3.53167 8.39289L3.53656 8.1291L3.51944 7.95813C3.50722 7.86043 3.51944 7.78228 3.53656 7.7261L3.52189 7.63817C3.53412 7.43056 3.53412 7.21563 3.517 7.04954C3.53656 6.81506 3.54634 6.53174 3.55613 6.22154L3.56102 6.04325C3.5708 5.98951 3.57814 5.93334 3.58547 5.87472L3.59526 5.78435C3.59526 5.75504 3.60015 5.71107 3.60015 5.72084C3.60504 5.71596 3.60748 5.71107 3.61238 5.70374C3.61238 5.7013 3.61727 5.69886 3.62216 5.69397C3.60748 5.69153 3.68819 5.68665 3.72732 5.6842C3.92052 5.66955 4.09905 5.64513 4.21644 5.61826L4.40964 5.60605C4.52948 5.61582 4.6542 5.61826 4.75936 5.61826C4.94523 5.61582 5.10908 5.60116 5.25093 5.58406C5.38544 5.59139 5.5175 5.59139 5.64467 5.58651C5.85499 5.63535 6.26585 5.67443 6.62291 5.67443C6.67671 5.67932 6.73296 5.6842 6.78921 5.68665C7.03132 5.69886 7.34925 5.67932 7.59137 5.64757H7.65251C7.79191 5.64512 7.91908 5.6378 8.03647 5.62803L8.12206 5.6207C8.14652 5.6207 8.20766 5.61093 8.24434 5.60116C8.32749 5.57674 8.39841 5.53277 8.45222 5.47904C8.51336 5.44973 8.57694 5.39844 8.6283 5.32272C8.65276 5.28608 8.67477 5.24212 8.68944 5.19571C8.70411 5.15419 8.71145 5.08092 8.71634 5.06382C8.73591 4.94414 8.75058 4.81225 8.75547 4.67547C8.76281 4.41168 8.73835 4.06974 8.69922 3.82794C8.70167 3.7742 8.70411 3.72047 8.70167 3.66918C8.69922 3.46645 8.66988 3.2393 8.63319 3.07566C8.63319 2.92179 8.55004 2.77524 8.43021 2.69708C8.3813 2.64823 8.31037 2.60182 8.22722 2.58228C8.1294 2.56274 8.08782 2.56519 8.02668 2.5603C7.84571 2.55297 7.60849 2.57007 7.43974 2.5945C7.32969 2.58961 7.21719 2.58961 7.10714 2.59205C6.85279 2.53099 6.349 2.4797 5.98461 2.50657C5.93325 2.50901 5.88434 2.51634 5.83298 2.52366C5.61532 2.52366 5.38299 2.53832 5.23136 2.5603C5.18001 2.55542 5.1262 2.55053 5.0724 2.55053H4.99903C4.91343 2.53832 4.82784 2.53099 4.74469 2.52855C4.50257 2.51634 4.2678 2.51878 4.05748 2.53099C3.94498 2.51145 3.82025 2.4968 3.68819 2.49191C3.40205 2.48214 3.0181 2.51634 2.79555 2.5603C2.63169 2.55542 2.44827 2.55542 2.28197 2.56519C2.19882 2.55786 2.10833 2.55297 2.01785 2.54809H1.87845L1.72437 2.55297C1.47981 2.53832 1.17167 2.62869 0.956455 2.79234C0.680102 2.93644 0.440434 3.21732 0.315708 3.47378C0.186091 3.74001 0.137179 4.03555 0.139625 4.21629L0.102941 4.30177L0.0980497 4.31154V4.35551L0.0931585 4.38726C0.0833761 4.54846 0.0907129 4.77073 0.107832 4.94902C0.102941 5.01253 0.0980497 5.07847 0.0931585 5.14442C0.0858217 5.23479 0.0809305 5.3447 0.0784849 5.46194C0.0246817 5.75015 -0.0144479 6.18247 0.00511691 6.51953C0.0124537 6.63432 0.0271273 6.74912 0.0442465 6.85414C0.0491377 7.04465 0.0662569 7.23272 0.0858217 7.35485L0.0956041 7.40614C0.0956041 7.46476 0.0956041 7.52338 0.0931585 7.58199C0.0907129 7.67481 0.0931585 7.77983 0.0956041 7.88486C0.0784849 8.17307 0.0858217 8.47593 0.112723 8.74216C0.105386 8.93511 0.112723 9.12318 0.127397 9.29171L0.122506 9.33079C0.0956041 9.50665 0.0784849 9.79974 0.0833761 10.0586C0.0466921 10.32 0.0271273 10.6595 0.0466921 10.9159C0.0540289 11.0039 0.0662569 11.0869 0.0809305 11.1651C0.0735937 11.3727 0.0735937 11.6023 0.0882673 11.7903C0.0809305 11.8416 0.0735937 11.8929 0.0687025 11.9442C0.0418009 12.2544 0.0393553 12.5695 0.0564745 12.8528V12.8992L0.0638113 12.9163C0.102941 13.0287 0.146962 13.1337 0.195874 13.2314C0.24234 13.3657 0.301034 13.4976 0.359729 13.5929C0.38663 13.6881 0.428206 13.7956 0.491791 13.9031C0.582278 14.0594 0.748579 14.2401 0.929553 14.3525L0.980911 14.3916C1.19857 14.5528 1.45291 14.6285 1.67057 14.6358C1.8491 14.6773 2.03496 14.6847 2.22083 14.6944C2.40914 14.7018 2.59501 14.6993 2.74419 14.6822L2.80044 14.6749C2.92027 14.6749 3.03766 14.6676 3.13548 14.6578C3.21374 14.6627 3.29445 14.6676 3.3776 14.6724C3.5708 14.6871 3.82759 14.6895 4.07459 14.6798C4.19932 14.6822 4.33383 14.6798 4.45611 14.6724C4.60284 14.6847 4.75936 14.6895 4.89142 14.6871C5.18979 14.6798 5.44168 14.6505 5.64222 14.6089H5.71559C5.79385 14.6016 5.86477 14.5943 5.93325 14.587C6.10933 14.6212 6.35145 14.6431 6.57889 14.6285C6.69383 14.6212 6.81611 14.6041 6.9335 14.5845C7.16339 14.5796 7.39816 14.5552 7.61827 14.5186C7.6574 14.5283 7.70142 14.5357 7.75522 14.5406C7.89951 14.5528 8.11962 14.5454 8.34706 14.521C8.45955 14.5088 8.57694 14.4941 8.68455 14.4722C8.73835 14.4624 8.78971 14.4526 8.84107 14.4404C8.91933 14.4258 9.00981 14.3867 9.07095 14.3427C9.22503 14.2304 9.30084 14.0643 9.30818 13.9153C9.30818 13.8786 9.30818 13.842 9.30329 13.8054C9.29839 13.7663 9.29106 13.7614 9.28617 13.7394L9.29106 13.7297ZM3.29934 11.5485V11.5241C3.29934 11.5412 3.30178 11.5559 3.30423 11.573C3.30423 11.5632 3.29934 11.5559 3.29934 11.5485Z" fill="#222222"/>
<path d="M72.2454 4.53138C72.221 4.37262 72.1867 4.24317 72.1451 4.13815V4.10395C72.1745 4.03068 72.1965 3.94275 72.2087 3.84749C72.2332 3.62523 72.1916 3.28817 72.1305 3.12941V3.07812L72.1354 2.99019C72.1549 2.9389 72.172 2.88028 72.1818 2.81678C72.2038 2.67023 72.1965 2.46018 72.172 2.28921C72.1794 2.2257 72.1843 2.15976 72.1916 2.09137C72.2185 1.87887 72.2112 1.56624 72.1696 1.32932C72.1794 1.29024 72.1867 1.1901 72.1696 1.09973C72.1549 1.00936 72.1207 0.921431 72.0742 0.843272C71.9715 0.708937 71.8272 0.608796 71.6682 0.562389C71.59 0.537965 71.5068 0.528195 71.4286 0.530637C71.3503 0.53308 71.3161 0.54285 71.2574 0.547735C71.0422 0.569717 70.8319 0.594141 70.6215 0.616123C70.4993 0.628336 70.4308 0.596584 70.3916 0.557504L70.3403 0.567274C70.2743 0.581929 70.2107 0.596584 70.1569 0.613681C70.13 0.621008 70.1055 0.630778 70.0811 0.640548C70.0811 0.640548 70.0468 0.66253 70.0444 0.664973C70.0199 0.684512 69.9514 0.706494 69.8879 0.706494C69.8512 0.706494 69.7851 0.706494 69.7313 0.706494C69.7093 0.728476 69.6726 0.757786 69.6262 0.774883C69.6311 0.777326 69.636 0.78221 69.6409 0.784653H69.6262C69.4648 0.784653 69.3229 0.862812 69.2324 0.982492C69.2398 0.97028 69.2496 0.958067 69.2569 0.948298C69.3156 0.870139 69.4061 0.804193 69.4917 0.765113C69.5406 0.740689 69.5797 0.721149 69.6262 0.704052C69.477 0.677185 69.3009 0.713822 69.1615 0.826175C69.1346 0.860369 69.1053 0.901891 69.0833 0.94097C69.0686 0.962952 69.0588 0.989819 69.0466 1.01424C69.0294 1.05088 69.0172 1.0924 69.0099 1.13148V1.14369C69.005 1.19254 69.0025 1.24872 68.9952 1.28536L68.9805 1.33665C68.9683 1.36352 68.9561 1.38305 68.9439 1.39527C68.9439 1.39771 68.939 1.39771 68.9365 1.40015C68.9439 1.43679 68.9487 1.47831 68.9365 1.52228C68.9243 1.57601 68.917 1.63463 68.9096 1.69569V1.76652C68.9145 1.80804 68.9145 1.85689 68.9023 1.9033C68.9023 1.94726 68.9023 1.99367 68.9047 2.03763C68.9096 2.09381 68.9194 2.14999 68.9292 2.19884V2.20861L68.9365 2.2257C68.9536 2.27699 68.9585 2.33073 68.9487 2.39423C68.9463 2.41866 68.939 2.43575 68.9316 2.45285C68.9561 2.51391 68.9634 2.61161 68.9341 2.68244C68.9194 2.71419 68.917 2.72396 68.9121 2.7606C68.9121 2.77281 68.9121 2.82899 68.9121 2.8583C68.9145 2.90959 68.9365 3.00973 68.9487 3.06102C68.9781 3.16361 68.9659 3.2613 68.9243 3.32237C68.8974 3.36145 68.8656 3.3761 68.8314 3.3761L68.824 3.57882C68.8289 3.62523 68.8363 3.6692 68.846 3.70827C68.8632 3.78399 68.846 3.84261 68.824 3.88657L68.8436 3.95496C68.8289 4.11372 68.8289 4.27981 68.8509 4.40682C68.824 4.58756 68.8118 4.80494 68.7996 5.04186C68.7971 5.08338 68.7947 5.12978 68.7922 5.17863C68.7653 5.26168 68.7458 5.35205 68.7384 5.44975C68.7189 5.71109 68.7727 6.0799 68.846 6.2582C68.8485 6.30949 68.8558 6.35834 68.8607 6.40719C68.8485 6.5 68.8436 6.59282 68.846 6.67342C68.8509 6.81752 68.868 6.94209 68.8925 7.04956C68.8827 7.15214 68.8827 7.25472 68.8901 7.34998C68.824 7.51118 68.7727 7.82626 68.7751 8.09981C68.7678 8.14133 68.7604 8.18286 68.758 8.22682C68.7433 8.41245 68.7678 8.65669 68.8093 8.83988V8.88628C68.8167 9.09878 68.846 9.27952 68.8901 9.42363C68.8142 9.55308 68.7507 9.74847 68.7384 9.95852C68.7262 10.1612 68.7604 10.4226 68.8142 10.6058C68.8118 10.6473 68.8093 10.6888 68.8093 10.7279C68.8142 10.8842 68.8509 11.0576 68.8998 11.1822C68.8998 11.2579 68.9072 11.3336 68.9145 11.4045C68.8876 11.4753 68.868 11.5583 68.8631 11.6487C68.8534 11.7879 68.8754 11.9687 68.9096 12.0981C68.9023 12.1836 68.9023 12.2691 68.9047 12.3521C68.8216 12.5475 68.7555 12.9334 68.7898 13.2094C68.7947 13.2485 68.802 13.2876 68.8118 13.3242C68.8118 13.4903 68.8314 13.6686 68.8607 13.7834C68.8534 13.8225 68.8485 13.864 68.846 13.9055V13.9617C68.8314 14.0277 68.8216 14.0936 68.8142 14.1571C68.7996 14.3427 68.802 14.521 68.8191 14.6822C68.7922 14.7677 68.7727 14.863 68.7678 14.9631C68.7555 15.1805 68.7996 15.476 68.8607 15.6446C68.8534 15.7691 68.8558 15.9108 68.868 16.0378C68.8485 16.1648 68.8387 16.3114 68.8411 16.4481C68.8314 16.4872 68.8216 16.5312 68.8142 16.5751L68.8093 16.6069V16.6631C68.8045 16.6997 68.8093 16.7388 68.8142 16.7779C68.8362 16.9293 68.9121 17.0783 69.0148 17.1809C69.1126 17.3176 69.2765 17.4349 69.4672 17.4788C69.5137 17.4911 69.5626 17.4959 69.6115 17.4984H69.6947C69.746 17.5033 69.7974 17.5008 69.8487 17.4984C70.0517 17.4813 70.2596 17.4153 70.3892 17.3421C70.4186 17.3494 70.4503 17.3543 70.4821 17.3592C70.6069 17.3738 70.7756 17.3616 70.9126 17.3396L71.0642 17.3592C71.1351 17.3714 71.2183 17.3763 71.3087 17.3787C71.3381 17.3885 71.3601 17.3958 71.4017 17.4031C71.4506 17.4105 71.5068 17.4129 71.5606 17.408C71.6731 17.3982 71.793 17.3616 71.8981 17.2957C72.1158 17.1662 72.2601 16.9024 72.2576 16.668V16.6093L72.2528 16.5776L72.2405 16.5116C72.2307 16.4677 72.221 16.4261 72.2087 16.3846C72.2014 16.2381 72.1818 16.094 72.1525 16.0012L72.1378 15.9621C72.1378 15.9181 72.1378 15.8742 72.1403 15.8277C72.1427 15.7569 72.1403 15.6763 72.1354 15.5957C72.1598 15.3759 72.15 15.1439 72.1109 14.9387C72.1182 14.7921 72.1109 14.648 72.0913 14.5186L72.0987 14.4893C72.1354 14.3549 72.1574 14.1302 72.15 13.9324C72.1965 13.7321 72.2258 13.4732 72.1989 13.2754C72.1892 13.2094 72.1745 13.1435 72.1525 13.0849C72.1647 12.9261 72.1623 12.7503 72.1427 12.6061C72.1525 12.5671 72.1623 12.528 72.1672 12.4889C72.2185 12.1567 72.2038 11.8197 72.1451 11.5461C72.1476 11.4435 72.1451 11.341 72.1329 11.2604C72.1574 11.1895 72.1769 11.1114 72.1867 11.0259C72.199 10.9013 72.1867 10.7401 72.1647 10.6009V10.5569C72.1769 10.3786 72.1647 10.215 72.1451 10.0709C72.2014 9.84129 72.2307 9.49446 72.1867 9.26731L72.1769 9.22579C72.1769 9.13297 72.1672 9.0426 72.1549 8.96933L72.1769 8.7837C72.1965 8.63715 72.2014 8.43931 72.1867 8.25125C72.1892 8.15599 72.1867 8.05341 72.1794 7.96059C72.1965 7.84824 72.2063 7.731 72.2038 7.62842C72.1989 7.40127 72.1672 7.20832 72.1207 7.05688V7.00071C72.1182 6.94209 72.1109 6.88591 72.1036 6.83462C72.1574 6.70028 72.1989 6.51954 72.1965 6.34613C72.1965 6.2582 72.1843 6.16539 72.1647 6.07502C72.1769 5.89916 72.1696 5.72086 72.1476 5.55233C72.1647 5.52302 72.1818 5.49127 72.1941 5.45219C72.265 5.23725 72.2845 4.79028 72.2454 4.52894V4.53138Z" fill="#222222"/>
<path d="M67.6096 12.2217L67.5998 12.2144C67.4971 12.1167 67.3969 12.0287 67.3113 11.9579C67.1205 11.804 66.9542 11.6892 66.8099 11.6062L66.7708 11.572C66.7096 11.4694 66.6314 11.3595 66.5335 11.2496C66.3037 10.9931 65.905 10.6609 65.6874 10.5339L65.6336 10.4778L65.5382 10.3801C65.4966 10.3117 65.4453 10.236 65.3792 10.1602C65.2325 9.98683 64.9953 9.76457 64.7923 9.60092L64.5893 9.37377C64.3741 9.12464 64.0244 8.79491 63.7333 8.56776C63.6257 8.43831 63.5108 8.31375 63.391 8.19163C63.298 8.11591 63.2051 8.04019 63.1097 7.96203C63.1733 7.54437 63.2418 7.1145 63.2785 6.68219C63.2956 6.48923 63.3372 6.38665 63.3836 6.33291V6.24987C63.3787 6.14485 63.3714 6.0447 63.3616 5.95678C63.3567 5.91525 63.3494 5.87373 63.342 5.83954C63.342 5.83954 63.3249 5.7858 63.32 5.77848C63.3029 5.73696 63.2858 5.63193 63.2882 5.53423C63.2882 5.47561 63.2907 5.37303 63.2931 5.29243C63.2711 5.25823 63.2442 5.20206 63.2247 5.13123C63.2222 5.141 63.2173 5.14588 63.2149 5.15565C63.2149 5.14832 63.2149 5.141 63.2149 5.13123V4.92362H63.704C63.6844 4.92362 63.6624 4.92362 63.6453 4.92362C63.5377 4.9285 63.4252 4.93583 63.32 4.94804V4.92362L63.2956 4.95048C63.2834 4.95048 63.2687 4.95293 63.2564 4.95537C63.2564 4.96514 63.2613 4.97491 63.2613 4.98468L63.2149 5.03109L63.2736 5.03841C63.2809 5.07016 63.2907 5.09947 63.298 5.13123L63.3103 5.04085C63.4105 5.05307 63.5132 5.06528 63.616 5.07749C63.6673 5.07261 63.726 5.07016 63.7798 5.06772H64.0219L64.0366 5.06284C64.0977 5.05551 64.1564 5.05551 64.2151 5.06284L64.2934 5.07749C64.335 5.0897 64.3643 5.10192 64.3839 5.11413C64.3888 5.11413 64.3888 5.11901 64.3936 5.12146C64.4499 5.11413 64.5135 5.10924 64.5844 5.12146C64.67 5.13367 64.758 5.141 64.851 5.14832H64.961C65.0271 5.14344 65.1004 5.14344 65.1714 5.15565H65.3792C65.4673 5.14832 65.5504 5.13855 65.6287 5.12878H65.6434L65.6703 5.12146C65.7485 5.10436 65.8317 5.09947 65.9295 5.10924C65.9662 5.11169 65.9955 5.11901 66.02 5.12634C66.1154 5.10192 66.267 5.09459 66.3746 5.1239C66.4259 5.13855 66.4382 5.141 66.4944 5.14588C66.514 5.14588 66.602 5.14588 66.6461 5.14588C66.6999 5.14588 66.7879 5.13123 66.8637 5.09703C66.942 5.06528 67.008 5.01643 67.0447 4.97979C67.2085 4.82836 67.2868 4.64518 67.343 4.51573C67.3773 4.42536 67.4066 4.4107 67.4384 4.40826L67.4458 4.09807C67.4409 4.02724 67.4335 3.96129 67.4238 3.89778C67.4066 3.78055 67.4237 3.69018 67.4458 3.62423L67.4262 3.52165C67.4335 3.39952 67.4384 3.27496 67.436 3.15772L67.4311 2.98431C67.4311 2.91592 67.414 2.81578 67.3846 2.74739C67.3357 2.53245 67.1694 2.31507 66.9151 2.21982C66.7952 2.16608 66.6216 2.16364 66.5605 2.16364C66.4724 2.1612 66.3844 2.15631 66.2914 2.15387C66.2254 2.15387 66.1545 2.14899 66.0811 2.14654C65.9539 2.11968 65.8145 2.10014 65.6629 2.09281C65.2618 2.07327 64.6896 2.127 64.4157 2.20028C64.3374 2.20272 64.2616 2.21005 64.1882 2.21493C64.0464 2.20272 63.9021 2.19783 63.7774 2.20028C63.5573 2.20516 63.3641 2.22226 63.1978 2.24668C63.0388 2.23691 62.8823 2.23691 62.7331 2.24424C62.4861 2.17829 62.0019 2.127 61.5788 2.127C61.5152 2.11968 61.4492 2.11235 61.3831 2.10991C61.0994 2.09525 60.7228 2.11968 60.4367 2.1612H60.3658C60.038 2.16852 59.7592 2.19783 59.5391 2.2418C59.3386 2.16608 59.0378 2.10258 58.7125 2.09037C58.4019 2.07815 57.9984 2.11235 57.7123 2.16608C57.6487 2.16364 57.5851 2.1612 57.524 2.1612C57.4604 2.1612 57.409 2.16364 57.3332 2.17097C57.2329 2.17829 57.1327 2.20516 57.0471 2.25157C56.871 2.34194 56.7609 2.49581 56.7169 2.63015C56.6289 2.7767 56.6338 2.99163 56.646 3.07468C56.6191 3.18459 56.5995 3.31159 56.5946 3.44837C56.5849 3.66087 56.6069 3.94175 56.6411 4.13959C56.6387 4.20553 56.6362 4.27148 56.6362 4.33498V4.43268C56.6362 4.47176 56.6411 4.5255 56.6509 4.5719C56.6509 4.68426 56.6876 4.8308 56.7878 4.9627C56.8857 5.09459 57.052 5.21183 57.2525 5.24602C57.3674 5.26312 57.4115 5.26068 57.4751 5.268C57.5362 5.27045 57.5973 5.27289 57.6585 5.27533C57.7783 5.27777 57.8957 5.27533 58.0033 5.268C58.0644 5.26312 58.1231 5.25579 58.1818 5.24602C58.4386 5.24602 58.7125 5.22648 58.8911 5.19717C58.9522 5.2045 59.0133 5.20938 59.0794 5.21183H59.165C59.2652 5.22648 59.3679 5.23625 59.4658 5.24358C59.7519 5.25823 60.0258 5.25579 60.2777 5.23869C60.2948 5.24114 60.3119 5.24358 60.3291 5.24602C60.3364 5.51225 60.3657 5.78825 60.3902 5.97387C60.3731 6.1595 60.3511 6.36467 60.334 6.55762C60.2948 6.74325 60.2361 6.9533 60.197 7.15114C60.1579 7.26349 60.0992 7.38317 60.0552 7.50529C60.0111 7.62986 59.9647 7.75443 59.9207 7.86922C59.8522 7.99623 59.7788 8.13056 59.6981 8.2649C59.6247 8.40412 59.5563 8.53845 59.4902 8.66546C59.4291 8.7998 59.3728 8.93902 59.3166 9.06847C59.2652 9.19792 59.231 9.32493 59.2016 9.42262C59.1699 9.45438 59.1381 9.48857 59.1063 9.52521C58.9889 9.66931 58.8421 9.87692 58.7296 10.0528C58.6783 10.1065 58.6269 10.1627 58.5707 10.2164C58.4924 10.2897 58.4068 10.3825 58.3163 10.4851C58.0424 10.6927 57.6658 11.0298 57.4139 11.3351C57.3283 11.4401 57.2501 11.55 57.1816 11.6575C57.0324 11.826 56.8954 11.9994 56.8172 12.124L56.7854 12.1777C56.7389 12.2266 56.69 12.2754 56.6387 12.3267L56.5188 12.4513C56.5042 12.4684 56.465 12.5099 56.4381 12.5465C56.4112 12.5856 56.3868 12.6271 56.3672 12.6711C56.2131 12.9422 56.2816 13.3354 56.5262 13.5382L56.509 13.5211C56.6069 13.6212 56.7047 13.714 56.8001 13.7995C56.9444 13.9754 57.0984 14.1341 57.2476 14.2685L57.2721 14.3075C57.3674 14.459 57.5337 14.6764 57.7098 14.8766L57.7172 14.8864L57.7269 14.8937C57.7832 14.945 57.8443 14.9865 57.9104 15.0183C58.1134 15.1477 58.4362 15.1795 58.6954 15.0183C58.7272 14.9988 58.759 14.9768 58.7859 14.9548C58.8152 14.9304 58.8421 14.9035 58.8544 14.8937C58.8862 14.862 58.9155 14.8327 58.9449 14.8034C59.0036 14.7423 59.0598 14.6837 59.1087 14.6251C59.1747 14.5469 59.2334 14.4639 59.2823 14.3857C59.4633 14.2221 59.6541 14.0267 59.7959 13.8557C59.8448 13.819 59.8937 13.7824 59.9402 13.7433C60.3388 13.4136 60.691 13.013 60.9209 12.6442C61.0285 12.5221 61.1263 12.3902 61.1948 12.2852C61.2829 12.2119 61.3733 12.124 61.4589 12.0165C61.5837 11.8602 61.7182 11.6404 61.8135 11.4377L61.8527 11.3815C61.8722 11.3522 61.8869 11.3253 61.904 11.296C62.107 11.5769 62.4029 11.9188 62.6426 12.1167L62.694 12.1582C62.7918 12.2608 62.8921 12.356 62.9801 12.4317C63.0388 12.5026 63.0975 12.5758 63.1586 12.654C63.298 12.8323 63.5035 13.057 63.7113 13.2573C63.8092 13.3672 63.9192 13.4795 64.0244 13.5797C64.1295 13.7165 64.2469 13.8557 64.3545 13.9656C64.5966 14.2172 64.8241 14.4126 65.0197 14.5518L65.0784 14.6153C65.1493 14.6983 65.2716 14.7838 65.3792 14.8156C65.4746 14.8742 65.6042 14.9157 65.7461 14.9108C65.8904 14.9084 66.0444 14.8546 66.1716 14.7545L66.1912 14.7374C66.245 14.6886 66.2963 14.6397 66.3477 14.5884C66.4406 14.4907 66.5336 14.3784 66.6143 14.2685C66.8099 14.0828 66.9982 13.8826 67.1621 13.6798C67.2061 13.6603 67.2526 13.6359 67.3039 13.6017C67.3724 13.5577 67.4507 13.4966 67.5362 13.4234L67.5142 13.4454C67.6683 13.3281 67.7979 13.1254 67.8248 12.8958C67.8566 12.6687 67.7784 12.422 67.6316 12.2534L67.6145 12.2339L67.6096 12.2217Z" fill="#222222"/>
<path d="M63.2476 4.92188L63.2109 4.95856C63.2232 4.95856 63.2378 4.95611 63.2525 4.95367C63.2525 4.94633 63.2501 4.94144 63.2501 4.93655V4.92188H63.2476Z" fill="white"/>
<path d="M89.9996 15.1192C89.9947 14.787 89.9849 14.445 89.9629 14.1495L89.9751 13.9468L89.98 13.8442V13.7099C89.9629 13.4827 89.8381 13.2678 89.6523 13.1359C89.5642 13.0797 89.4664 13.0382 89.3637 13.0186C89.3123 13.0089 89.261 13.004 89.2096 13.004C89.1583 13.004 89.1436 13.0064 89.1069 13.0089C88.9822 13.0162 88.8599 13.0235 88.7352 13.0309C88.4833 13.0455 88.2314 13.0577 87.977 13.0724C87.461 13.0992 86.9401 13.1261 86.4265 13.1505C86.1233 13.1652 85.9717 13.1383 85.9007 13.1066L85.7711 13.1188L85.3016 13.1652C85.2331 13.175 85.1671 13.1823 85.1035 13.1896L84.9959 13.2092C84.9225 13.2262 84.744 13.2433 84.5874 13.2433H84.2035C84.135 13.2629 84.025 13.2849 83.8978 13.2971C83.91 13.2971 83.9173 13.302 83.9271 13.3044H83.8904V12.1833C83.8904 12.2151 83.8904 12.2468 83.8904 12.2761C83.8953 12.5131 83.9051 12.7671 83.9174 12.9649C83.9247 13.0821 83.9369 13.1554 83.9467 13.2458C83.9712 12.9161 83.9981 12.5863 84.0225 12.2493C84.0225 12.1711 84.0225 12.0807 84.0201 12.0001V11.5996C84.0201 11.5092 84.0201 11.4164 84.0274 11.3236L84.0421 11.199C84.0543 11.1331 84.0665 11.0842 84.0812 11.0525C84.0812 11.0451 84.0861 11.0427 84.0885 11.0378C84.0812 10.9523 84.0788 10.8546 84.0885 10.7496C84.0934 10.7007 84.0959 10.6495 84.0983 10.5982C84.2035 10.5908 84.3184 10.5908 84.4285 10.6055H84.7635C84.9054 10.6006 85.0399 10.5933 85.1646 10.5835H85.1891L85.2331 10.5762C85.3578 10.5591 85.4948 10.5566 85.6513 10.5664C85.71 10.5713 85.7564 10.5762 85.798 10.586C85.9521 10.5615 86.1942 10.5566 86.3703 10.586C86.451 10.6006 86.4706 10.603 86.561 10.6079C86.5928 10.6079 86.7322 10.6079 86.8032 10.6079C86.9303 10.6079 87.1822 10.586 87.3045 10.5737C87.4341 10.5542 87.5442 10.5737 87.7105 10.542C87.8572 10.5102 87.977 10.4394 88.0626 10.3759C88.1751 10.288 88.2241 10.244 88.2534 10.2587C88.2852 10.2 88.3072 10.1341 88.3243 10.0681C88.3292 10.034 88.3365 10.0022 88.339 9.96801C88.3414 9.93382 88.3439 9.89962 88.3414 9.88252V9.63095C88.3366 9.52104 88.3292 9.41113 88.3219 9.30855C88.3048 9.12048 88.3219 8.97393 88.3439 8.8689C88.3365 8.81028 88.3341 8.76144 88.3194 8.66862C88.295 8.34866 88.0382 8.06778 87.7349 7.99939C87.6982 7.98962 87.6591 7.98473 87.6224 7.97985C87.5858 7.97985 87.5368 7.97496 87.5197 7.97985L87.3828 7.98718C87.2947 7.9945 87.2091 8.00183 87.1284 8.00672C86.6809 7.99206 86.1428 7.9945 85.551 7.99939C85.4434 7.99939 85.3309 7.99939 85.2111 8.00183C85.0056 7.98229 84.7782 7.96764 84.5385 7.96764C83.8929 7.96519 82.9734 8.04579 82.5331 8.13128C82.4084 8.14105 82.2861 8.14838 82.1663 8.15571C81.9389 8.15082 81.7041 8.15082 81.5035 8.15815C81.1489 8.1728 80.8383 8.19723 80.5693 8.22898C80.3125 8.22898 80.0606 8.23386 79.821 8.24608H79.8185C79.7183 8.23142 79.596 8.21921 79.4541 8.20944L79.2414 8.19479C79.212 8.18746 79.1851 8.17525 79.1631 8.15815C79.1191 8.12151 79.0971 8.06778 79.102 8.02137C79.1069 7.86017 79.1093 7.67454 79.1093 7.50601C79.1166 7.40343 79.124 7.2984 79.1264 7.19094C79.1411 6.73175 79.1166 6.12847 79.0751 5.66928V5.55449C79.0726 5.2907 79.0628 5.04646 79.0482 4.82419C79.0408 4.68497 79.0335 4.68497 79.0457 4.63124C79.0555 4.58727 79.08 4.5482 79.1142 4.514C79.1607 4.50912 79.1998 4.514 79.2463 4.5311C79.3465 4.5482 79.4517 4.56285 79.5666 4.57751C79.7941 4.60437 80.046 4.62391 80.3052 4.6288C80.8065 4.64101 81.4546 4.60681 81.9144 4.55308C82.0171 4.55552 82.1174 4.55797 82.2177 4.55797C82.6041 4.55308 83.0394 4.51644 83.3426 4.46759C83.5309 4.46759 83.7168 4.46027 83.8953 4.45294C84.0714 4.47981 84.2793 4.49935 84.4994 4.50423C84.8418 4.514 85.2918 4.49202 85.6122 4.45782C85.8225 4.46515 86.0352 4.46515 86.2431 4.46271C86.4852 4.50423 86.8447 4.54087 87.2311 4.56285L87.5246 4.57751H87.6542C87.6762 4.57751 87.6982 4.57751 87.7251 4.57262C87.8205 4.56285 87.9746 4.50667 88.07 4.38455C88.1654 4.26487 88.1849 4.1574 88.1972 4.08169C88.2069 4.00353 88.2069 3.94491 88.2094 3.89117C88.2069 3.79836 88.2045 3.70799 88.1996 3.62006C88.1947 3.52236 88.1874 3.42955 88.1776 3.33429C88.1776 3.12669 88.1727 2.91419 88.1629 2.71635C88.158 2.61621 88.1531 2.51851 88.1482 2.42814C88.136 2.33044 88.136 2.19855 88.0284 2.04712C87.9599 1.93721 87.8279 1.86882 87.7349 1.85416C87.686 1.84195 87.6444 1.84195 87.6078 1.83951H87.3925C87.2311 1.82241 87.0648 1.81264 86.9083 1.80776C86.4485 1.7931 86.0059 1.79555 85.6024 1.81264C85.3896 1.78578 85.1524 1.76624 84.9029 1.76135C84.36 1.74914 83.6288 1.7931 83.2106 1.85416C82.9 1.84684 82.5527 1.84928 82.2323 1.86149C81.9169 1.84195 81.5525 1.83218 81.215 1.83463C80.8139 1.79555 80.3345 1.77112 79.909 1.77845C79.4223 1.73204 78.8501 1.70517 78.361 1.71983C77.8596 1.73693 77.3411 1.80287 77.0232 1.87615C76.9498 1.86882 76.874 1.86393 76.7933 1.85905C76.5145 1.85172 75.9985 1.80776 75.617 2.10818C75.4751 2.19855 75.3529 2.35731 75.2966 2.52828C75.2746 2.5869 75.2648 2.64796 75.2526 2.71147C75.2453 2.77497 75.2404 2.84092 75.2404 2.88488L75.233 3.20484C75.1597 3.75195 75.1083 4.57262 75.1352 5.21254C75.145 5.42992 75.1646 5.64974 75.189 5.85003C75.1963 6.21395 75.2159 6.56811 75.2453 6.80014L75.2599 6.89784C75.2599 7.00775 75.2599 7.11766 75.2575 7.23246C75.255 7.40831 75.2575 7.60615 75.2624 7.80888C75.2404 8.35843 75.2453 8.92019 75.2893 9.44777C75.2917 9.67491 75.3724 9.89962 75.4972 10.0755C75.6243 10.2513 75.7955 10.3857 75.9765 10.4589C76.0034 10.4736 76.0278 10.4907 76.0572 10.5029C76.1501 10.5493 76.2651 10.5884 76.3996 10.6079L76.5023 10.6177L76.5879 10.6226C76.6466 10.625 76.7053 10.6275 76.764 10.6299C77.0061 10.6397 77.2678 10.6421 77.5148 10.6397C78.0112 10.6861 78.6544 10.7154 79.1435 10.6885C79.3098 10.6788 79.4688 10.6641 79.618 10.6421C79.9384 10.6519 80.2881 10.6519 80.6011 10.6397C80.5546 11.4384 80.5693 12.2444 80.628 12.899V13.0357C80.6133 13.0357 80.5987 13.0357 80.584 13.0357C80.4104 13.0113 80.2147 12.9918 79.9995 12.982C79.6865 12.9698 79.2903 12.982 78.943 13.004H78.8354C78.3952 12.9918 77.9868 13.004 77.6248 13.0235C77.055 12.9673 76.1966 12.938 75.6317 12.982L75.5265 12.9918C75.4116 12.9918 75.2991 12.9967 75.1915 12.9991H75.1108C75.0692 13.004 75.03 13.0064 74.9909 13.0162C74.9127 13.0309 74.8393 13.0577 74.7757 13.0919C74.5629 13.1847 74.3869 13.3899 74.3379 13.6439C74.3306 13.6805 74.3257 13.7172 74.3233 13.7563L74.3184 13.8344C74.3184 13.8833 74.3159 13.9346 74.3135 13.9859C74.3135 14.0909 74.3086 14.2008 74.3086 14.3131C74.3086 14.5403 74.3086 14.7772 74.3159 15.0092V15.19C74.3135 15.2339 74.3159 15.3634 74.3379 15.4367C74.3575 15.5197 74.3844 15.5905 74.404 15.6443L74.4162 15.676V15.6834H74.4211C74.4211 15.6834 74.4211 15.6834 74.4284 15.6834L74.4627 15.676C74.5434 15.6565 74.5947 15.6565 74.629 15.6589V16.0326C74.8858 16.0473 75.1474 16.0546 75.3749 16.0522C75.9398 16.0473 76.4167 16.0155 76.7958 15.9691H76.9352C77.0819 15.9667 77.2164 15.9594 77.346 15.952C77.6786 16.0058 78.1311 16.0473 78.559 16.0448C78.7743 16.0448 79.009 16.0326 79.2291 16.0131C79.6645 16.0253 80.1071 16.018 80.5253 15.996C80.5962 16.0131 80.6769 16.0302 80.7772 16.0424C81.3128 16.1132 82.4206 16.1328 83.0712 16.0937C83.4649 16.0693 83.7853 16.0351 84.0445 15.9936H84.1301C84.3135 16.0229 84.5288 16.0448 84.7684 16.0571C85.3236 16.0815 86.1551 16.04 86.5488 15.9789H86.676C86.7445 15.9813 86.8203 15.9838 86.8961 15.9838C87.0208 16.0033 87.1676 16.0204 87.3265 16.0302C87.6909 16.0522 88.2118 16.0448 88.6349 16.0204C88.7963 16.0277 88.9797 16.0302 89.1754 16.0033C89.3295 15.9789 89.5178 15.9545 89.7305 15.7933C89.8357 15.7127 89.936 15.5735 89.9727 15.422C89.9898 15.3536 89.9947 15.2608 89.9947 15.2217V15.0972L89.9996 15.1192ZM74.6339 15.5075C74.6339 15.4855 74.6339 15.4269 74.6339 15.4416V15.5148C74.6339 15.5148 74.6339 15.5099 74.6339 15.5075Z" fill="#222222"/>
<path d="M35.8 8.19048V8.13674C35.7951 8.10987 35.7951 8.08545 35.7903 8.05858C35.7731 7.956 35.734 7.86074 35.6778 7.78259C35.5873 7.6336 35.4308 7.5188 35.2498 7.48461C35.2082 7.47484 35.1544 7.47239 35.1202 7.46995H35.0346L34.8609 7.46507C34.0074 7.51147 33.0952 7.55299 32.1854 7.58963C31.9213 7.5994 31.7868 7.57986 31.7232 7.55788L31.6107 7.56521C31.4664 7.57742 31.3319 7.58719 31.2023 7.5994L31.0311 7.61894L30.9406 7.6336C30.877 7.64581 30.723 7.65802 30.586 7.66046C30.5053 7.66046 30.3635 7.66046 30.251 7.66046C30.1923 7.67268 30.0993 7.68733 29.9893 7.6971C30.0015 7.6971 30.0064 7.69954 30.0162 7.70198H29.9844V6.81049C29.9917 7.0181 29.9966 7.24036 30.0064 7.41377C30.0113 7.51636 30.0211 7.5823 30.026 7.66046C30.048 7.38447 30.0724 7.10603 30.0945 6.8227L30.0896 6.61021V6.47587C30.1727 6.47099 30.2559 6.47099 30.3366 6.47587L30.4466 6.48808C30.5053 6.49541 30.5469 6.50518 30.5713 6.51739C30.5787 6.51739 30.5787 6.52228 30.5836 6.52228C30.6618 6.51739 30.7523 6.51495 30.8501 6.52228C30.9724 6.5296 31.0947 6.53449 31.2219 6.54182H31.376C31.4689 6.53938 31.5716 6.53937 31.6694 6.5467H31.9604C32.0852 6.53937 32.2001 6.53449 32.3102 6.52472H32.3322L32.3713 6.51984C32.4789 6.50762 32.5987 6.50274 32.7357 6.51007C32.7871 6.51251 32.8262 6.51739 32.8629 6.52228C32.9974 6.50274 33.2077 6.49785 33.3593 6.52228C33.4303 6.53205 33.4474 6.53449 33.5256 6.53693C33.5525 6.53693 33.6748 6.53693 33.736 6.53693C33.7922 6.53693 33.9218 6.52472 34.0148 6.46854C34.115 6.41725 34.1884 6.33421 34.2251 6.27559C34.3058 6.15591 34.3327 5.99959 34.3302 5.89457C34.3327 5.79687 34.3449 5.71138 34.3596 5.64788C34.3791 5.56239 34.4036 5.53064 34.4281 5.53064L34.433 5.09588C34.433 5.02017 34.4256 4.84675 34.3596 4.7344C34.2471 4.51702 34.0783 4.41199 33.9487 4.35582C33.8778 4.33628 33.7849 4.33628 33.7408 4.34361C33.3985 4.33139 33.0414 4.33139 32.7675 4.34849C32.3786 4.32895 31.9091 4.31918 31.398 4.30941L31.1045 4.30453C30.926 4.28499 30.7303 4.27033 30.52 4.26545C29.9575 4.25079 29.1578 4.29231 28.7738 4.34605C28.6638 4.35093 28.5586 4.35338 28.4535 4.35826C28.2554 4.34849 28.0524 4.34605 27.8763 4.34605C27.5682 4.34849 27.2967 4.36315 27.0619 4.38024C26.8394 4.37292 26.6217 4.37292 26.4114 4.3778C26.2377 4.35338 25.9834 4.33139 25.6948 4.3143C25.5481 4.30941 25.3989 4.30208 25.2473 4.29476C25.1739 4.29231 25.1274 4.25812 25.0932 4.20683C25.0859 4.18973 25.081 4.17508 25.081 4.15798C25.081 4.15065 25.081 4.14088 25.081 4.13355V4.08959C25.0932 3.69147 25.0761 3.1639 25.0443 2.76578V2.67541C25.0443 2.57038 25.1274 2.48489 25.2228 2.4678C25.235 2.46291 25.306 2.46047 25.3451 2.45803L25.4796 2.44826C25.5652 2.44093 25.6484 2.4336 25.7266 2.42628C26.0079 2.48245 26.4309 2.5313 26.8834 2.53863C27.3211 2.54596 27.8836 2.52153 28.2847 2.48245C28.3752 2.48245 28.4632 2.48245 28.5488 2.48489C28.8839 2.48245 29.263 2.45314 29.5271 2.41651C29.6909 2.41651 29.8523 2.41162 30.0089 2.40429C30.1629 2.42383 30.3439 2.43849 30.5347 2.44337C30.833 2.4507 31.2243 2.4336 31.5031 2.40918C31.6865 2.41406 31.8724 2.41406 32.0534 2.41162C32.2637 2.44337 32.5767 2.47024 32.9118 2.48734C33.0805 2.49466 33.2542 2.50199 33.4229 2.50443H33.5476C33.5648 2.50443 33.5941 2.50443 33.6283 2.50443C33.6601 2.50443 33.6944 2.49711 33.7237 2.48978C33.8509 2.46047 33.9634 2.39697 34.0465 2.31392C34.1419 2.22111 34.2055 2.10143 34.23 1.97686C34.2495 1.9158 34.2544 1.82787 34.252 1.78147V1.64469C34.2471 1.55432 34.2446 1.46639 34.2422 1.37846C34.2349 1.20749 34.2275 1.04873 34.2153 0.921722V0.853333C34.2177 0.821581 34.2153 0.789829 34.2128 0.758077C34.2031 0.694574 34.1859 0.63107 34.1542 0.570008C34.1297 0.518717 34.0955 0.467425 34.0539 0.423461C33.9879 0.34286 33.8998 0.276913 33.7995 0.237834C33.7506 0.215852 33.6968 0.20364 33.643 0.196312L33.5672 0.191427H33.5159C33.1148 0.176773 32.7308 0.179215 32.3811 0.191427C32.1952 0.171888 31.9898 0.157233 31.7721 0.152348C31.3001 0.142578 30.6643 0.176773 30.2999 0.220737C30.0309 0.215852 29.7276 0.215852 29.4488 0.225622C29.1749 0.210967 28.857 0.20364 28.5635 0.206082C28.2162 0.176773 27.798 0.159675 27.4263 0.16456C27.0032 0.130366 26.5068 0.108384 26.0788 0.120596C25.6435 0.132808 25.1935 0.181657 24.9147 0.237834C24.8486 0.232949 24.7826 0.230507 24.7166 0.225622C24.4476 0.215852 24.0832 0.223179 23.7897 0.240276C23.6796 0.237834 23.5843 0.228064 23.4571 0.228064C23.2859 0.225622 23.0731 0.259816 22.8677 0.350187C22.606 0.435673 22.2954 0.638397 22.0949 0.953474C21.9946 1.10735 21.9188 1.28565 21.8797 1.46639C21.8406 1.64713 21.8454 1.83764 21.8503 1.96465C21.8577 2.15516 21.8724 2.34323 21.8895 2.51909C21.8944 2.83661 21.9115 3.14436 21.931 3.34464L21.9408 3.42768C21.9408 3.52294 21.9408 3.6182 21.9384 3.71834C21.9359 3.86977 21.9384 4.04318 21.9408 4.21904C21.931 4.45596 21.9286 4.7002 21.9335 4.93957C21.9359 5.05925 21.9384 5.17648 21.9433 5.29372C21.9457 5.4134 21.9604 5.55751 22.0044 5.67963C22.0509 5.86281 22.1511 6.03379 22.2857 6.15835C22.4177 6.28292 22.5742 6.36352 22.7234 6.40992C22.7454 6.42214 22.7674 6.42946 22.7895 6.43923C22.9411 6.50518 23.1514 6.55159 23.3813 6.56136C23.5965 6.56868 23.8215 6.57113 24.0367 6.56868C24.4671 6.60532 25.0296 6.62486 25.4552 6.60532C25.5994 6.59799 25.7388 6.58578 25.8685 6.57113H25.9051C25.9051 6.77141 25.91 6.96925 25.9174 7.1451C25.91 7.23059 25.9051 7.31608 25.8978 7.39912V7.46018C25.3549 7.44797 24.8266 7.46018 24.3791 7.49438C24.1565 7.49438 23.934 7.49438 23.7604 7.50415C23.6087 7.48461 23.4375 7.46995 23.2517 7.46507C22.9802 7.45774 22.6329 7.46507 22.3321 7.48216H22.2392C21.8552 7.47239 21.5006 7.48216 21.1876 7.49682C21.124 7.49193 21.058 7.48705 20.9919 7.48216C20.9112 7.47484 20.7841 7.48705 20.6862 7.53346C20.4784 7.61894 20.3121 7.83143 20.29 8.07568C20.2852 8.14407 20.2852 8.17338 20.2852 8.21246V8.55196C20.2852 8.69851 20.29 8.83773 20.2998 8.95985L20.3072 9.05022C20.3072 9.09907 20.3072 9.15036 20.3072 9.19921C20.3072 9.24806 20.3145 9.33843 20.3341 9.39949C20.3732 9.53383 20.4563 9.64374 20.5493 9.71701C20.6202 9.78052 20.7082 9.82936 20.8036 9.85623C20.8501 9.87089 20.9014 9.87821 20.9528 9.88066L21.0604 9.88554C21.3783 9.9002 21.8063 9.90264 22.2098 9.89287C22.4153 9.89531 22.6354 9.89287 22.8384 9.88798C23.0829 9.9002 23.3348 9.90752 23.5525 9.90508C24.044 9.9002 24.4598 9.87821 24.7875 9.84158H24.9098C25.037 9.83669 25.1543 9.83425 25.2668 9.82936C25.5554 9.86844 25.9492 9.9002 26.3233 9.89775C26.5117 9.89775 26.7146 9.88798 26.9078 9.87333C27.2845 9.8831 27.6709 9.87821 28.0353 9.86112C28.0988 9.87333 28.1673 9.88554 28.2529 9.89531C28.72 9.94905 29.6836 9.9637 30.2485 9.93439C30.5909 9.91729 30.8697 9.89043 31.0947 9.85867H31.1681C31.3295 9.88066 31.5153 9.89775 31.7232 9.90508C32.205 9.92218 32.9289 9.89287 33.2713 9.84646H33.3813L33.5721 9.85135C33.6821 9.866 33.8069 9.87821 33.9463 9.88554C34.2618 9.90264 34.7166 9.89775 35.0835 9.87821C35.1104 9.87821 35.1691 9.88066 35.2204 9.87333C35.2718 9.86844 35.3256 9.85379 35.3745 9.83425C35.4748 9.79517 35.5677 9.73167 35.6411 9.64618C35.6998 9.58023 35.7462 9.49719 35.7756 9.40193C35.7903 9.35553 35.8 9.30424 35.8025 9.25539C35.8074 9.19677 35.8025 9.18211 35.8049 9.14303C35.8049 9.00626 35.8049 8.86459 35.8049 8.72049C35.8025 8.57638 35.8 8.42984 35.7951 8.28573V8.18071L35.8 8.19048Z" fill="#222222"/>
<path d="M35.4449 13.4581C35.4082 13.3556 35.3642 13.2701 35.3128 13.1919C35.2981 13.0503 35.2394 12.8842 35.1685 12.7303C35.078 12.5886 34.9875 12.447 34.8726 12.381L34.853 12.3566C34.7992 12.2882 34.7332 12.2174 34.6647 12.1514C34.5938 12.0904 34.5107 12.0391 34.4373 11.9951C34.4128 11.9463 34.3786 11.8974 34.3346 11.8461C34.2881 11.7997 34.2319 11.7582 34.1658 11.7167C34.1291 11.6947 34.0925 11.6751 34.0558 11.6581C33.9384 11.5384 33.7721 11.4798 33.5985 11.4089C33.4077 11.1989 32.9259 10.9522 32.6202 10.9766C32.4637 10.9278 32.3023 10.9155 32.1531 10.918L32.1042 10.9033C32.043 10.8887 31.977 10.8765 31.911 10.8691C31.8254 10.8301 31.7276 10.8105 31.6273 10.791L31.6028 10.7763L31.5882 10.769C31.5393 10.791 31.4757 10.7934 31.395 10.769C31.1969 10.7031 30.9352 10.6762 30.6857 10.6737C30.4363 10.664 30.1991 10.6933 30.0401 10.7446C29.9912 10.7592 29.9472 10.7592 29.8885 10.747C29.7393 10.7177 29.5485 10.6835 29.4018 10.7201C29.3235 10.7372 29.2893 10.7763 29.211 10.791C29.1793 10.7959 29.1401 10.7983 29.101 10.7983C28.9396 10.7959 28.7733 10.7934 28.6021 10.7934H28.5899C28.5703 10.7812 28.5507 10.7666 28.5434 10.7543C28.5532 10.7666 28.5385 10.7495 28.5018 10.7495C28.4627 10.747 28.426 10.7495 28.3869 10.7495C28.2842 10.7519 28.1863 10.7641 28.0885 10.7763C28.0005 10.7861 27.9442 10.7739 27.9026 10.7421C27.8391 10.6933 27.6116 10.7079 27.4967 10.7104C27.2937 10.7104 27.1029 10.6811 26.9024 10.6737C26.4304 10.6689 25.9706 10.7397 25.5353 10.8936C25.3861 10.94 25.2908 10.8862 25.2712 10.8105C25.0927 10.8301 24.9068 10.8789 24.7894 10.9693C24.7772 10.979 24.7649 10.9888 24.7552 10.9986C24.7111 11.0108 24.6671 11.0279 24.6231 11.045C24.513 11.0401 24.3614 11.0548 24.2122 11.0914C24.0606 11.128 23.9163 11.2013 23.8136 11.2795C23.7549 11.2795 23.6913 11.2795 23.6229 11.2868C23.5568 11.299 23.4859 11.321 23.4125 11.3454C23.2707 11.3992 23.1191 11.47 23.0041 11.5945C22.9063 11.6922 22.85 11.7802 22.8134 11.8705C22.7473 11.9194 22.6764 11.9756 22.603 12.0366C22.5297 12.0977 22.4539 12.1661 22.3878 12.2516C22.3242 12.3248 22.2509 12.4103 22.1995 12.508C22.0797 12.6375 21.9476 12.8255 21.9036 13.0038L21.8889 13.0356C21.7715 13.1162 21.6786 13.2847 21.6248 13.507C21.6052 13.6535 21.6052 13.7854 21.6321 13.9076C21.6052 14.0004 21.5857 14.1054 21.5783 14.2104C21.5759 14.3154 21.5954 14.4205 21.6248 14.5084C21.6175 14.6598 21.6664 14.8186 21.7055 14.97C21.7202 15.1508 21.7715 15.3755 21.9085 15.5147L21.9403 15.5464C21.9623 15.6099 21.9867 15.6735 22.0283 15.7321C22.0528 15.8029 22.0919 15.8859 22.153 15.9763C22.2068 16.0496 22.2778 16.1058 22.3438 16.1619C22.4147 16.2157 22.4832 16.2694 22.5664 16.3036C22.6226 16.3769 22.696 16.4575 22.7767 16.5308C22.8598 16.6016 22.9552 16.6529 23.0457 16.6944C23.0799 16.7359 23.1239 16.7823 23.1851 16.8287C23.2927 16.8996 23.415 16.9582 23.5495 17.0095C23.684 17.0632 23.8332 17.0852 23.9897 17.1218L24.041 17.1316H24.0459C24.1438 17.1707 24.2416 17.178 24.337 17.178C24.4886 17.2513 24.6745 17.3294 24.8701 17.349C24.9508 17.3832 25.0389 17.4174 25.1367 17.4442C25.303 17.4955 25.5231 17.5151 25.6967 17.5004L25.7774 17.5102H25.7823C25.8801 17.5395 25.9877 17.5541 26.1027 17.5566C26.269 17.6079 26.4891 17.6225 26.7385 17.6421C26.8046 17.6494 26.8779 17.6494 26.9513 17.6421C27.0491 17.6567 27.1494 17.6616 27.2472 17.6592C27.4355 17.7422 27.7388 17.8082 27.9736 17.7593L28.0665 17.7715C28.3331 17.8057 28.717 17.7862 28.92 17.6909L28.9885 17.6812C29.1108 17.7031 29.2551 17.7129 29.3773 17.6958C29.4409 17.708 29.5143 17.7153 29.595 17.7031L29.6586 17.6934C29.7662 17.7202 29.8885 17.7398 30.0254 17.7495C30.2651 17.7715 30.6001 17.73 30.8251 17.647C30.9645 17.6274 31.1064 17.603 31.2189 17.5541L31.2751 17.5468C31.3289 17.537 31.3876 17.5224 31.4463 17.5077C31.5368 17.5029 31.6297 17.4906 31.7227 17.4735L31.7618 17.4809C31.8694 17.5004 32.0161 17.4906 32.1678 17.4711C32.2093 17.4711 32.2558 17.4662 32.3072 17.4589C32.5566 17.4271 32.7792 17.2879 33.0237 17.1511C33.1142 17.1292 33.2096 17.0998 33.2976 17.0608C33.5177 17.0534 33.8014 16.9338 33.9604 16.7799L34.0484 16.7359C34.2857 16.6211 34.5669 16.3549 34.6329 16.1644L34.6378 16.1546C34.7112 16.1082 34.8017 16.0349 34.8824 15.9543C34.9533 15.8615 35.0145 15.7589 35.0511 15.6686C35.1 15.5904 35.1294 15.4952 35.171 15.3999L35.1881 15.3584C35.2248 15.3193 35.2541 15.2729 35.2786 15.2216C35.3177 15.141 35.3691 15.036 35.3935 14.9236V14.9187C35.5451 14.6672 35.6014 14.1371 35.4767 13.8514C35.4865 13.7415 35.484 13.6071 35.4424 13.463L35.4449 13.4581ZM30.1722 15.4023C30.1771 15.4146 30.1697 15.3975 30.1477 15.395C30.1257 15.3926 30.1061 15.3901 30.0841 15.3926C30.0279 15.3926 29.9716 15.4048 29.9178 15.4146C29.8689 15.4243 29.8371 15.4072 29.8151 15.3755C29.7809 15.3266 29.6537 15.3364 29.5901 15.3266C29.4776 15.312 29.3725 15.2729 29.2624 15.2509C29.0032 15.1996 28.7488 15.2167 28.4994 15.2827C28.4138 15.3046 28.3673 15.2289 28.3673 15.1483C28.2719 15.1263 28.1668 15.1312 28.0934 15.1874C28.0861 15.1947 28.0787 15.2021 28.0714 15.2094C28.0469 15.2094 28.02 15.2094 27.9956 15.2143C27.8831 15.1386 27.6752 15.0897 27.5431 15.1581C27.4306 15.0604 27.2595 14.992 27.0932 15.0531C27.0222 15.0799 26.9758 15.119 26.9342 15.1703C26.8535 15.1532 26.7606 15.1581 26.6578 15.1483C26.6114 15.1434 26.5576 15.1483 26.5038 15.1581C26.4231 15.1239 26.3179 15.1019 26.2299 15.1166H26.2127C26.1663 15.0384 26.0929 14.9847 25.9926 14.97C25.9266 14.9603 25.863 14.9725 25.797 14.9944C25.7236 14.9261 25.6282 14.8821 25.5329 14.8943C25.4693 14.8601 25.4057 14.8308 25.3348 14.8137C25.2785 14.7429 25.2076 14.6818 25.1147 14.6794H25.0927C25.0731 14.6574 25.0511 14.6354 25.0291 14.6159C25.0193 14.5792 24.9997 14.545 24.9704 14.5157C24.9215 14.4644 24.8579 14.44 24.7845 14.4131C24.7845 14.3301 24.7821 14.2666 24.7552 14.2519C24.7772 14.2446 24.7918 14.2397 24.8016 14.2324C24.8408 14.2055 24.8481 14.1054 24.919 13.9735L24.9288 13.9515C24.9655 13.9198 24.9826 13.8758 25.0022 13.8294C25.0878 13.8099 25.1685 13.7659 25.2467 13.7048C25.2908 13.6975 25.3397 13.6926 25.3886 13.6755C25.4668 13.6462 25.5647 13.5974 25.6307 13.529L25.6698 13.5143C25.7236 13.5119 25.7725 13.4875 25.8263 13.4606C25.9217 13.4704 26.0269 13.4337 26.154 13.402C26.1883 13.3946 26.2225 13.38 26.2592 13.3653C26.3106 13.3653 26.3619 13.358 26.4133 13.3433C26.5233 13.3995 26.6799 13.4362 26.7972 13.38L26.8461 13.3898C26.9807 13.4117 27.191 13.3898 27.3059 13.3018L27.3426 13.2945C27.4111 13.3189 27.4893 13.3311 27.5578 13.3165C27.5921 13.3287 27.6336 13.336 27.6777 13.3311C27.6899 13.3311 27.7021 13.3263 27.7119 13.3238C27.7706 13.358 27.8366 13.3824 27.9124 13.3995C28.0445 13.4288 28.2279 13.4191 28.3551 13.3604C28.4309 13.358 28.5116 13.3409 28.5752 13.3116H28.607C28.6363 13.3116 28.6706 13.3067 28.7024 13.2994C28.7513 13.3092 28.8026 13.3116 28.854 13.3067L28.8736 13.3189C28.9298 13.3531 29.0081 13.38 29.0912 13.3922C29.1132 13.3995 29.1377 13.4069 29.1646 13.4093C29.2991 13.4239 29.4311 13.3702 29.5803 13.3043C29.6292 13.3165 29.683 13.3214 29.7344 13.3189C29.8469 13.38 30.0034 13.4093 30.1159 13.3433C30.133 13.3458 30.1477 13.3507 30.1673 13.3531C30.3018 13.3751 30.4803 13.3458 30.5781 13.2701H30.583C30.6662 13.3214 30.7982 13.3556 30.8961 13.3263C30.9401 13.3263 30.9865 13.3311 31.0404 13.3336H31.0624C31.0844 13.3531 31.1064 13.3702 31.1333 13.3849C31.1724 13.4093 31.2238 13.4239 31.2776 13.441C31.3925 13.5485 31.5955 13.6462 31.7496 13.6096C31.7863 13.6511 31.8278 13.6902 31.8914 13.7073C31.9379 13.7195 31.977 13.7244 32.0235 13.7195C32.1017 13.8318 32.1996 13.932 32.3121 13.9442L32.3194 13.954C32.3585 14.0028 32.4074 14.0468 32.4637 14.0859C32.4392 14.1323 32.4343 14.1713 32.4441 14.2129C32.4466 14.2251 32.4539 14.2373 32.4637 14.2471C32.4515 14.2715 32.4466 14.2935 32.449 14.3203C32.4417 14.3448 32.449 14.3741 32.449 14.4083C32.3341 14.4571 32.1947 14.5304 32.1531 14.6891C32.1017 14.7355 32.0528 14.7917 32.0064 14.8552L31.9844 14.865C31.9599 14.8797 31.9281 14.8943 31.9036 14.9163C31.8572 14.9212 31.8107 14.9358 31.7618 14.9529L31.7471 14.948H31.7374C31.7276 14.9822 31.7031 15.0042 31.6591 15.0091C31.4488 15.0286 31.1455 15.1508 30.9939 15.29C30.9719 15.3095 30.9474 15.3169 30.9132 15.312C30.83 15.2998 30.7249 15.2973 30.6466 15.3364C30.605 15.3584 30.5904 15.3999 30.5463 15.417C30.5146 15.4316 30.473 15.4316 30.4363 15.4365C30.3605 15.439 30.2871 15.4414 30.2088 15.4414H30.2015C30.1893 15.4292 30.1795 15.4146 30.1746 15.4023H30.1722Z" fill="#222222"/>
</svg>
