<svg width="26" height="26" viewBox="0 0 26 26" fill="none" xmlns="http://www.w3.org/2000/svg">
<path d="M2.48083 8.42835V18.9692C2.48083 21.0275 3.94334 21.8725 5.72 20.8542L8.26584 19.4025C8.81834 19.0883 9.73917 19.0558 10.3133 19.3483L16.0008 22.1975C16.575 22.4792 17.4958 22.4575 18.0483 22.1433L22.7392 19.4567C23.335 19.11 23.8333 18.265 23.8333 17.5717V7.03085C23.8333 4.97251 22.3708 4.12751 20.5942 5.14585L18.0483 6.59751C17.4958 6.91168 16.575 6.94418 16.0008 6.65168L10.3133 3.81335C9.73917 3.53168 8.81834 3.55335 8.26584 3.86751L3.575 6.55418C2.96833 6.90085 2.48083 7.74585 2.48083 8.42835Z" fill="#1E1E1E" stroke="#1E1E1E" stroke-width="1.5" stroke-linecap="round" stroke-linejoin="round"/>
<path d="M9.27344 2.33325V20.4133" stroke="white" stroke-width="1.5" stroke-linecap="round" stroke-linejoin="round"/>
<path d="M17.041 6.17163V23.6716" stroke="white" stroke-width="1.5" stroke-linecap="round" stroke-linejoin="round"/>
</svg>
