<svg width="24" height="24" viewBox="0 0 24 24" fill="none" xmlns="http://www.w3.org/2000/svg">
<path d="M11.2333 4.93152C5.6 3.1155 3.07184 5.77149 2.5 7.17241L5.5 18.5C7.21551 16.1651 9.43316 14.8159 15.0086 15.7499C18.6898 16.3665 21.008 14.7635 22.027 13.4847C22.3157 13.1223 22.0941 12.6168 21.6891 12.3918C20.5167 11.7403 19.1519 10.4626 18.3951 9.66798C18.2791 9.54621 18.2363 9.37239 18.2761 9.209C18.9327 6.5114 19.1276 4.49535 19.1408 3.24402C19.1455 2.79298 18.6139 2.65411 18.3166 2.99333C17.1324 4.34449 14.833 6.09195 11.2333 4.93152Z" stroke="#9E9E9E" stroke-width="1.5" stroke-linejoin="round"/>
<path d="M2 5.5L6.72345 23.1281" stroke="#9E9E9E" stroke-width="1.5" stroke-linecap="round" stroke-linejoin="round"/>
</svg>
