<svg width="24" height="24" viewBox="0 0 24 24" fill="none" xmlns="http://www.w3.org/2000/svg">
<rect x="1.71484" y="16.2861" width="5.14286" height="6.85714" rx="1" fill="url(#paint0_linear_2285_28001)"/>
<rect x="1.71484" y="16.2861" width="5.14286" height="6.85714" rx="1" fill="#2CCA61"/>
<rect x="9.42773" y="12.8574" width="5.14286" height="10.2857" rx="1" fill="url(#paint1_linear_2285_28001)"/>
<rect x="9.42773" y="12.8574" width="5.14286" height="10.2857" rx="1" fill="#2CCA61"/>
<rect x="17.1426" y="9.42871" width="5.14286" height="13.7143" rx="1" fill="url(#paint2_linear_2285_28001)"/>
<rect x="17.1426" y="9.42871" width="5.14286" height="13.7143" rx="1" fill="#2CCA61"/>
<path fill-rule="evenodd" clip-rule="evenodd" d="M18.9616 2.71387H16.2853V0.713867H21.4282C21.9805 0.713867 22.4282 1.16158 22.4282 1.71387V6.85672H20.4282V4.07997L14.5373 9.62897C14.1531 9.99091 13.5537 9.99187 13.1683 9.63116L9.42846 6.13079L3.25271 11.8747L1.89062 10.4102L8.74957 4.03088C9.13431 3.67305 9.73035 3.67399 10.114 4.03303L13.8495 7.52933L18.9616 2.71387Z" fill="#A3F2BE"/>
<defs>
<linearGradient id="paint0_linear_2285_28001" x1="4.28627" y1="16.2861" x2="4.28627" y2="23.1433" gradientUnits="userSpaceOnUse">
<stop stop-color="#EFA946"/>
<stop offset="1" stop-color="#EB823E"/>
</linearGradient>
<linearGradient id="paint1_linear_2285_28001" x1="11.9992" y1="12.8574" x2="11.9992" y2="23.1431" gradientUnits="userSpaceOnUse">
<stop stop-color="#EFA946"/>
<stop offset="1" stop-color="#EB823E"/>
</linearGradient>
<linearGradient id="paint2_linear_2285_28001" x1="19.714" y1="9.42871" x2="19.714" y2="23.143" gradientUnits="userSpaceOnUse">
<stop stop-color="#EFA946"/>
<stop offset="1" stop-color="#EB823E"/>
</linearGradient>
</defs>
</svg>
