<svg width="24" height="24" viewBox="0 0 24 24" fill="none" xmlns="http://www.w3.org/2000/svg">
<mask id="path-1-inside-1_2350_30441" fill="white">
<path fill-rule="evenodd" clip-rule="evenodd" d="M15.2619 13.0367C16.9099 11.9672 18 10.1109 18 8C18 4.68629 15.3137 2 12 2C8.68629 2 6 4.68629 6 8C6 10.1109 7.09009 11.9672 8.73804 13.0367C5.35171 14.1496 2.67859 16.7743 1.4941 18.8043C1.13513 19.4195 1.31443 20.1562 1.95336 20.471C3.24681 21.1083 6.10911 22 12 22C17.8908 22 20.7531 21.1083 22.0466 20.471C22.6855 20.1562 22.8648 19.4195 22.5058 18.8043C21.3213 16.7743 18.6482 14.1496 15.2619 13.0367Z"/>
</mask>
<path fill-rule="evenodd" clip-rule="evenodd" d="M15.2619 13.0367C16.9099 11.9672 18 10.1109 18 8C18 4.68629 15.3137 2 12 2C8.68629 2 6 4.68629 6 8C6 10.1109 7.09009 11.9672 8.73804 13.0367C5.35171 14.1496 2.67859 16.7743 1.4941 18.8043C1.13513 19.4195 1.31443 20.1562 1.95336 20.471C3.24681 21.1083 6.10911 22 12 22C17.8908 22 20.7531 21.1083 22.0466 20.471C22.6855 20.1562 22.8648 19.4195 22.5058 18.8043C21.3213 16.7743 18.6482 14.1496 15.2619 13.0367Z" fill="#F76131"/>
<path d="M15.2619 13.0367L14.4454 11.7784C13.961 12.0927 13.7001 12.6572 13.7744 13.2297C13.8487 13.8023 14.2451 14.2814 14.7936 14.4617L15.2619 13.0367ZM8.73804 13.0367L9.20637 14.4617C9.75489 14.2814 10.1512 13.8023 10.2256 13.2297C10.2999 12.6571 10.0389 12.0927 9.55461 11.7784L8.73804 13.0367ZM1.4941 18.8043L0.198515 18.0484L0.198514 18.0484L1.4941 18.8043ZM1.95336 20.471L1.2904 21.8166L1.2904 21.8166L1.95336 20.471ZM22.0466 20.471L22.7095 21.8166L22.7095 21.8166L22.0466 20.471ZM22.5058 18.8043L23.8014 18.0484L23.8014 18.0484L22.5058 18.8043ZM16.5 8C16.5 9.58164 15.6852 10.9738 14.4454 11.7784L16.0785 14.2949C18.1346 12.9606 19.5 10.6402 19.5 8H16.5ZM12 3.5C14.4853 3.5 16.5 5.51472 16.5 8H19.5C19.5 3.85786 16.1421 0.5 12 0.5V3.5ZM7.5 8C7.5 5.51472 9.51472 3.5 12 3.5V0.5C7.85786 0.5 4.5 3.85786 4.5 8H7.5ZM9.55461 11.7784C8.3148 10.9738 7.5 9.58164 7.5 8H4.5C4.5 10.6402 5.86537 12.9606 7.92146 14.2949L9.55461 11.7784ZM8.2697 11.6117C4.49127 12.8535 1.54307 15.744 0.198515 18.0484L2.78968 19.5603C3.81412 17.8046 6.21216 15.4457 9.20637 14.4617L8.2697 11.6117ZM0.198514 18.0484C-0.549803 19.3309 -0.213667 21.0755 1.2904 21.8166L2.61633 19.1255C2.64214 19.1382 2.68194 19.1651 2.7204 19.2119C2.75832 19.258 2.78495 19.3114 2.79922 19.3651C2.82861 19.4758 2.79774 19.5465 2.78968 19.5603L0.198514 18.0484ZM1.2904 21.8166C2.86276 22.5913 5.97693 23.5 12 23.5V20.5C6.24129 20.5 3.63086 19.6254 2.61632 19.1255L1.2904 21.8166ZM12 23.5C18.023 23.5 21.1372 22.5913 22.7095 21.8166L21.3836 19.1255C20.3691 19.6254 17.7586 20.5 12 20.5V23.5ZM22.7095 21.8166C24.2136 21.0755 24.5497 19.3309 23.8014 18.0484L21.2103 19.5603C21.2022 19.5465 21.1713 19.4758 21.2007 19.3651C21.215 19.3114 21.2416 19.258 21.2795 19.2119C21.318 19.1651 21.3578 19.1382 21.3836 19.1255L22.7095 21.8166ZM23.8014 18.0484C22.4569 15.744 19.5087 12.8535 15.7303 11.6117L14.7936 14.4617C17.7878 15.4458 20.1858 17.8046 21.2103 19.5603L23.8014 18.0484Z" fill="#F76131" mask="url(#path-1-inside-1_2350_30441)"/>
</svg>
