<svg width="26" height="26" viewBox="0 0 26 26" fill="none" xmlns="http://www.w3.org/2000/svg">
<path fill-rule="evenodd" clip-rule="evenodd" d="M12.8316 23.4671C8.83211 23.4671 5.41666 22.8447 5.41666 20.3522C5.41666 17.8597 8.81044 15.5587 12.8316 15.5587C16.8311 15.5587 20.2465 17.8374 20.2465 20.3299C20.2465 22.8214 16.8527 23.4671 12.8316 23.4671Z" stroke="#1E1E1E" stroke-width="1.5" stroke-linecap="round" stroke-linejoin="round"/>
<path fill-rule="evenodd" clip-rule="evenodd" d="M12.8237 12.1047C15.4484 12.1047 17.5756 9.97748 17.5756 7.35285C17.5756 4.72823 15.4484 2.59998 12.8237 2.59998C10.1991 2.59998 8.07086 4.72823 8.07086 7.35285C8.062 9.96861 10.1745 12.0959 12.7903 12.1047C12.8021 12.1047 12.8129 12.1047 12.8237 12.1047Z" stroke="#1E1E1E" stroke-width="1.5" stroke-linecap="round" stroke-linejoin="round"/>
</svg>
