<svg width="74" height="62" viewBox="0 0 74 62" fill="none" xmlns="http://www.w3.org/2000/svg">
<path d="M22.8882 2.04544C22.8882 2.04544 30.241 0.0773787 38.083 2.04544C42.8341 3.23795 47.3187 5.29281 51.9139 6.95207C58.511 9.33424 64.6502 8.30254 71.4146 7.57963L64.429 37.4634C64.429 37.4634 50.092 35.9877 42.7363 32.7887C35.3806 29.5897 22.2728 29.0988 16.3903 32.174L22.8882 2.04544Z" fill="#F3FAF8"/>
<path d="M23.2653 3.30741C23.6729 3.19827 24.089 3.11607 24.5022 3.03811C24.974 2.94835 25.4458 2.86993 25.9175 2.80285L26.1341 2.77165C26.3492 2.74189 25.8425 2.80993 26.0619 2.78158L26.5657 2.71921C26.8927 2.68236 27.221 2.64835 27.548 2.62001C29.1318 2.47831 30.7234 2.44422 32.3119 2.51796C32.7563 2.53922 33.1993 2.57041 33.6423 2.60867C33.8616 2.62852 34.0796 2.65119 34.299 2.67528L34.6542 2.71639L34.8084 2.73482C34.8367 2.73482 35.0604 2.76458 34.9005 2.74757C34.7405 2.73056 34.9189 2.74757 34.9415 2.74757L35.1495 2.77875L35.4609 2.82693C35.7044 2.86662 35.9492 2.90914 36.1926 2.95449C36.688 3.04898 37.181 3.15576 37.6716 3.27481C41.3019 4.16773 44.7764 5.58082 48.2538 6.93296C50.0088 7.61328 51.7652 8.33185 53.5867 8.81233C55.4191 9.2865 57.2952 9.57145 59.1856 9.66273C62.7989 9.8569 66.4037 9.41044 69.9915 9.00934L71.3784 8.85769L70.1839 7.28869L69.489 10.2552L67.8203 17.3773L65.8107 25.9621L64.0712 33.3847C63.7882 34.5894 63.4627 35.7941 63.2221 37.0045C63.2221 37.0215 63.2136 37.0385 63.2107 37.0555L64.4039 36.1456C63.9439 36.0974 63.4839 36.0436 63.0239 35.9869C62.5059 35.9245 61.987 35.8588 61.4671 35.7899C61.4048 35.7814 61.1231 35.7431 61.3892 35.7785L61.3044 35.7672L60.7821 35.6949C60.4282 35.6453 60.0744 35.5943 59.7192 35.5418C56.2786 35.0344 52.8465 34.4207 49.4681 33.5831C47.7747 33.1772 46.105 32.678 44.4665 32.0878C44.0928 31.9461 43.7248 31.8043 43.3555 31.6527C43.7673 31.8171 43.4007 31.6711 43.3144 31.6342C43.1545 31.5648 42.996 31.4925 42.8361 31.4316C42.6308 31.3451 42.4242 31.2629 42.2162 31.1821C41.3896 30.866 40.5461 30.5953 39.6941 30.3586C35.8105 29.28 31.7146 28.8166 27.6895 28.8237C25.6998 28.8233 23.7129 28.9715 21.7452 29.2673C20.1304 29.5125 18.5184 29.8824 17.0054 30.5089C16.6049 30.6747 16.2086 30.8476 15.8236 31.0475L17.6437 32.4478L18.2904 29.4487L19.8346 22.3039L21.7127 13.6114L23.3261 6.14066C23.5893 4.92317 23.8682 3.70711 24.1158 2.48537C24.1158 2.46836 24.1229 2.45275 24.1272 2.43575C24.2687 1.8022 23.9389 1.06378 23.261 0.909292C22.6369 0.767559 21.8854 1.0978 21.7382 1.77528L21.09 4.77435L19.5473 11.9191L17.6692 20.6116L16.0557 28.0824C15.7924 29.2999 15.5066 30.516 15.266 31.7377C15.266 31.7547 15.2589 31.7717 15.2547 31.7887C15.1974 32.0253 15.21 32.2733 15.2908 32.5028C15.3716 32.7323 15.5172 32.9334 15.7099 33.0817C15.9026 33.2299 16.1341 33.319 16.3764 33.3381C16.6187 33.3571 16.8613 33.3054 17.0747 33.1891C17.2163 33.1125 17.3677 33.0473 17.5177 32.9708L17.7753 32.8546C18.0584 32.7341 17.512 32.9609 17.7979 32.8461C18.1503 32.7043 18.5056 32.5754 18.8736 32.4591C19.6455 32.2154 20.4309 32.0166 21.2258 31.8638C21.6636 31.7779 22.1033 31.7023 22.5448 31.6371C22.6411 31.6229 22.7373 31.613 22.8279 31.5974C22.4033 31.6682 22.8435 31.5974 22.9327 31.5846C23.1648 31.5549 23.3983 31.5294 23.6304 31.5053C24.5843 31.4075 25.5425 31.3479 26.5006 31.321C28.5051 31.2666 30.511 31.3414 32.5058 31.5449C32.7464 31.569 32.9856 31.5946 33.2262 31.6229L33.5446 31.6612L33.7442 31.6867C33.7866 31.6867 34.0753 31.7335 33.8574 31.7009C33.6394 31.6683 33.8998 31.7009 33.9295 31.7108L34.0881 31.7335L34.4433 31.7859C34.6915 31.8227 34.9392 31.862 35.1864 31.9035C36.1375 32.0651 37.0857 32.2564 38.017 32.486C38.9015 32.7029 39.7776 32.9524 40.641 33.2457C41.0514 33.3875 41.4589 33.5363 41.8609 33.6979L42.1072 33.7985C42.3294 33.8892 41.8723 33.695 42.0237 33.7631L42.1652 33.8254C42.4214 33.936 42.679 34.0451 42.938 34.15C44.5048 34.769 46.1086 35.2897 47.7401 35.7091C51.1608 36.6176 54.651 37.2681 58.1468 37.8025C59.5423 38.0179 60.9406 38.2135 62.3417 38.3892C62.9913 38.4715 63.6438 38.5707 64.2963 38.6203L64.3855 38.6302C64.9021 38.6826 65.4653 38.205 65.58 37.7188L66.2748 34.7524L67.9435 27.6303L69.9546 19.0455L71.6927 11.6229C71.9757 10.4168 72.2772 9.21344 72.5418 8.00303L72.5546 7.95201C72.7201 7.24335 72.1993 6.29232 71.3601 6.38161C67.7312 6.76996 64.0967 7.28304 60.4396 7.23201C59.5564 7.21926 58.6733 7.17249 57.7958 7.09028C57.5821 7.0676 57.3712 7.04351 57.1575 7.018C56.9225 6.98965 57.1504 7.018 57.1915 7.018L57.05 6.99673C56.9183 6.97831 56.7881 6.95846 56.6565 6.9372C56.2111 6.86633 55.7667 6.78365 55.3233 6.68916C53.4834 6.29231 51.7185 5.63184 49.9593 4.95719C46.4437 3.6093 42.9592 2.14945 39.3218 1.15307C35.7929 0.198581 32.1311 -0.167265 28.4835 0.0702243C27.1422 0.154238 25.8063 0.30799 24.481 0.530858C23.8781 0.632906 23.2681 0.739199 22.6765 0.896523L22.5959 0.916368C21.9703 1.08361 21.5258 1.80929 21.7311 2.44284C21.8237 2.75883 22.036 3.02607 22.3226 3.18758C22.6092 3.34909 22.9475 3.39209 23.2653 3.30741Z" fill="#040000"/>
<path d="M2.48238 95.0915L3.07509 92.6055L4.67851 85.8965L7.05347 75.9521L9.95037 63.8211L13.114 50.5776L16.3282 37.1213L19.3059 24.6583L21.8308 14.0896L23.6448 6.48945C23.9332 5.2904 24.2331 4.09419 24.51 2.8923C24.5215 2.84121 24.5345 2.79154 24.5475 2.74045C24.6272 2.42297 24.5801 2.08749 24.4159 1.80316C24.2517 1.51882 23.983 1.3073 23.665 1.21219C23.0262 1.03908 22.2706 1.42362 22.1134 2.0792L21.5193 4.5667L19.9173 11.2743L17.538 21.2186L14.6397 33.351L11.4818 46.5903L8.2676 60.0466L5.28128 72.5125L2.75641 83.0826L0.940922 90.6813C0.652528 91.8804 0.354039 93.0766 0.0757384 94.2785C0.0642026 94.3295 0.0512249 94.3806 0.0396891 94.4317C-0.0422586 94.7489 0.00374234 95.085 0.167974 95.3696C0.332206 95.6542 0.601909 95.8653 0.920715 95.9585C1.56095 96.1317 2.31655 95.7471 2.47372 95.0915H2.48238Z" fill="#040000"/>
<path d="M45.379 13.8108C45.1378 13.4379 48.2732 12.0934 48.6068 12.0459C50.4178 11.7867 51.9738 13.4638 52.5058 15.1222C53.1439 17.1088 51.9476 19.3675 50.7541 20.9121C49.744 22.1986 48.6664 23.4255 47.5263 24.5874C46.7572 25.382 45.2742 27.0058 44.0627 26.9238C42.6845 26.8302 38.2949 20.6487 37.0338 18.5887C35.7727 16.5287 36.0043 13.3084 38.6477 11.2786C42.0533 8.66577 45.3652 13.7906 45.379 13.8108Z" fill="#FF6E40"/>
</svg>
