<svg width="16" height="16" viewBox="0 0 16 16" fill="none" xmlns="http://www.w3.org/2000/svg">
<mask id="path-1-inside-1_3373_37365" fill="white">
<path d="M2 7C2 3.68629 4.68629 1 8 1C11.3137 1 14 3.68629 14 7V11.5417C14 12.0709 13.5709 12.5 13.0417 12.5H2.95833C2.42906 12.5 2 12.0709 2 11.5417V7Z"/>
</mask>
<path d="M2 7C2 3.68629 4.68629 1 8 1C11.3137 1 14 3.68629 14 7V11.5417C14 12.0709 13.5709 12.5 13.0417 12.5H2.95833C2.42906 12.5 2 12.0709 2 11.5417V7Z" stroke="#F76131" stroke-width="3" mask="url(#path-1-inside-1_3373_37365)"/>
<mask id="path-2-inside-2_3373_37365" fill="white">
<path d="M0 14C0 12.3431 1.34315 11 3 11H13C14.6569 11 16 12.3431 16 14C16 14.5523 15.5523 15 15 15H1C0.447715 15 0 14.5523 0 14Z"/>
</mask>
<path d="M0 14C0 12.3431 1.34315 11 3 11H13C14.6569 11 16 12.3431 16 14C16 14.5523 15.5523 15 15 15H1C0.447715 15 0 14.5523 0 14Z" stroke="#F76131" stroke-width="3" mask="url(#path-2-inside-2_3373_37365)"/>
<path d="M10.7492 7.25041C10.7492 5.72151 9.93755 4.92309 9.08984 4.54492" stroke="#F76131" stroke-width="1.5"/>
</svg>
