<svg width="24" height="24" viewBox="0 0 24 24" fill="none" xmlns="http://www.w3.org/2000/svg">
<path d="M12.0112 1.71277C12.7952 1.72131 13.576 1.81211 14.3419 1.98301C14.5048 2.01938 14.6523 2.10574 14.7638 2.23003C14.8752 2.35431 14.9451 2.51031 14.9636 2.67623L15.1451 4.30728C15.1708 4.53723 15.25 4.75796 15.3765 4.9517C15.503 5.14543 15.6732 5.30677 15.8735 5.42273C16.0737 5.53869 16.2983 5.60603 16.5293 5.61933C16.7603 5.63263 16.9912 5.59153 17.2034 5.49933L18.6999 4.84242C18.8518 4.7755 19.0208 4.75744 19.1835 4.79074C19.3461 4.82403 19.4944 4.90704 19.6078 5.02828C20.6887 6.18303 21.4936 7.5679 21.962 9.07866C22.0111 9.23743 22.0096 9.40754 21.9578 9.56543C21.9059 9.72331 21.8062 9.86116 21.6725 9.95988L20.3459 10.9383C20.1593 11.0753 20.0077 11.2544 19.9031 11.4609C19.7986 11.6674 19.7441 11.8956 19.7441 12.1271C19.7441 12.3586 19.7986 12.5869 19.9031 12.7934C20.0077 12.9999 20.1593 13.1789 20.3459 13.316L21.6736 14.2933C21.8077 14.392 21.9077 14.5299 21.9598 14.6881C22.0119 14.8462 22.0134 15.0166 21.9641 15.1756C21.4956 16.6863 20.6907 18.0711 19.61 19.226C19.4968 19.347 19.349 19.4299 19.1868 19.4634C19.0246 19.4968 18.856 19.4792 18.7042 19.4129L17.2013 18.7539C16.9894 18.661 16.7586 18.6192 16.5275 18.6321C16.2965 18.6449 16.0717 18.712 15.8714 18.8279C15.6711 18.9437 15.5008 19.1051 15.3745 19.299C15.2481 19.4929 15.1692 19.7137 15.1441 19.9438L14.9636 21.5738C14.9454 21.7379 14.8769 21.8924 14.7675 22.0161C14.6581 22.1398 14.5132 22.2267 14.3526 22.2649C12.8054 22.6329 11.1935 22.6329 9.64635 22.2649C9.48571 22.2267 9.34078 22.1398 9.23142 22.0161C9.12205 21.8924 9.05358 21.7379 9.03538 21.5738L8.85593 19.9459C8.82976 19.7165 8.75012 19.4963 8.62341 19.3033C8.4967 19.1102 8.32646 18.9495 8.12637 18.8342C7.92627 18.7189 7.70191 18.6521 7.47132 18.6393C7.24073 18.6264 7.01035 18.6679 6.79869 18.7603L5.29689 19.4183C5.14497 19.4848 4.97615 19.5026 4.81372 19.4691C4.65129 19.4356 4.50325 19.3525 4.39004 19.2313C3.30877 18.0752 2.50384 16.6889 2.03585 15.1767C1.98661 15.0177 1.98813 14.8472 2.04019 14.6891C2.09226 14.531 2.19229 14.393 2.32639 14.2944L3.65409 13.316C3.84085 13.1791 3.99273 13.0001 4.09742 12.7936C4.20211 12.587 4.25666 12.3587 4.25666 12.1271C4.25666 11.8956 4.20211 11.6673 4.09742 11.4607C3.99273 11.2542 3.84085 11.0752 3.65409 10.9383L2.32639 9.96201C2.19248 9.86323 2.09266 9.7252 2.04079 9.56709C1.98892 9.40898 1.98756 9.23864 2.03692 9.07973C2.50533 7.56898 3.31024 6.18412 4.3911 5.02934C4.50452 4.9081 4.65281 4.8251 4.81546 4.7918C4.97811 4.75851 5.14708 4.77657 5.29902 4.84349L6.79442 5.50039C7.007 5.59254 7.23823 5.63355 7.46953 5.62012C7.70084 5.60669 7.92577 5.53919 8.12625 5.42305C8.32674 5.30692 8.49719 5.14538 8.62392 4.95141C8.75064 4.75745 8.83011 4.53646 8.85593 4.30621L9.03751 2.67623C9.05584 2.50998 9.12575 2.35364 9.23743 2.22912C9.3491 2.10461 9.49695 2.01818 9.66024 1.98194C10.4261 1.81211 11.209 1.72238 12.0112 1.71277ZM12.0112 3.31498C11.5267 3.32067 11.0433 3.36244 10.565 3.43995L10.4485 4.48352C10.3952 4.96372 10.2298 5.42466 9.96552 5.82915C9.7013 6.23365 9.34569 6.57037 8.9274 6.81216C8.5091 7.05395 8.03983 7.19403 7.55744 7.2211C7.07505 7.24818 6.59305 7.16148 6.15033 6.96802L5.19114 6.54717C4.58015 7.28859 4.09385 8.12447 3.75129 9.02205L4.60366 9.64905C4.9927 9.93496 5.309 10.3084 5.52701 10.7392C5.74502 11.1699 5.85861 11.6459 5.85861 12.1287C5.85861 12.6115 5.74502 13.0876 5.52701 13.5183C5.309 13.9491 4.9927 14.3225 4.60366 14.6084L3.75022 15.2365C4.09202 16.1359 4.5791 16.9733 5.19007 17.7167L6.15674 17.2927C6.59841 17.0998 7.07918 17.0134 7.56035 17.0403C8.04153 17.0672 8.50967 17.2067 8.92708 17.4476C9.3445 17.6884 9.69953 18.0239 9.96361 18.4271C10.2277 18.8302 10.3934 19.2897 10.4475 19.7686L10.565 20.8197C11.5145 20.9799 12.4855 20.9799 13.435 20.8197L13.5525 19.7686C13.6057 19.2891 13.7709 18.8288 14.0347 18.4249C14.2985 18.021 14.6536 17.6848 15.0714 17.4434C15.4891 17.202 15.9577 17.0622 16.4394 17.0353C16.921 17.0083 17.4023 17.0951 17.8443 17.2884L18.811 17.7114C19.4217 16.9695 19.9076 16.1333 20.2498 15.2354L19.3974 14.6074C19.0084 14.3214 18.6921 13.948 18.4741 13.5173C18.2561 13.0865 18.1425 12.6105 18.1425 12.1277C18.1425 11.6449 18.2561 11.1689 18.4741 10.7381C18.6921 10.3073 19.0084 9.93389 19.3974 9.64798L20.2476 9.02098C19.9051 8.1234 19.4188 7.28752 18.8078 6.5461L17.8507 6.96588C17.4083 7.15959 16.9264 7.24653 16.4442 7.21969C15.9619 7.19285 15.4927 7.05297 15.0744 6.81136C14.6562 6.56975 14.3006 6.23317 14.0364 5.8288C13.7722 5.42443 13.6069 4.9636 13.5536 4.48352L13.4361 3.44102C12.9653 3.36404 12.4893 3.32227 12.0123 3.31605L12.0112 3.31498ZM11.9984 8.12161C13.0607 8.12161 14.0795 8.54362 14.8307 9.2948C15.5819 10.046 16.0039 11.0648 16.0039 12.1271C16.0039 13.1895 15.5819 14.2083 14.8307 14.9595C14.0795 15.7107 13.0607 16.1327 11.9984 16.1327C10.9361 16.1327 9.91724 15.7107 9.16606 14.9595C8.41488 14.2083 7.99287 13.1895 7.99287 12.1271C7.99287 11.0648 8.41488 10.046 9.16606 9.2948C9.91724 8.54362 10.9361 8.12161 11.9984 8.12161ZM11.9984 9.72382C11.361 9.72382 10.7497 9.97703 10.299 10.4277C9.84829 10.8784 9.59508 11.4897 9.59508 12.1271C9.59508 12.7645 9.84829 13.3758 10.299 13.8265C10.7497 14.2772 11.361 14.5305 11.9984 14.5305C12.6358 14.5305 13.2471 14.2772 13.6978 13.8265C14.1485 13.3758 14.4017 12.7645 14.4017 12.1271C14.4017 11.4897 14.1485 10.8784 13.6978 10.4277C13.2471 9.97703 12.6358 9.72382 11.9984 9.72382Z" fill="black"/>
</svg>
