<svg width="24" height="24" viewBox="0 0 24 24" fill="none" xmlns="http://www.w3.org/2000/svg">
<path d="M7.25862 2.39974C7.59335 1.86675 8.40665 1.86675 8.74139 2.39974L15.877 13.7615C16.2199 14.3075 15.8053 15 15.1356 15H0.864419C0.194663 15 -0.219881 14.3075 0.123033 13.7615L7.25862 2.39974Z" fill="url(#paint0_linear_2285_27964)"/>
<path d="M7.25862 2.39974C7.59335 1.86675 8.40665 1.86675 8.74139 2.39974L15.877 13.7615C16.2199 14.3075 15.8053 15 15.1356 15H0.864419C0.194663 15 -0.219881 14.3075 0.123033 13.7615L7.25862 2.39974Z" fill="#2CCA61"/>
<circle cx="16.5" cy="14.5" r="7.5" fill="url(#paint1_linear_2285_27964)"/>
<circle cx="16.5" cy="14.5" r="7.5" fill="#FF71D9"/>
<path fill-rule="evenodd" clip-rule="evenodd" d="M9.01953 15.061C9.30645 18.9411 12.5454 22 16.4989 22C20.641 22 23.9989 18.6421 23.9989 14.5C23.9989 10.3579 20.641 7 16.4989 7C15.0459 7 13.6893 7.4132 12.5404 8.12849L16.1595 13.8166C16.5086 14.3652 16.0866 15.061 15.4049 15.061H9.01953Z" fill="url(#paint2_linear_2285_27964)"/>
<path fill-rule="evenodd" clip-rule="evenodd" d="M9.01953 15.061C9.30645 18.9411 12.5454 22 16.4989 22C20.641 22 23.9989 18.6421 23.9989 14.5C23.9989 10.3579 20.641 7 16.4989 7C15.0459 7 13.6893 7.4132 12.5404 8.12849L16.1595 13.8166C16.5086 14.3652 16.0866 15.061 15.4049 15.061H9.01953Z" fill="#F8D240"/>
<defs>
<linearGradient id="paint0_linear_2285_27964" x1="2.10526" y1="4.4375" x2="11.443" y2="14.1155" gradientUnits="userSpaceOnUse">
<stop stop-color="#6F4FF2"/>
<stop offset="1" stop-color="#613AFF"/>
</linearGradient>
<linearGradient id="paint1_linear_2285_27964" x1="11.9167" y1="8.66667" x2="16.0833" y2="17" gradientUnits="userSpaceOnUse">
<stop stop-color="#FF71D9"/>
<stop offset="0.965206" stop-color="#FF56EE"/>
</linearGradient>
<linearGradient id="paint2_linear_2285_27964" x1="12.856" y1="7.71379" x2="19.1997" y2="20.6192" gradientUnits="userSpaceOnUse">
<stop stop-color="#F8D240"/>
<stop offset="1" stop-color="#F1C002"/>
</linearGradient>
</defs>
</svg>
